SplineFontDB: 3.2
FontName: kannada15m
FullName: kannada15m
FamilyName: kannada15m
Weight: Book
Copyright: Copyright 2022 The Noto Project Authors (https://github.com/notofonts/kannada)
Version: 2.003
ItalicAngle: 0
UnderlinePosition: -125
UnderlineWidth: 50
Ascent: 800
Descent: 200
InvalidEm: 0
sfntRevision: 0x000200c5
LayerCount: 2
Layer: 0 1 "Back" 1
Layer: 1 1 "Fore" 0
XUID: [1021 467 -1121320856 6045849]
StyleMap: 0x0040
FSType: 0
OS2Version: 4
OS2_WeightWidthSlopeOnly: 0
OS2_UseTypoMetrics: 1
CreationTime: 1528877849
ModificationTime: 1741115580
PfmFamily: 81
TTFWeight: 400
TTFWidth: 5
LineGap: 0
VLineGap: 0
Panose: 0 0 0 0 0 0 0 0 0 0
OS2TypoAscent: 809
OS2TypoAOffset: 0
OS2TypoDescent: -540
OS2TypoDOffset: 0
OS2TypoLinegap: 0
OS2WinAscent: 809
OS2WinAOffset: 0
OS2WinDescent: 540
OS2WinDOffset: 0
HheadAscent: 809
HheadAOffset: 0
HheadDescent: -540
HheadDOffset: 0
OS2SubXSize: 650
OS2SubYSize: 600
OS2SubXOff: 0
OS2SubYOff: 75
OS2SupXSize: 650
OS2SupYSize: 600
OS2SupXOff: 0
OS2SupYOff: 350
OS2StrikeYSize: 50
OS2StrikeYPos: 331
OS2CapHeight: 690
OS2XHeight: 551
OS2Vendor: 'GOOG'
OS2CodePages: 00000093.00000000
OS2UnicodeRanges: 80408003.00002042.00000000.00000000















































































































































































































MarkAttachClasses: 2
"MarkClass-1" 334 aavowelsignknda ivowelsignknda iivowelsignknda uvowelsignknda uuvowelsignknda evowelsignknda eevowelsignknda aivowelsignknda ovowelsignknda oovowelsignknda auvowelsignknda lengthmarkknda aavowelsignaltknda evowelsignaltknda uvowelsignaltknda uuvowelsignaltknda uvowelsignalt2knda uuvowelsignalt2knda uvowelsignlaknda uuvowelsignlaknda
MarkAttachSets: 1
"MarkSet-0" 17 nuktaknda uni200D
DEI: 91125


StartChar: exclam.knda
Encoding: 33 33 3
Width: 1284
Flags: W
LayerCount: 2
Fore
SplineSet
637 112 m 0,0,1
 621 112 621 112 612 123 c 128,-1,2
 603 134 603 134 598.5 161 c 128,-1,3
 594 188 594 188 593 233.5 c 128,-1,4
 592 279 592 279 592 348 c 0,5,6
 592 445 592 445 593 499 c 128,-1,7
 594 553 594 553 600 579 c 128,-1,8
 606 605 606 605 618.5 610.5 c 128,-1,9
 631 616 631 616 654 616 c 0,10,11
 666 616 666 616 673 609 c 128,-1,12
 680 602 680 602 684.5 579 c 128,-1,13
 689 556 689 556 690.5 511 c 128,-1,14
 692 466 692 466 692 389 c 0,15,16
 692 249 692 249 682 180.5 c 128,-1,17
 672 112 672 112 637 112 c 0,0,1
624 593 m 0,18,19
 620 593 620 593 614 581 c 128,-1,20
 608 569 608 569 608 544 c 0,21,22
 608 531 608 531 609.5 518.5 c 128,-1,23
 611 506 611 506 618 506 c 0,24,25
 624 506 624 506 626 510 c 128,-1,26
 628 514 628 514 628 519.5 c 128,-1,27
 628 525 628 525 627.5 532 c 128,-1,28
 627 539 627 539 627 545 c 0,29,30
 628 562 628 562 630 577.5 c 128,-1,31
 632 593 632 593 624 593 c 0,18,19
638 -8 m 0,32,33
 619 -8 619 -8 607.5 4.5 c 128,-1,34
 596 17 596 17 596 38 c 0,35,36
 596 57 596 57 606 73.5 c 128,-1,37
 616 90 616 90 638 90 c 0,38,39
 661 90 661 90 673 74.5 c 128,-1,40
 685 59 685 59 685 38 c 0,41,42
 685 15 685 15 671.5 3.5 c 128,-1,43
 658 -8 658 -8 638 -8 c 0,32,33
620 44 m 0,44,45
 621 55 621 55 625 64 c 128,-1,46
 629 73 629 73 624 73 c 0,47,48
 617 73 617 73 612.5 58.5 c 128,-1,49
 608 44 608 44 608 33 c 0,50,51
 608 23 608 23 613 23 c 0,52,53
 617 23 617 23 618 30.5 c 128,-1,54
 619 38 619 38 620 44 c 0,44,45
EndSplineSet
EndChar

StartChar: quotedbl.knda
Encoding: 34 34 4
Width: 1284
Flags: W
LayerCount: 2
Fore
SplineSet
598 714 m 1,0,-1
 578 456 l 1,1,-1
 523 456 l 1,2,-1
 503 714 l 1,3,-1
 598 714 l 1,0,-1
781 714 m 1,4,-1
 761 456 l 1,5,-1
 706 456 l 1,6,-1
 686 714 l 1,7,-1
 781 714 l 1,4,-1
EndSplineSet
EndChar

StartChar: numbersign.knda
Encoding: 35 35 5
Width: 1284
Flags: W
LayerCount: 2
Fore
SplineSet
655.954101562 108 m 0,0,1
 637.954101562 108 637.954101562 108 631.454101562 120 c 128,-1,2
 624.954101562 132 624.954101562 132 623.954101562 147 c 0,3,4
 622.954101562 164 622.954101562 164 629.454101562 181 c 128,-1,5
 635.954101562 198 635.954101562 198 634.954101562 211 c 0,6,7
 634.954101562 214 634.954101562 214 627.454101562 215 c 128,-1,8
 619.954101562 216 619.954101562 216 617.954101562 216 c 2,9,-1
 586.954101562 216 l 1,10,11
 583.954101562 207 583.954101562 207 577.954101562 192 c 128,-1,12
 571.954101562 177 571.954101562 177 563.954101562 162 c 128,-1,13
 555.954101562 147 555.954101562 147 545.454101562 136.5 c 128,-1,14
 534.954101562 126 534.954101562 126 521.954101562 126 c 0,15,16
 505.954101562 126 505.954101562 126 499.454101562 136 c 128,-1,17
 492.954101562 146 492.954101562 146 491.954101562 160 c 0,18,19
 490.954101562 177 490.954101562 177 495.454101562 187.5 c 128,-1,20
 499.954101562 198 499.954101562 198 498.954101562 214 c 0,21,22
 498.954101562 222 498.954101562 222 489.454101562 222.5 c 128,-1,23
 479.954101562 223 479.954101562 223 467.954101562 225 c 128,-1,24
 455.954101562 227 455.954101562 227 445.954101562 234.5 c 128,-1,25
 435.954101562 242 435.954101562 242 434.954101562 264 c 0,26,27
 434.954101562 276 434.954101562 276 440.954101562 283.5 c 128,-1,28
 446.954101562 291 446.954101562 291 455.954101562 295 c 128,-1,29
 464.954101562 299 464.954101562 299 475.954101562 300.5 c 128,-1,30
 486.954101562 302 486.954101562 302 496.954101562 302 c 0,31,32
 508.954101562 302 508.954101562 302 516.454101562 309.5 c 128,-1,33
 523.954101562 317 523.954101562 317 527.954101562 328 c 128,-1,34
 531.954101562 339 531.954101562 339 534.454101562 351 c 128,-1,35
 536.954101562 363 536.954101562 363 538.954101562 372 c 1,36,37
 530.954101562 372 530.954101562 372 518.954101562 373.5 c 128,-1,38
 506.954101562 375 506.954101562 375 495.454101562 378.5 c 128,-1,39
 483.954101562 382 483.954101562 382 475.954101562 389.5 c 128,-1,40
 467.954101562 397 467.954101562 397 467.954101562 409 c 0,41,42
 466.954101562 435 466.954101562 435 481.454101562 442 c 128,-1,43
 495.954101562 449 495.954101562 449 533.954101562 449 c 0,44,45
 549.954101562 449 549.954101562 449 555.954101562 452.5 c 128,-1,46
 561.954101562 456 561.954101562 456 566.954101562 472 c 0,47,48
 569.954101562 479 569.954101562 479 572.954101562 489.5 c 128,-1,49
 575.954101562 500 575.954101562 500 581.454101562 510 c 128,-1,50
 586.954101562 520 586.954101562 520 595.954101562 527 c 128,-1,51
 604.954101562 534 604.954101562 534 619.954101562 534 c 0,52,53
 639.954101562 534 639.954101562 534 647.454101562 522 c 128,-1,54
 654.954101562 510 654.954101562 510 655.954101562 499 c 0,55,56
 655.954101562 489 655.954101562 489 652.454101562 480.5 c 128,-1,57
 648.954101562 472 648.954101562 472 649.954101562 462 c 0,58,59
 649.954101562 457 649.954101562 457 654.454101562 454.5 c 128,-1,60
 658.954101562 452 658.954101562 452 664.454101562 450.5 c 128,-1,61
 669.954101562 449 669.954101562 449 675.954101562 449 c 128,-1,62
 681.954101562 449 681.954101562 449 684.954101562 449 c 0,63,64
 694.954101562 449 694.954101562 449 700.954101562 461 c 128,-1,65
 706.954101562 473 706.954101562 473 712.954101562 488 c 128,-1,66
 718.954101562 503 718.954101562 503 726.954101562 515 c 128,-1,67
 734.954101562 527 734.954101562 527 749.954101562 527 c 0,68,69
 769.954101562 527 769.954101562 527 778.954101562 511 c 128,-1,70
 787.954101562 495 787.954101562 495 788.954101562 483 c 0,71,72
 788.954101562 475 788.954101562 475 785.954101562 467.5 c 128,-1,73
 782.954101562 460 782.954101562 460 782.954101562 451 c 0,74,75
 782.954101562 444 782.954101562 444 793.454101562 443.5 c 128,-1,76
 803.954101562 443 803.954101562 443 815.954101562 441.5 c 128,-1,77
 827.954101562 440 827.954101562 440 837.954101562 434.5 c 128,-1,78
 847.954101562 429 847.954101562 429 848.954101562 412 c 0,79,80
 849.954101562 398 849.954101562 398 839.954101562 390 c 128,-1,81
 829.954101562 382 829.954101562 382 816.454101562 377.5 c 128,-1,82
 802.954101562 373 802.954101562 373 787.954101562 371.5 c 128,-1,83
 772.954101562 370 772.954101562 370 763.954101562 370 c 1,84,85
 756.954101562 351 756.954101562 351 752.454101562 335 c 128,-1,86
 747.954101562 319 747.954101562 319 740.954101562 299 c 1,87,88
 751.954101562 299 751.954101562 299 763.954101562 299.5 c 128,-1,89
 775.954101562 300 775.954101562 300 785.954101562 297.5 c 128,-1,90
 795.954101562 295 795.954101562 295 802.454101562 288 c 128,-1,91
 808.954101562 281 808.954101562 281 809.954101562 265 c 0,92,93
 810.954101562 251 810.954101562 251 804.954101562 241.5 c 128,-1,94
 798.954101562 232 798.954101562 232 788.954101562 226 c 128,-1,95
 778.954101562 220 778.954101562 220 767.454101562 217.5 c 128,-1,96
 755.954101562 215 755.954101562 215 744.954101562 215 c 2,97,-1
 739.954101562 215 l 1,98,-1
 728.954101562 216 l 1,99,-1
 723.954101562 216 l 1,100,101
 720.954101562 204 720.954101562 204 717.454101562 186 c 128,-1,102
 713.954101562 168 713.954101562 168 707.454101562 150.5 c 128,-1,103
 700.954101562 133 700.954101562 133 688.954101562 120.5 c 128,-1,104
 676.954101562 108 676.954101562 108 655.954101562 108 c 0,0,1
587.954101562 457 m 0,105,106
 590.954101562 457 590.954101562 457 594.954101562 463 c 128,-1,107
 598.954101562 469 598.954101562 469 602.454101562 476.5 c 128,-1,108
 605.954101562 484 605.954101562 484 608.954101562 492 c 128,-1,109
 611.954101562 500 611.954101562 500 611.954101562 503 c 0,110,111
 611.954101562 508 611.954101562 508 606.954101562 508 c 0,112,113
 602.954101562 509 602.954101562 509 598.454101562 504 c 128,-1,114
 593.954101562 499 593.954101562 499 590.454101562 492 c 128,-1,115
 586.954101562 485 586.954101562 485 584.454101562 477.5 c 128,-1,116
 581.954101562 470 581.954101562 470 581.954101562 466 c 0,117,118
 581.954101562 463 581.954101562 463 583.954101562 460 c 128,-1,119
 585.954101562 457 585.954101562 457 587.954101562 457 c 0,105,106
485.954101562 404 m 0,120,121
 490.954101562 404 490.954101562 404 493.954101562 415 c 128,-1,122
 496.954101562 426 496.954101562 426 495.954101562 430 c 0,123,124
 495.954101562 434 495.954101562 434 492.954101562 434 c 0,125,126
 487.954101562 436 487.954101562 436 483.454101562 429 c 128,-1,127
 478.954101562 422 478.954101562 422 479.954101562 416 c 0,128,129
 479.954101562 404 479.954101562 404 485.954101562 404 c 0,120,121
632.954101562 298 m 0,130,131
 643.954101562 298 643.954101562 298 651.954101562 305.5 c 128,-1,132
 659.954101562 313 659.954101562 313 664.954101562 323.5 c 128,-1,133
 669.954101562 334 669.954101562 334 671.954101562 345.5 c 128,-1,134
 673.954101562 357 673.954101562 357 673.954101562 366 c 0,135,136
 673.954101562 369 673.954101562 369 672.954101562 372 c 128,-1,137
 671.954101562 375 671.954101562 375 667.954101562 375 c 0,138,139
 644.954101562 375 644.954101562 375 635.954101562 369 c 128,-1,140
 626.954101562 363 626.954101562 363 618.954101562 342 c 0,141,142
 616.954101562 336 616.954101562 336 612.454101562 323 c 128,-1,143
 607.954101562 310 607.954101562 310 608.954101562 304 c 2,144,-1
 608.954101562 303 l 1,145,146
 613.954101562 300 613.954101562 300 620.454101562 299 c 128,-1,147
 626.954101562 298 626.954101562 298 632.954101562 298 c 0,130,131
467.954101562 279 m 0,148,149
 467.954101562 285 467.954101562 285 460.954101562 285 c 0,150,151
 451.954101562 285 451.954101562 285 448.954101562 273 c 128,-1,152
 445.954101562 261 445.954101562 261 447.954101562 256 c 256,153,154
 449.954101562 251 449.954101562 251 451.954101562 250 c 0,155,156
 453.954101562 250 453.954101562 250 456.954101562 253.5 c 128,-1,157
 459.954101562 257 459.954101562 257 462.454101562 262 c 128,-1,158
 464.954101562 267 464.954101562 267 466.454101562 272 c 128,-1,159
 467.954101562 277 467.954101562 277 467.954101562 279 c 0,148,149
EndSplineSet
EndChar

StartChar: percent.knda
Encoding: 37 37 6
Width: 1284
Flags: W
LayerCount: 2
Fore
SplineSet
504.5 -6 m 0,0,1
 500.5 -6 500.5 -6 493 -4 c 128,-1,2
 485.5 -2 485.5 -2 478.5 2 c 128,-1,3
 471.5 6 471.5 6 466.5 11.5 c 128,-1,4
 461.5 17 461.5 17 461.5 23 c 0,5,6
 461.5 30 461.5 30 465.5 46.5 c 128,-1,7
 469.5 63 469.5 63 481.5 93 c 128,-1,8
 493.5 123 493.5 123 515 168.5 c 128,-1,9
 536.5 214 536.5 214 571.5 280 c 0,10,11
 625.5 383 625.5 383 659 450 c 128,-1,12
 692.5 517 692.5 517 713.5 556 c 0,13,14
 734.5 596 734.5 596 752 607.5 c 128,-1,15
 769.5 619 769.5 619 782.5 619 c 0,16,17
 799.5 619 799.5 619 806 607 c 128,-1,18
 812.5 595 812.5 595 811.5 577.5 c 128,-1,19
 810.5 560 810.5 560 805 541.5 c 128,-1,20
 799.5 523 799.5 523 793.5 510 c 0,21,22
 779.5 481 779.5 481 756.5 434.5 c 128,-1,23
 733.5 388 733.5 388 707 335.5 c 128,-1,24
 680.5 283 680.5 283 653 229 c 128,-1,25
 625.5 175 625.5 175 602.5 130.5 c 128,-1,26
 579.5 86 579.5 86 564 56 c 128,-1,27
 548.5 26 548.5 26 545.5 22 c 0,28,29
 534.5 5 534.5 5 524 -0.5 c 128,-1,30
 513.5 -6 513.5 -6 504.5 -6 c 0,0,1
510.5 393 m 0,31,32
 487.5 393 487.5 393 470 402.5 c 128,-1,33
 452.5 412 452.5 412 440.5 428 c 128,-1,34
 428.5 444 428.5 444 422.5 465 c 128,-1,35
 416.5 486 416.5 486 416.5 510 c 0,36,37
 416.5 529 416.5 529 423 548 c 128,-1,38
 429.5 567 429.5 567 441.5 582.5 c 128,-1,39
 453.5 598 453.5 598 470.5 608 c 128,-1,40
 487.5 618 487.5 618 508.5 618 c 0,41,42
 550.5 618 550.5 618 574.5 594.5 c 128,-1,43
 598.5 571 598.5 571 598.5 517 c 0,44,45
 598.5 490 598.5 490 591.5 467.5 c 128,-1,46
 584.5 445 584.5 445 572.5 428.5 c 128,-1,47
 560.5 412 560.5 412 544.5 402.5 c 128,-1,48
 528.5 393 528.5 393 510.5 393 c 0,31,32
510.5 460 m 0,49,50
 517.5 460 517.5 460 522.5 465.5 c 128,-1,51
 527.5 471 527.5 471 530.5 479.5 c 128,-1,52
 533.5 488 533.5 488 535 498 c 128,-1,53
 536.5 508 536.5 508 536.5 517 c 0,54,55
 536.5 534 536.5 534 529.5 546 c 128,-1,56
 522.5 558 522.5 558 510.5 558 c 0,57,58
 499.5 558 499.5 558 491.5 543.5 c 128,-1,59
 483.5 529 483.5 529 483.5 512 c 256,60,61
 483.5 495 483.5 495 490.5 477.5 c 128,-1,62
 497.5 460 497.5 460 510.5 460 c 0,49,50
442.5 512 m 256,63,64
 442.5 528 442.5 528 442.5 535.5 c 128,-1,65
 442.5 543 442.5 543 439.5 543 c 0,66,67
 433.5 543 433.5 543 431.5 530.5 c 128,-1,68
 429.5 518 429.5 518 429.5 514 c 0,69,70
 429.5 511 429.5 511 429.5 505.5 c 128,-1,71
 429.5 500 429.5 500 431 494.5 c 128,-1,72
 432.5 489 432.5 489 435 484.5 c 128,-1,73
 437.5 480 437.5 480 442.5 480 c 0,74,75
 446.5 480 446.5 480 444.5 488 c 128,-1,76
 442.5 496 442.5 496 442.5 512 c 256,63,64
467.5 453 m 0,77,78
 467.5 464 467.5 464 458.5 464 c 0,79,80
 452.5 464 452.5 464 452.5 456 c 0,81,82
 452.5 454 452.5 454 455 450 c 128,-1,83
 457.5 446 457.5 446 460.5 446 c 0,84,85
 467.5 446 467.5 446 467.5 453 c 0,77,78
779.5 -6 m 0,86,87
 756.5 -6 756.5 -6 739 3.5 c 128,-1,88
 721.5 13 721.5 13 709.5 29 c 128,-1,89
 697.5 45 697.5 45 691.5 66 c 128,-1,90
 685.5 87 685.5 87 685.5 111 c 0,91,92
 685.5 130 685.5 130 692 149 c 128,-1,93
 698.5 168 698.5 168 710.5 183.5 c 128,-1,94
 722.5 199 722.5 199 739.5 209 c 128,-1,95
 756.5 219 756.5 219 777.5 219 c 0,96,97
 819.5 219 819.5 219 843.5 195.5 c 128,-1,98
 867.5 172 867.5 172 867.5 118 c 0,99,100
 867.5 91 867.5 91 860.5 68.5 c 128,-1,101
 853.5 46 853.5 46 841.5 29.5 c 128,-1,102
 829.5 13 829.5 13 813.5 3.5 c 128,-1,103
 797.5 -6 797.5 -6 779.5 -6 c 0,86,87
779.5 61 m 0,104,105
 786.5 61 786.5 61 791.5 66.5 c 128,-1,106
 796.5 72 796.5 72 799.5 80.5 c 128,-1,107
 802.5 89 802.5 89 804 99 c 128,-1,108
 805.5 109 805.5 109 805.5 118 c 0,109,110
 805.5 135 805.5 135 798.5 147 c 128,-1,111
 791.5 159 791.5 159 779.5 159 c 0,112,113
 768.5 159 768.5 159 760.5 144.5 c 128,-1,114
 752.5 130 752.5 130 752.5 113 c 256,115,116
 752.5 96 752.5 96 759.5 78.5 c 128,-1,117
 766.5 61 766.5 61 779.5 61 c 0,104,105
711.5 113 m 256,118,119
 711.5 129 711.5 129 711.5 136.5 c 128,-1,120
 711.5 144 711.5 144 708.5 144 c 0,121,122
 702.5 144 702.5 144 700.5 131.5 c 128,-1,123
 698.5 119 698.5 119 698.5 115 c 0,124,125
 698.5 112 698.5 112 698.5 106.5 c 128,-1,126
 698.5 101 698.5 101 700 95.5 c 128,-1,127
 701.5 90 701.5 90 704 85.5 c 128,-1,128
 706.5 81 706.5 81 711.5 81 c 0,129,130
 715.5 81 715.5 81 713.5 89 c 128,-1,131
 711.5 97 711.5 97 711.5 113 c 256,118,119
502.5 82 m 0,132,133
 497.5 87 497.5 87 492 82 c 128,-1,134
 486.5 77 486.5 77 483.5 69 c 256,135,136
 480.5 61 480.5 61 477.5 50 c 128,-1,137
 474.5 39 474.5 39 474.5 34 c 0,138,139
 475.5 23 475.5 23 479 23 c 128,-1,140
 482.5 23 482.5 23 489.5 40 c 0,141,142
 494.5 52 494.5 52 499.5 66 c 128,-1,143
 504.5 80 504.5 80 502.5 82 c 0,132,133
736.5 54 m 0,144,145
 736.5 65 736.5 65 727.5 65 c 0,146,147
 721.5 65 721.5 65 721.5 57 c 0,148,149
 721.5 55 721.5 55 724 51 c 128,-1,150
 726.5 47 726.5 47 729.5 47 c 0,151,152
 736.5 47 736.5 47 736.5 54 c 0,144,145
EndSplineSet
EndChar

StartChar: quotesingle.knda
Encoding: 39 39 7
Width: 1284
Flags: W
LayerCount: 2
Fore
SplineSet
689.5 714 m 1,0,-1
 669.5 456 l 1,1,-1
 614.5 456 l 1,2,-1
 594.5 714 l 1,3,-1
 689.5 714 l 1,0,-1
EndSplineSet
EndChar

StartChar: parenleft.knda
Encoding: 40 40 8
Width: 1284
Flags: W
LayerCount: 2
Fore
SplineSet
706.5 -72 m 0,0,1
 652.5 -51 652.5 -51 616 -13 c 128,-1,2
 579.5 25 579.5 25 557 71.5 c 128,-1,3
 534.5 118 534.5 118 524.5 169.5 c 128,-1,4
 514.5 221 514.5 221 514.5 269 c 0,5,6
 514.5 315 514.5 315 523 363 c 128,-1,7
 531.5 411 531.5 411 547 456 c 128,-1,8
 562.5 501 562.5 501 585.5 540.5 c 128,-1,9
 608.5 580 608.5 580 636.5 609 c 0,10,11
 663.5 636 663.5 636 688.5 654 c 128,-1,12
 713.5 672 713.5 672 733.5 672 c 0,13,14
 748.5 672 748.5 672 757.5 660 c 128,-1,15
 766.5 648 766.5 648 766.5 636 c 0,16,17
 766.5 628 766.5 628 754 617 c 128,-1,18
 741.5 606 741.5 606 718.5 582 c 0,19,20
 688.5 550 688.5 550 668.5 512 c 128,-1,21
 648.5 474 648.5 474 636.5 433.5 c 128,-1,22
 624.5 393 624.5 393 620 351.5 c 128,-1,23
 615.5 310 615.5 310 615.5 272 c 256,24,25
 615.5 234 615.5 234 621.5 192.5 c 128,-1,26
 627.5 151 627.5 151 641.5 113 c 128,-1,27
 655.5 75 655.5 75 678.5 43.5 c 128,-1,28
 701.5 12 701.5 12 735.5 -7 c 0,29,30
 752.5 -16 752.5 -16 761 -22.5 c 128,-1,31
 769.5 -29 769.5 -29 769.5 -43 c 0,32,33
 769.5 -56 769.5 -56 756.5 -66 c 128,-1,34
 743.5 -76 743.5 -76 726.5 -76 c 0,35,36
 715.5 -76 715.5 -76 706.5 -72 c 0,0,1
692.5 620 m 0,37,38
 697.5 625 697.5 625 703.5 630.5 c 128,-1,39
 709.5 636 709.5 636 702.5 636 c 0,40,41
 694.5 636 694.5 636 684 628.5 c 128,-1,42
 673.5 621 673.5 621 663.5 611 c 128,-1,43
 653.5 601 653.5 601 647 590.5 c 128,-1,44
 640.5 580 640.5 580 640.5 574 c 0,45,46
 640.5 569 640.5 569 644.5 569 c 0,47,48
 649.5 569 649.5 569 654 575.5 c 128,-1,49
 658.5 582 658.5 582 661.5 587 c 0,50,51
 665.5 594 665.5 594 672.5 601.5 c 128,-1,52
 679.5 609 679.5 609 692.5 620 c 0,37,38
634.5 547 m 0,53,54
 634.5 555 634.5 555 628.5 555 c 0,55,56
 616.5 555 616.5 555 616.5 547 c 0,57,58
 616.5 541 616.5 541 619.5 539.5 c 128,-1,59
 622.5 538 622.5 538 624.5 538 c 256,60,61
 626.5 538 626.5 538 630.5 539.5 c 128,-1,62
 634.5 541 634.5 541 634.5 547 c 0,53,54
EndSplineSet
EndChar

StartChar: parenright.knda
Encoding: 41 41 9
Width: 1284
Flags: W
LayerCount: 2
Fore
SplineSet
571 -93 m 0,0,1
 557 -93 557 -93 544.5 -84.5 c 128,-1,2
 532 -76 532 -76 532 -66 c 0,3,4
 532 -57 532 -57 542 -43 c 128,-1,5
 552 -29 552 -29 566.5 -8.5 c 128,-1,6
 581 12 581 12 598.5 41 c 128,-1,7
 616 70 616 70 630.5 108 c 128,-1,8
 645 146 645 146 655 195 c 128,-1,9
 665 244 665 244 665 305 c 0,10,11
 665 352 665 352 657.5 398.5 c 128,-1,12
 650 445 650 445 636 484 c 128,-1,13
 622 523 622 523 602.5 552 c 128,-1,14
 583 581 583 581 559 594 c 0,15,16
 547 601 547 601 533 610.5 c 128,-1,17
 519 620 519 620 519 638 c 0,18,19
 519 653 519 653 532 662.5 c 128,-1,20
 545 672 545 672 566 672 c 0,21,22
 603 672 603 672 639 646 c 128,-1,23
 675 620 675 620 703 572 c 128,-1,24
 731 524 731 524 748 455.5 c 128,-1,25
 765 387 765 387 765 302 c 0,26,27
 765 227 765 227 756.5 175 c 128,-1,28
 748 123 748 123 732.5 85 c 128,-1,29
 717 47 717 47 696 17 c 128,-1,30
 675 -13 675 -13 650 -44 c 0,31,32
 627 -73 627 -73 607.5 -83 c 128,-1,33
 588 -93 588 -93 571 -93 c 0,0,1
539 621 m 0,34,35
 543 621 543 621 546.5 628.5 c 128,-1,36
 550 636 550 636 550 644 c 0,37,38
 550 657 550 657 543 657 c 0,39,40
 539 657 539 657 535.5 649.5 c 128,-1,41
 532 642 532 642 532 634 c 0,42,43
 532 621 532 621 539 621 c 0,34,35
566 -60 m 256,44,45
 571 -50 571 -50 571.5 -40 c 128,-1,46
 572 -30 572 -30 568 -29 c 0,47,48
 566 -29 566 -29 562.5 -33 c 128,-1,49
 559 -37 559 -37 555.5 -43 c 128,-1,50
 552 -49 552 -49 549.5 -55 c 128,-1,51
 547 -61 547 -61 547 -64 c 0,52,53
 547 -72 547 -72 551 -73 c 0,54,55
 554 -74 554 -74 557.5 -72 c 128,-1,56
 561 -70 561 -70 566 -60 c 256,44,45
EndSplineSet
EndChar

StartChar: asterisk.knda
Encoding: 42 42 10
Width: 1284
Flags: W
LayerCount: 2
Fore
SplineSet
689.5 760 m 1,0,-1
 669.5 568 l 1,1,-1
 861.5 622 l 1,2,-1
 875.5 530 l 1,3,-1
 691.5 515 l 1,4,-1
 810.5 357 l 1,5,-1
 724.5 310 l 1,6,-1
 639.5 485 l 1,7,-1
 562.5 310 l 1,8,-1
 473.5 357 l 1,9,-1
 590.5 515 l 1,10,-1
 408.5 530 l 1,11,-1
 422.5 622 l 1,12,-1
 612.5 568 l 1,13,-1
 591.5 760 l 1,14,-1
 689.5 760 l 1,0,-1
EndSplineSet
EndChar

StartChar: plus.knda
Encoding: 43 43 11
Width: 1284
Flags: W
LayerCount: 2
Fore
SplineSet
678 388 m 1,0,-1
 877 388 l 1,1,-1
 877 317 l 1,2,-1
 678 317 l 1,3,-1
 678 111 l 1,4,-1
 606 111 l 1,5,-1
 606 317 l 1,6,-1
 407 317 l 1,7,-1
 407 388 l 1,8,-1
 606 388 l 1,9,-1
 606 595 l 1,10,-1
 678 595 l 1,11,-1
 678 388 l 1,0,-1
EndSplineSet
EndChar

StartChar: comma.knda
Encoding: 44 44 12
Width: 1284
Flags: W
LayerCount: 2
Fore
SplineSet
717.5 105 m 1,0,1
 708.5 70 708.5 70 694.5 29 c 128,-1,2
 680.5 -12 680.5 -12 664 -52.5 c 128,-1,3
 647.5 -93 647.5 -93 631.5 -129 c 1,4,-1
 566.5 -129 l 1,5,6
 576.5 -91 576.5 -91 586 -47.5 c 128,-1,7
 595.5 -4 595.5 -4 603.5 38.5 c 128,-1,8
 611.5 81 611.5 81 616.5 116 c 1,9,-1
 710.5 116 l 1,10,-1
 717.5 105 l 1,0,1
EndSplineSet
EndChar

StartChar: hyphen.knda
Encoding: 45 45 13
Width: 1284
Flags: W
LayerCount: 2
Fore
SplineSet
521 229 m 1,0,-1
 521 307 l 1,1,-1
 763 307 l 1,2,-1
 763 229 l 1,3,-1
 521 229 l 1,0,-1
EndSplineSet
EndChar

StartChar: period.knda
Encoding: 46 46 14
Width: 1284
Flags: W
LayerCount: 2
Fore
SplineSet
636.5 -8 m 0,0,1
 596.5 -8 596.5 -8 568 20 c 128,-1,2
 539.5 48 539.5 48 539.5 92 c 0,3,4
 539.5 116 539.5 116 548 137.5 c 128,-1,5
 556.5 159 556.5 159 571.5 174.5 c 128,-1,6
 586.5 190 586.5 190 607.5 199.5 c 128,-1,7
 628.5 209 628.5 209 653.5 209 c 0,8,9
 673.5 209 673.5 209 690.5 200.5 c 128,-1,10
 707.5 192 707.5 192 719.5 177 c 128,-1,11
 731.5 162 731.5 162 738 143 c 128,-1,12
 744.5 124 744.5 124 744.5 103 c 0,13,14
 744.5 76 744.5 76 736 55.5 c 128,-1,15
 727.5 35 727.5 35 712.5 21 c 128,-1,16
 697.5 7 697.5 7 678 -0.5 c 128,-1,17
 658.5 -8 658.5 -8 636.5 -8 c 0,0,1
599.5 165 m 0,18,19
 606.5 172 606.5 172 608 177 c 128,-1,20
 609.5 182 609.5 182 607.5 182 c 0,21,22
 599.5 182 599.5 182 590.5 174.5 c 128,-1,23
 581.5 167 581.5 167 574 156.5 c 128,-1,24
 566.5 146 566.5 146 561.5 134 c 128,-1,25
 556.5 122 556.5 122 556.5 112 c 0,26,27
 556.5 110 556.5 110 558 104 c 128,-1,28
 559.5 98 559.5 98 562.5 98 c 0,29,30
 566.5 98 566.5 98 572.5 120 c 0,31,32
 575.5 134 575.5 134 583.5 145.5 c 128,-1,33
 591.5 157 591.5 157 599.5 165 c 0,18,19
640.5 49 m 0,34,35
 652.5 49 652.5 49 669 63 c 128,-1,36
 685.5 77 685.5 77 685.5 103 c 0,37,38
 685.5 123 685.5 123 675 136.5 c 128,-1,39
 664.5 150 664.5 150 647.5 150 c 256,40,41
 630.5 150 630.5 150 616.5 136.5 c 128,-1,42
 602.5 123 602.5 123 602.5 99 c 256,43,44
 602.5 75 602.5 75 613.5 62 c 128,-1,45
 624.5 49 624.5 49 640.5 49 c 0,34,35
EndSplineSet
EndChar

StartChar: slash.knda
Encoding: 47 47 15
Width: 1284
Flags: W
LayerCount: 2
Fore
SplineSet
528.5 -77 m 0,0,1
 524.5 -77 524.5 -77 513 -75 c 128,-1,2
 501.5 -73 501.5 -73 489.5 -68.5 c 128,-1,3
 477.5 -64 477.5 -64 468.5 -57 c 128,-1,4
 459.5 -50 459.5 -50 459.5 -41 c 0,5,6
 459.5 -38 459.5 -38 470 -9.5 c 128,-1,7
 480.5 19 480.5 19 497.5 64 c 128,-1,8
 514.5 109 514.5 109 537 166 c 128,-1,9
 559.5 223 559.5 223 583.5 283 c 128,-1,10
 607.5 343 607.5 343 631.5 402 c 128,-1,11
 655.5 461 655.5 461 675.5 509.5 c 128,-1,12
 695.5 558 695.5 558 710.5 592 c 128,-1,13
 725.5 626 725.5 626 731.5 636 c 0,14,15
 738.5 647 738.5 647 750 656.5 c 128,-1,16
 761.5 666 761.5 666 775.5 666 c 0,17,18
 782.5 666 782.5 666 791 663.5 c 128,-1,19
 799.5 661 799.5 661 807 656.5 c 128,-1,20
 814.5 652 814.5 652 819.5 646 c 128,-1,21
 824.5 640 824.5 640 824.5 633 c 0,22,23
 824.5 625 824.5 625 816 599.5 c 128,-1,24
 807.5 574 807.5 574 796 544.5 c 128,-1,25
 784.5 515 784.5 515 773 487.5 c 128,-1,26
 761.5 460 761.5 460 755.5 447 c 0,27,28
 751.5 438 751.5 438 740.5 410.5 c 128,-1,29
 729.5 383 729.5 383 714.5 344.5 c 128,-1,30
 699.5 306 699.5 306 681.5 259.5 c 128,-1,31
 663.5 213 663.5 213 644.5 166.5 c 128,-1,32
 625.5 120 625.5 120 607 76 c 128,-1,33
 588.5 32 588.5 32 573 -2 c 128,-1,34
 557.5 -36 557.5 -36 545.5 -56.5 c 128,-1,35
 533.5 -77 533.5 -77 528.5 -77 c 0,0,1
503.5 -37 m 0,36,37
 507.5 -25 507.5 -25 515.5 -7 c 128,-1,38
 523.5 11 523.5 11 530.5 27.5 c 128,-1,39
 537.5 44 537.5 44 541 56.5 c 128,-1,40
 544.5 69 544.5 69 539.5 70 c 0,41,42
 537.5 71 537.5 71 532.5 71 c 128,-1,43
 527.5 71 527.5 71 524.5 66 c 0,44,45
 522.5 62 522.5 62 516 48.5 c 128,-1,46
 509.5 35 509.5 35 503 19.5 c 128,-1,47
 496.5 4 496.5 4 491.5 -10.5 c 128,-1,48
 486.5 -25 486.5 -25 486.5 -31 c 0,49,50
 486.5 -38 486.5 -38 494 -40 c 128,-1,51
 501.5 -42 501.5 -42 503.5 -37 c 0,36,37
EndSplineSet
EndChar

StartChar: zero.knda
Encoding: 48 48 16
Width: 1284
Flags: W
LayerCount: 2
Fore
SplineSet
647 -17 m 0,0,1
 595 -17 595 -17 560.5 11.5 c 128,-1,2
 526 40 526 40 505 86 c 128,-1,3
 484 132 484 132 475.5 190 c 128,-1,4
 467 248 467 248 467 307 c 256,5,6
 467 366 467 366 477 422.5 c 128,-1,7
 487 479 487 479 509.5 523 c 128,-1,8
 532 567 532 567 568 594 c 128,-1,9
 604 621 604 621 655 621 c 0,10,11
 689 621 689 621 714 604 c 128,-1,12
 739 587 739 587 757 560 c 128,-1,13
 775 533 775 533 787 499 c 128,-1,14
 799 465 799 465 805.5 430 c 128,-1,15
 812 395 812 395 814.5 362.5 c 128,-1,16
 817 330 817 330 817 307 c 0,17,18
 817 258 817 258 808 201 c 128,-1,19
 799 144 799 144 779 95.5 c 128,-1,20
 759 47 759 47 726.5 15 c 128,-1,21
 694 -17 694 -17 647 -17 c 0,0,1
540 512 m 0,22,23
 549 531 549 531 554 540.5 c 128,-1,24
 559 550 559 550 559 553 c 0,25,26
 559 555 559 555 555 555.5 c 128,-1,27
 551 556 551 556 546 549 c 0,28,29
 542 543 542 543 535 530.5 c 128,-1,30
 528 518 528 518 521 504 c 128,-1,31
 514 490 514 490 509.5 476.5 c 128,-1,32
 505 463 505 463 505 456 c 256,33,34
 505 449 505 449 510 451 c 128,-1,35
 515 453 515 453 518 460 c 0,36,37
 521 468 521 468 526 481 c 128,-1,38
 531 494 531 494 540 512 c 0,22,23
648 59 m 0,39,40
 679 59 679 59 697 85 c 128,-1,41
 715 111 715 111 724.5 150 c 128,-1,42
 734 189 734 189 736.5 234 c 128,-1,43
 739 279 739 279 739 316 c 0,44,45
 739 339 739 339 736 377 c 128,-1,46
 733 415 733 415 724 451.5 c 128,-1,47
 715 488 715 488 698.5 514.5 c 128,-1,48
 682 541 682 541 655 541 c 0,49,50
 633 541 633 541 617 514 c 128,-1,51
 601 487 601 487 590.5 449.5 c 128,-1,52
 580 412 580 412 575 371 c 128,-1,53
 570 330 570 330 570 301 c 0,54,55
 570 286 570 286 570 262.5 c 128,-1,56
 570 239 570 239 572 212 c 128,-1,57
 574 185 574 185 578.5 158 c 128,-1,58
 583 131 583 131 591.5 109 c 128,-1,59
 600 87 600 87 614 73 c 128,-1,60
 628 59 628 59 648 59 c 0,39,40
EndSplineSet
EndChar

StartChar: one.knda
Encoding: 49 49 17
Width: 1284
Flags: W
LayerCount: 2
Fore
SplineSet
691.5 0 m 0,0,1
 646.5 0 646.5 0 646.5 47 c 2,2,-1
 646.5 450 l 2,3,4
 646.5 459 646.5 459 646 466 c 128,-1,5
 645.5 473 645.5 473 643.5 473 c 0,6,7
 640.5 473 640.5 473 634.5 465.5 c 128,-1,8
 628.5 458 628.5 458 621 448.5 c 128,-1,9
 613.5 439 613.5 439 605 429.5 c 128,-1,10
 596.5 420 596.5 420 588.5 416 c 0,11,12
 579.5 411 579.5 411 569.5 411 c 0,13,14
 555.5 411 555.5 411 546.5 421 c 128,-1,15
 537.5 431 537.5 431 537.5 445 c 0,16,17
 537.5 450 537.5 450 547 463 c 128,-1,18
 556.5 476 556.5 476 563.5 486 c 0,19,20
 572.5 499 572.5 499 590.5 521 c 128,-1,21
 608.5 543 608.5 543 629 564 c 128,-1,22
 649.5 585 649.5 585 668.5 600.5 c 128,-1,23
 687.5 616 687.5 616 699.5 616 c 0,24,25
 705.5 616 705.5 616 713.5 615 c 128,-1,26
 721.5 614 721.5 614 729 611 c 128,-1,27
 736.5 608 736.5 608 741.5 602.5 c 128,-1,28
 746.5 597 746.5 597 746.5 587 c 2,29,-1
 746.5 48 l 2,30,31
 746.5 30 746.5 30 730 15 c 128,-1,32
 713.5 0 713.5 0 691.5 0 c 0,0,1
690.5 592 m 0,33,34
 695.5 600 695.5 600 698.5 602.5 c 128,-1,35
 701.5 605 701.5 605 698.5 606 c 0,36,37
 696.5 606 696.5 606 689.5 603.5 c 128,-1,38
 682.5 601 682.5 601 676.5 595 c 0,39,40
 671.5 590 671.5 590 663.5 583 c 128,-1,41
 655.5 576 655.5 576 655.5 572 c 0,42,43
 655.5 569 655.5 569 659.5 568 c 0,44,45
 666.5 567 666.5 567 676.5 577 c 128,-1,46
 686.5 587 686.5 587 690.5 592 c 0,33,34
679.5 45 m 0,47,48
 679.5 53 679.5 53 677 58 c 128,-1,49
 674.5 63 674.5 63 674.5 74 c 0,50,51
 674.5 79 674.5 79 674 83 c 128,-1,52
 673.5 87 673.5 87 668.5 87 c 0,53,54
 664.5 87 664.5 87 662.5 77.5 c 128,-1,55
 660.5 68 660.5 68 660.5 57 c 128,-1,56
 660.5 46 660.5 46 662.5 36.5 c 128,-1,57
 664.5 27 664.5 27 668.5 27 c 0,58,59
 679.5 27 679.5 27 679.5 45 c 0,47,48
EndSplineSet
EndChar

StartChar: two.knda
Encoding: 50 50 18
Width: 1284
Flags: W
LayerCount: 2
Fore
SplineSet
511.2109375 0 m 2,0,1
 502.2109375 0 502.2109375 0 494.7109375 13 c 128,-1,2
 487.2109375 26 487.2109375 26 489.2109375 38 c 256,3,4
 491.2109375 50 491.2109375 50 505.2109375 68 c 128,-1,5
 519.2109375 86 519.2109375 86 535.2109375 106 c 0,6,7
 571.2109375 151 571.2109375 151 600.2109375 198.5 c 128,-1,8
 629.2109375 246 629.2109375 246 649.7109375 292.5 c 128,-1,9
 670.2109375 339 670.2109375 339 681.2109375 383 c 128,-1,10
 692.2109375 427 692.2109375 427 692.2109375 465 c 0,11,12
 692.2109375 506 692.2109375 506 674.7109375 520 c 128,-1,13
 657.2109375 534 657.2109375 534 637.2109375 534 c 256,14,15
 617.2109375 534 617.2109375 534 602.2109375 517.5 c 128,-1,16
 587.2109375 501 587.2109375 501 587.2109375 464 c 0,17,18
 587.2109375 442 587.2109375 442 592.2109375 430.5 c 128,-1,19
 597.2109375 419 597.2109375 419 597.2109375 403 c 0,20,21
 597.2109375 389 597.2109375 389 581.7109375 383 c 128,-1,22
 566.2109375 377 566.2109375 377 555.2109375 377 c 0,23,24
 529.2109375 377 529.2109375 377 511.7109375 403.5 c 128,-1,25
 494.2109375 430 494.2109375 430 494.2109375 470 c 0,26,27
 494.2109375 502 494.2109375 502 504.7109375 529.5 c 128,-1,28
 515.2109375 557 515.2109375 557 534.7109375 577.5 c 128,-1,29
 554.2109375 598 554.2109375 598 580.7109375 610 c 128,-1,30
 607.2109375 622 607.2109375 622 638.2109375 622 c 0,31,32
 668.2109375 622 668.2109375 622 696.7109375 610.5 c 128,-1,33
 725.2109375 599 725.2109375 599 747.2109375 577.5 c 128,-1,34
 769.2109375 556 769.2109375 556 782.2109375 525.5 c 128,-1,35
 795.2109375 495 795.2109375 495 795.2109375 457 c 0,36,37
 795.2109375 410 795.2109375 410 783.2109375 364 c 128,-1,38
 771.2109375 318 771.2109375 318 752.7109375 277 c 128,-1,39
 734.2109375 236 734.2109375 236 713.2109375 201 c 128,-1,40
 692.2109375 166 692.2109375 166 673.7109375 140 c 128,-1,41
 655.2109375 114 655.2109375 114 643.2109375 98 c 128,-1,42
 631.2109375 82 631.2109375 82 631.2109375 79 c 1,43,44
 634.2109375 79 634.2109375 79 639.2109375 79 c 2,45,-1
 663.2109375 79 l 1,46,-1
 750.2109375 82 l 2,47,48
 768.2109375 83 768.2109375 83 777.2109375 79 c 128,-1,49
 786.2109375 75 786.2109375 75 790.2109375 67.5 c 128,-1,50
 794.2109375 60 794.2109375 60 794.2109375 50 c 128,-1,51
 794.2109375 40 794.2109375 40 794.2109375 29 c 0,52,53
 794.2109375 11 794.2109375 11 783.7109375 5.5 c 128,-1,54
 773.2109375 0 773.2109375 0 741.2109375 0 c 2,55,-1
 511.2109375 0 l 2,0,1
527.2109375 488 m 0,56,57
 528.2109375 500 528.2109375 500 526.2109375 507 c 128,-1,58
 524.2109375 514 524.2109375 514 521.2109375 513 c 0,59,60
 517.2109375 513 517.2109375 513 514.7109375 506.5 c 128,-1,61
 512.2109375 500 512.2109375 500 511.7109375 491.5 c 128,-1,62
 511.2109375 483 511.2109375 483 511.2109375 475.5 c 128,-1,63
 511.2109375 468 511.2109375 468 511.2109375 465 c 0,64,65
 513.2109375 452 513.2109375 452 516.2109375 450 c 0,66,67
 521.2109375 445 521.2109375 445 523.2109375 452 c 128,-1,68
 525.2109375 459 525.2109375 459 527.2109375 488 c 0,56,57
529.2109375 424 m 0,69,70
 529.2109375 431 529.2109375 431 522.2109375 431 c 256,71,72
 515.2109375 431 515.2109375 431 515.2109375 423 c 0,73,74
 515.2109375 421 515.2109375 421 517.2109375 418 c 128,-1,75
 519.2109375 415 519.2109375 415 521.2109375 415 c 0,76,77
 525.2109375 415 525.2109375 415 527.2109375 418 c 128,-1,78
 529.2109375 421 529.2109375 421 529.2109375 424 c 0,69,70
528.2109375 50 m 0,79,80
 536.2109375 69 536.2109375 69 533.2109375 69 c 0,81,82
 526.2109375 69 526.2109375 69 518.7109375 60 c 128,-1,83
 511.2109375 51 511.2109375 51 511.2109375 40 c 0,84,85
 511.2109375 32 511.2109375 32 515.2109375 32 c 0,86,87
 520.2109375 32 520.2109375 32 528.2109375 50 c 0,79,80
EndSplineSet
EndChar

StartChar: three.knda
Encoding: 51 51 19
Width: 1284
Flags: W
LayerCount: 2
Fore
SplineSet
694 486 m 0,0,1
 694 515 694 515 680 527.5 c 128,-1,2
 666 540 666 540 638 540 c 0,3,4
 605 540 605 540 589 514.5 c 128,-1,5
 573 489 573 489 573 430 c 0,6,7
 573 416 573 416 562.5 410 c 128,-1,8
 552 404 552 404 541 404 c 0,9,10
 480 404 480 404 480 493 c 0,11,12
 480 520 480 520 493.5 543.5 c 128,-1,13
 507 567 507 567 528.5 584.5 c 128,-1,14
 550 602 550 602 578 612 c 128,-1,15
 606 622 606 622 634 622 c 0,16,17
 678 622 678 622 709.5 611 c 128,-1,18
 741 600 741 600 761 581 c 128,-1,19
 781 562 781 562 791 537.5 c 128,-1,20
 801 513 801 513 801 487 c 0,21,22
 801 447 801 447 783.5 418 c 128,-1,23
 766 389 766 389 744.5 368.5 c 128,-1,24
 723 348 723 348 705.5 336 c 128,-1,25
 688 324 688 324 688 318 c 256,26,27
 688 312 688 312 706 305.5 c 128,-1,28
 724 299 724 299 746 284 c 128,-1,29
 768 269 768 269 786 241.5 c 128,-1,30
 804 214 804 214 804 167 c 0,31,32
 804 121 804 121 786.5 88.5 c 128,-1,33
 769 56 769 56 740.5 35 c 128,-1,34
 712 14 712 14 676 4 c 128,-1,35
 640 -6 640 -6 603 -6 c 0,36,37
 587 -6 587 -6 567 -1.5 c 128,-1,38
 547 3 547 3 529.5 12.5 c 128,-1,39
 512 22 512 22 500 36.5 c 128,-1,40
 488 51 488 51 488 71 c 0,41,42
 488 86 488 86 494 95.5 c 128,-1,43
 500 105 500 105 511 105 c 0,44,45
 524 105 524 105 534.5 100.5 c 128,-1,46
 545 96 545 96 555.5 90.5 c 128,-1,47
 566 85 566 85 578 80.5 c 128,-1,48
 590 76 590 76 605 76 c 0,49,50
 632 76 632 76 650 84 c 128,-1,51
 668 92 668 92 678.5 105 c 128,-1,52
 689 118 689 118 693 134 c 128,-1,53
 697 150 697 150 697 166 c 0,54,55
 697 198 697 198 679 220 c 128,-1,56
 661 242 661 242 632 242 c 0,57,58
 590 242 590 242 573 257 c 128,-1,59
 556 272 556 272 556 292 c 0,60,61
 556 311 556 311 577.5 334.5 c 128,-1,62
 599 358 599 358 625 383 c 128,-1,63
 651 408 651 408 672.5 434.5 c 128,-1,64
 694 461 694 461 694 486 c 0,0,1
521 515 m 0,65,66
 522 527 522 527 520 534 c 128,-1,67
 518 541 518 541 515 540 c 0,68,69
 511 540 511 540 507.5 534 c 128,-1,70
 504 528 504 528 501.5 520 c 128,-1,71
 499 512 499 512 497.5 504 c 128,-1,72
 496 496 496 496 497 492 c 0,73,74
 499 479 499 479 502 477 c 0,75,76
 507 472 507 472 513 479 c 128,-1,77
 519 486 519 486 521 515 c 0,65,66
515 451 m 0,78,79
 515 458 515 458 508 458 c 256,80,81
 501 458 501 458 501 450 c 0,82,83
 501 448 501 448 503 445 c 128,-1,84
 505 442 505 442 507 442 c 0,85,86
 511 442 511 442 513 445 c 128,-1,87
 515 448 515 448 515 451 c 0,78,79
589 291 m 0,88,89
 591 296 591 296 595 304 c 128,-1,90
 599 312 599 312 604 319 c 0,91,92
 608 325 608 325 609 330 c 128,-1,93
 610 335 610 335 608 335 c 0,94,95
 604 335 604 335 598 329 c 128,-1,96
 592 323 592 323 586.5 315 c 128,-1,97
 581 307 581 307 577 298.5 c 128,-1,98
 573 290 573 290 573 284 c 0,99,100
 573 275 573 275 578 275 c 256,101,102
 583 275 583 275 589 291 c 0,88,89
519 80 m 0,103,104
 519 101 519 101 510 92 c 0,105,106
 505 87 505 87 503 78 c 128,-1,107
 501 69 501 69 502 62 c 0,108,109
 503 58 503 58 505 56.5 c 128,-1,110
 507 55 507 55 509 55 c 256,111,112
 511 55 511 55 515 63.5 c 128,-1,113
 519 72 519 72 519 80 c 0,103,104
EndSplineSet
EndChar

StartChar: four.knda
Encoding: 52 52 20
Width: 1284
Flags: W
LayerCount: 2
Fore
SplineSet
749.5 0 m 0,0,1
 725.5 0 725.5 0 717 19.5 c 128,-1,2
 708.5 39 708.5 39 708.5 62 c 2,3,-1
 708.5 130 l 2,4,5
 708.5 142 708.5 142 695.5 142 c 2,6,-1
 514.5 142 l 2,7,8
 492.5 142 492.5 142 482 152 c 128,-1,9
 471.5 162 471.5 162 471.5 173 c 0,10,11
 471.5 178 471.5 178 480 209.5 c 128,-1,12
 488.5 241 488.5 241 501 286 c 128,-1,13
 513.5 331 513.5 331 528.5 382 c 128,-1,14
 543.5 433 543.5 433 557 478 c 128,-1,15
 570.5 523 570.5 523 580.5 555 c 128,-1,16
 590.5 587 590.5 587 593.5 592 c 0,17,18
 601.5 607 601.5 607 611.5 610.5 c 128,-1,19
 621.5 614 621.5 614 631.5 614 c 0,20,21
 636.5 614 636.5 614 645.5 612 c 128,-1,22
 654.5 610 654.5 610 663 606.5 c 128,-1,23
 671.5 603 671.5 603 678 598 c 128,-1,24
 684.5 593 684.5 593 684.5 587 c 256,25,26
 684.5 581 684.5 581 679.5 558.5 c 128,-1,27
 674.5 536 674.5 536 666.5 503.5 c 128,-1,28
 658.5 471 658.5 471 648.5 433 c 128,-1,29
 638.5 395 638.5 395 628.5 358.5 c 128,-1,30
 618.5 322 618.5 322 609.5 291.5 c 128,-1,31
 600.5 261 600.5 261 594.5 243 c 0,32,33
 592.5 238 592.5 238 591.5 235 c 128,-1,34
 590.5 232 590.5 232 590.5 229 c 0,35,36
 590.5 224 590.5 224 598.5 224 c 2,37,-1
 695.5 224 l 2,38,39
 703.5 224 703.5 224 706 226.5 c 128,-1,40
 708.5 229 708.5 229 708.5 235 c 2,41,-1
 708.5 536 l 2,42,43
 708.5 561 708.5 561 713 576.5 c 128,-1,44
 717.5 592 717.5 592 724.5 601 c 128,-1,45
 731.5 610 731.5 610 740.5 613 c 128,-1,46
 749.5 616 749.5 616 759.5 616 c 0,47,48
 786.5 616 786.5 616 799.5 597 c 128,-1,49
 812.5 578 812.5 578 812.5 550 c 2,50,-1
 812.5 70 l 2,51,52
 812.5 49 812.5 49 807.5 35 c 128,-1,53
 802.5 21 802.5 21 793.5 13.5 c 128,-1,54
 784.5 6 784.5 6 773 3 c 128,-1,55
 761.5 0 761.5 0 749.5 0 c 0,0,1
728.5 541 m 256,56,57
 732.5 541 732.5 541 736 547 c 128,-1,58
 739.5 553 739.5 553 742 561 c 128,-1,59
 744.5 569 744.5 569 746 577.5 c 128,-1,60
 747.5 586 747.5 586 747.5 591 c 0,61,62
 747.5 598 747.5 598 740.5 598 c 0,63,64
 737.5 598 737.5 598 734.5 593.5 c 128,-1,65
 731.5 589 731.5 589 729 582.5 c 128,-1,66
 726.5 576 726.5 576 724.5 569.5 c 128,-1,67
 722.5 563 722.5 563 722.5 558 c 0,68,69
 722.5 552 722.5 552 723.5 546.5 c 128,-1,70
 724.5 541 724.5 541 728.5 541 c 256,56,57
515.5 215 m 0,71,72
 519.5 228 519.5 228 522 235 c 128,-1,73
 524.5 242 524.5 242 523.5 251 c 0,74,75
 523.5 259 523.5 259 518.5 259 c 0,76,77
 515.5 259 515.5 259 512 251.5 c 128,-1,78
 508.5 244 508.5 244 505 234 c 128,-1,79
 501.5 224 501.5 224 499.5 214 c 128,-1,80
 497.5 204 497.5 204 497.5 199 c 0,81,82
 497.5 188 497.5 188 502.5 188 c 0,83,84
 509.5 189 509.5 189 515.5 215 c 0,71,72
505.5 169 m 0,85,86
 505.5 179 505.5 179 497.5 179 c 256,87,88
 489.5 179 489.5 179 489.5 169 c 0,89,90
 489.5 167 489.5 167 490.5 166 c 0,91,92
 494.5 162 494.5 162 497.5 162 c 0,93,94
 499.5 162 499.5 162 502.5 164 c 128,-1,95
 505.5 166 505.5 166 505.5 169 c 0,85,86
741.5 29 m 0,96,97
 738.5 35 738.5 35 735.5 37.5 c 128,-1,98
 732.5 40 732.5 40 732.5 45 c 0,99,100
 732.5 49 732.5 49 731.5 53 c 0,101,102
 731.5 61 731.5 61 726.5 61 c 0,103,104
 720.5 61 720.5 61 720.5 50 c 0,105,106
 720.5 42 720.5 42 725 28.5 c 128,-1,107
 729.5 15 729.5 15 735.5 15 c 0,108,109
 738.5 15 738.5 15 741.5 19.5 c 128,-1,110
 744.5 24 744.5 24 741.5 29 c 0,96,97
EndSplineSet
EndChar

StartChar: five.knda
Encoding: 53 53 21
Width: 1284
Flags: W
LayerCount: 2
Fore
SplineSet
542 -8 m 0,0,1
 520 -8 520 -8 507.5 -1.5 c 128,-1,2
 495 5 495 5 489 14 c 128,-1,3
 483 23 483 23 481.5 32.5 c 128,-1,4
 480 42 480 42 480 48 c 0,5,6
 480 62 480 62 485.5 70 c 128,-1,7
 491 78 491 78 500 81.5 c 128,-1,8
 509 85 509 85 520 85.5 c 128,-1,9
 531 86 531 86 542 86 c 0,10,11
 629 86 629 86 665.5 112.5 c 128,-1,12
 702 139 702 139 702 196 c 0,13,14
 702 251 702 251 676 277 c 128,-1,15
 650 303 650 303 601 303 c 0,16,17
 582 303 582 303 570 300 c 128,-1,18
 558 297 558 297 549 293.5 c 128,-1,19
 540 290 540 290 532 287 c 128,-1,20
 524 284 524 284 514 284 c 256,21,22
 504 284 504 284 498 293 c 128,-1,23
 492 302 492 302 489 314.5 c 128,-1,24
 486 327 486 327 485.5 341.5 c 128,-1,25
 485 356 485 356 485 366 c 2,26,-1
 485 568 l 2,27,28
 485 595 485 595 498.5 605.5 c 128,-1,29
 512 616 512 616 531 616 c 2,30,-1
 764 616 l 2,31,32
 772 616 772 616 779 608.5 c 128,-1,33
 786 601 786 601 786 587 c 0,34,35
 786 569 786 569 778.5 552.5 c 128,-1,36
 771 536 771 536 762 536 c 2,37,-1
 594 535 l 2,38,39
 589 535 589 535 587 530.5 c 128,-1,40
 585 526 585 526 585 521 c 2,41,-1
 585 399 l 2,42,43
 585 383 585 383 588 381 c 128,-1,44
 591 379 591 379 598 379 c 2,45,-1
 622 380 l 2,46,47
 662 382 662 382 695.5 371.5 c 128,-1,48
 729 361 729 361 753 338 c 128,-1,49
 777 315 777 315 790.5 280 c 128,-1,50
 804 245 804 245 804 197 c 0,51,52
 804 158 804 158 788 121.5 c 128,-1,53
 772 85 772 85 739.5 56 c 128,-1,54
 707 27 707 27 658 9.5 c 128,-1,55
 609 -8 609 -8 542 -8 c 0,0,1
513 403 m 0,56,57
 513 422 513 422 512 432 c 128,-1,58
 511 442 511 442 505 436 c 0,59,60
 502 433 502 433 500 421 c 128,-1,61
 498 409 498 409 498 395 c 128,-1,62
 498 381 498 381 500 369 c 128,-1,63
 502 357 502 357 505 354 c 256,64,65
 508 351 508 351 509 351 c 0,66,67
 513 351 513 351 513 403 c 0,56,57
521 326 m 0,68,69
 521 336 521 336 516 336 c 0,70,71
 505 336 505 336 505 322 c 0,72,73
 505 315 505 315 513 315 c 0,74,75
 518 315 518 315 519.5 319.5 c 128,-1,76
 521 324 521 324 521 326 c 0,68,69
512 48 m 0,77,78
 511 50 511 50 511.5 54 c 128,-1,79
 512 58 512 58 512.5 61.5 c 128,-1,80
 513 65 513 65 512 67.5 c 128,-1,81
 511 70 511 70 507 70 c 0,82,83
 502 70 502 70 500 61.5 c 128,-1,84
 498 53 498 53 499 42 c 256,85,86
 500 31 500 31 503 21.5 c 128,-1,87
 506 12 506 12 512 12 c 0,88,89
 514 12 514 12 515.5 23 c 128,-1,90
 517 34 517 34 512 48 c 0,77,78
EndSplineSet
EndChar

StartChar: six.knda
Encoding: 54 54 22
Width: 1284
Flags: W
LayerCount: 2
Fore
SplineSet
643.5 -11 m 0,0,1
 591.5 -11 591.5 -11 555 8.5 c 128,-1,2
 518.5 28 518.5 28 495.5 61 c 128,-1,3
 472.5 94 472.5 94 462 136.5 c 128,-1,4
 451.5 179 451.5 179 451.5 225 c 0,5,6
 451.5 276 451.5 276 459.5 328.5 c 128,-1,7
 467.5 381 467.5 381 484.5 429 c 128,-1,8
 501.5 477 501.5 477 529 518 c 128,-1,9
 556.5 559 556.5 559 595.5 587 c 0,10,11
 623.5 607 623.5 607 651.5 613.5 c 128,-1,12
 679.5 620 679.5 620 701.5 620 c 0,13,14
 706.5 620 706.5 620 714 618.5 c 128,-1,15
 721.5 617 721.5 617 728.5 614 c 128,-1,16
 735.5 611 735.5 611 741 606 c 128,-1,17
 746.5 601 746.5 601 746.5 593 c 0,18,19
 746.5 579 746.5 579 741.5 567.5 c 128,-1,20
 736.5 556 736.5 556 709.5 547 c 0,21,22
 683.5 538 683.5 538 662.5 521 c 128,-1,23
 641.5 504 641.5 504 625 482.5 c 128,-1,24
 608.5 461 608.5 461 596.5 435.5 c 128,-1,25
 584.5 410 584.5 410 575.5 385 c 0,26,27
 570.5 373 570.5 373 566.5 354.5 c 128,-1,28
 562.5 336 562.5 336 562.5 325 c 0,29,30
 562.5 315 562.5 315 566.5 315 c 0,31,32
 569.5 315 569.5 315 576.5 324.5 c 128,-1,33
 583.5 334 583.5 334 596.5 345 c 128,-1,34
 609.5 356 609.5 356 628.5 365.5 c 128,-1,35
 647.5 375 647.5 375 674.5 375 c 0,36,37
 751.5 375 751.5 375 792 323 c 128,-1,38
 832.5 271 832.5 271 832.5 187 c 0,39,40
 832.5 146 832.5 146 817.5 110 c 128,-1,41
 802.5 74 802.5 74 776.5 47 c 128,-1,42
 750.5 20 750.5 20 716 4.5 c 128,-1,43
 681.5 -11 681.5 -11 643.5 -11 c 0,0,1
638.5 80 m 0,44,45
 680.5 80 680.5 80 706 106.5 c 128,-1,46
 731.5 133 731.5 133 731.5 190 c 0,47,48
 731.5 207 731.5 207 728.5 224 c 128,-1,49
 725.5 241 725.5 241 717.5 255 c 128,-1,50
 709.5 269 709.5 269 696 277.5 c 128,-1,51
 682.5 286 682.5 286 661.5 286 c 0,52,53
 642.5 286 642.5 286 623 276 c 128,-1,54
 603.5 266 603.5 266 588.5 250.5 c 128,-1,55
 573.5 235 573.5 235 564 215.5 c 128,-1,56
 554.5 196 554.5 196 554.5 178 c 0,57,58
 554.5 137 554.5 137 572 108.5 c 128,-1,59
 589.5 80 589.5 80 638.5 80 c 0,44,45
512.5 107 m 0,60,61
 509.5 118 509.5 118 505.5 127.5 c 128,-1,62
 501.5 137 501.5 137 498.5 148 c 0,63,64
 496.5 154 496.5 154 495 159 c 128,-1,65
 493.5 164 493.5 164 489.5 163 c 0,66,67
 486.5 163 486.5 163 484.5 155 c 0,68,69
 483.5 148 483.5 148 487 135 c 128,-1,70
 490.5 122 490.5 122 495.5 110 c 128,-1,71
 500.5 98 500.5 98 506 89.5 c 128,-1,72
 511.5 81 511.5 81 513.5 81 c 0,73,74
 518.5 81 518.5 81 518.5 86 c 0,75,76
 518.5 90 518.5 90 516.5 95 c 128,-1,77
 514.5 100 514.5 100 512.5 107 c 0,60,61
EndSplineSet
EndChar

StartChar: seven.knda
Encoding: 55 55 23
Width: 1284
Flags: W
LayerCount: 2
Fore
SplineSet
563.5 -2 m 0,0,1
 549.5 -2 549.5 -2 540 6.5 c 128,-1,2
 530.5 15 530.5 15 530.5 25 c 0,3,4
 530.5 34 530.5 34 540.5 70 c 128,-1,5
 550.5 106 550.5 106 565.5 156 c 128,-1,6
 580.5 206 580.5 206 598.5 263 c 128,-1,7
 616.5 320 616.5 320 633 371 c 128,-1,8
 649.5 422 649.5 422 662.5 461 c 128,-1,9
 675.5 500 675.5 500 680.5 514 c 0,10,11
 685.5 529 685.5 529 673.5 529 c 2,12,-1
 543.5 529 l 2,13,14
 516.5 529 516.5 529 501.5 537.5 c 128,-1,15
 486.5 546 486.5 546 486.5 573 c 256,16,17
 486.5 600 486.5 600 503 608 c 128,-1,18
 519.5 616 519.5 616 545.5 616 c 2,19,-1
 756.5 616 l 2,20,21
 773.5 616 773.5 616 785.5 605.5 c 128,-1,22
 797.5 595 797.5 595 797.5 581 c 0,23,24
 797.5 571 797.5 571 786.5 529 c 128,-1,25
 775.5 487 775.5 487 758 429 c 128,-1,26
 740.5 371 740.5 371 719 303.5 c 128,-1,27
 697.5 236 697.5 236 677.5 176 c 128,-1,28
 657.5 116 657.5 116 641.5 71 c 128,-1,29
 625.5 26 625.5 26 617.5 11 c 0,30,31
 615.5 6 615.5 6 601 2 c 128,-1,32
 586.5 -2 586.5 -2 563.5 -2 c 0,0,1
518.5 594 m 0,33,34
 518.5 602 518.5 602 513.5 602 c 256,35,36
 508.5 602 508.5 602 502 594.5 c 128,-1,37
 495.5 587 495.5 587 495.5 576 c 0,38,39
 495.5 556 495.5 556 503.5 556 c 0,40,41
 506.5 556 506.5 556 509.5 560.5 c 128,-1,42
 512.5 565 512.5 565 514.5 571 c 128,-1,43
 516.5 577 516.5 577 517.5 583.5 c 128,-1,44
 518.5 590 518.5 590 518.5 594 c 0,33,34
563.5 38 m 0,45,46
 565.5 48 565.5 48 567.5 58.5 c 128,-1,47
 569.5 69 569.5 69 571.5 73 c 0,48,49
 575.5 78 575.5 78 574 83 c 128,-1,50
 572.5 88 572.5 88 567.5 88 c 0,51,52
 564.5 88 564.5 88 561 81 c 128,-1,53
 557.5 74 557.5 74 555 64.5 c 128,-1,54
 552.5 55 552.5 55 550.5 45.5 c 128,-1,55
 548.5 36 548.5 36 548.5 31 c 0,56,57
 548.5 19 548.5 19 553.5 19 c 256,58,59
 558.5 19 558.5 19 563.5 38 c 0,45,46
EndSplineSet
EndChar

StartChar: eight.knda
Encoding: 56 56 24
Width: 1284
Flags: W
LayerCount: 2
Fore
SplineSet
633.5 -6 m 0,0,1
 593.5 -6 593.5 -6 560 8.5 c 128,-1,2
 526.5 23 526.5 23 503 46.5 c 128,-1,3
 479.5 70 479.5 70 466.5 100.5 c 128,-1,4
 453.5 131 453.5 131 453.5 163 c 0,5,6
 453.5 201 453.5 201 470.5 228 c 128,-1,7
 487.5 255 487.5 255 508 274 c 128,-1,8
 528.5 293 528.5 293 545.5 305.5 c 128,-1,9
 562.5 318 562.5 318 562.5 325 c 0,10,11
 562.5 333 562.5 333 547 342 c 128,-1,12
 531.5 351 531.5 351 512.5 367 c 128,-1,13
 493.5 383 493.5 383 478 407.5 c 128,-1,14
 462.5 432 462.5 432 462.5 471 c 0,15,16
 462.5 503 462.5 503 477 531 c 128,-1,17
 491.5 559 491.5 559 516.5 580 c 128,-1,18
 541.5 601 541.5 601 573.5 613 c 128,-1,19
 605.5 625 605.5 625 640.5 625 c 0,20,21
 666.5 625 666.5 625 696.5 614.5 c 128,-1,22
 726.5 604 726.5 604 752 584.5 c 128,-1,23
 777.5 565 777.5 565 794 536 c 128,-1,24
 810.5 507 810.5 507 810.5 469 c 0,25,26
 810.5 432 810.5 432 796.5 409.5 c 128,-1,27
 782.5 387 782.5 387 766 373.5 c 128,-1,28
 749.5 360 749.5 360 735.5 353 c 128,-1,29
 721.5 346 721.5 346 721.5 340 c 0,30,31
 721.5 331 721.5 331 738.5 319.5 c 128,-1,32
 755.5 308 755.5 308 776 289.5 c 128,-1,33
 796.5 271 796.5 271 813.5 242 c 128,-1,34
 830.5 213 830.5 213 830.5 169 c 0,35,36
 830.5 136 830.5 136 815 104.5 c 128,-1,37
 799.5 73 799.5 73 772.5 48 c 128,-1,38
 745.5 23 745.5 23 710 8.5 c 128,-1,39
 674.5 -6 674.5 -6 633.5 -6 c 0,0,1
505.5 512 m 0,40,41
 506.5 518 506.5 518 511.5 525 c 128,-1,42
 516.5 532 516.5 532 522.5 538.5 c 128,-1,43
 528.5 545 528.5 545 534 550.5 c 128,-1,44
 539.5 556 539.5 556 542.5 559 c 0,45,46
 553.5 571 553.5 571 553.5 578 c 0,47,48
 553.5 582 553.5 582 549.5 582 c 0,49,50
 540.5 582 540.5 582 530 572.5 c 128,-1,51
 519.5 563 519.5 563 510.5 549.5 c 128,-1,52
 501.5 536 501.5 536 495.5 522.5 c 128,-1,53
 489.5 509 489.5 509 489.5 501 c 256,54,55
 489.5 493 489.5 493 493.5 493 c 0,56,57
 500.5 493 500.5 493 505.5 512 c 0,40,41
640.5 371 m 0,58,59
 653.5 371 653.5 371 666 379.5 c 128,-1,60
 678.5 388 678.5 388 688.5 402 c 128,-1,61
 698.5 416 698.5 416 705 433.5 c 128,-1,62
 711.5 451 711.5 451 711.5 469 c 0,63,64
 711.5 504 711.5 504 691.5 529.5 c 128,-1,65
 671.5 555 671.5 555 639.5 555 c 256,66,67
 607.5 555 607.5 555 584.5 533 c 128,-1,68
 561.5 511 561.5 511 561.5 473 c 0,69,70
 561.5 459 561.5 459 566.5 441.5 c 128,-1,71
 571.5 424 571.5 424 581.5 408 c 128,-1,72
 591.5 392 591.5 392 606.5 381.5 c 128,-1,73
 621.5 371 621.5 371 640.5 371 c 0,58,59
495.5 469 m 0,74,75
 495.5 478 495.5 478 488.5 478 c 0,76,77
 483.5 478 483.5 478 482 475 c 128,-1,78
 480.5 472 480.5 472 480.5 469 c 0,79,80
 480.5 467 480.5 467 481.5 465 c 0,81,82
 483.5 461 483.5 461 487.5 461 c 0,83,84
 489.5 461 489.5 461 492.5 463 c 128,-1,85
 495.5 465 495.5 465 495.5 469 c 0,74,75
635.5 73 m 0,86,87
 683.5 73 683.5 73 701 98 c 128,-1,88
 718.5 123 718.5 123 718.5 169 c 0,89,90
 718.5 188 718.5 188 711 208.5 c 128,-1,91
 703.5 229 703.5 229 692 246 c 128,-1,92
 680.5 263 680.5 263 667.5 274 c 128,-1,93
 654.5 285 654.5 285 643.5 285 c 0,94,95
 628.5 285 628.5 285 613.5 273.5 c 128,-1,96
 598.5 262 598.5 262 586.5 244.5 c 128,-1,97
 574.5 227 574.5 227 567 205.5 c 128,-1,98
 559.5 184 559.5 184 559.5 163 c 0,99,100
 559.5 147 559.5 147 565 131 c 128,-1,101
 570.5 115 570.5 115 580 102 c 128,-1,102
 589.5 89 589.5 89 603.5 81 c 128,-1,103
 617.5 73 617.5 73 635.5 73 c 0,86,87
499.5 222 m 256,104,105
 502.5 230 502.5 230 499.5 233 c 128,-1,106
 496.5 236 496.5 236 489.5 229 c 0,107,108
 486.5 226 486.5 226 481.5 218.5 c 128,-1,109
 476.5 211 476.5 211 472 202 c 128,-1,110
 467.5 193 467.5 193 464 183.5 c 128,-1,111
 460.5 174 460.5 174 460.5 166 c 0,112,113
 459.5 158 459.5 158 463 150.5 c 128,-1,114
 466.5 143 466.5 143 473.5 143 c 0,115,116
 481.5 143 481.5 143 480.5 155.5 c 128,-1,117
 479.5 168 479.5 168 481.5 179 c 0,118,119
 484.5 194 484.5 194 490.5 204 c 128,-1,120
 496.5 214 496.5 214 499.5 222 c 256,104,105
EndSplineSet
EndChar

StartChar: nine.knda
Encoding: 57 57 25
Width: 1284
Flags: W
LayerCount: 2
Fore
SplineSet
640 623 m 0,0,1
 695 623 695 623 732 601.5 c 128,-1,2
 769 580 769 580 791 546 c 128,-1,3
 813 512 813 512 822.5 470 c 128,-1,4
 832 428 832 428 832 387 c 0,5,6
 832 336 832 336 820.5 284 c 128,-1,7
 809 232 809 232 788.5 185 c 128,-1,8
 768 138 768 138 740 99 c 128,-1,9
 712 60 712 60 679 34 c 0,10,11
 652 13 652 13 623.5 2.5 c 128,-1,12
 595 -8 595 -8 573 -8 c 0,13,14
 555 -8 555 -8 542.5 -1.5 c 128,-1,15
 530 5 530 5 530 21 c 0,16,17
 530 36 530 36 538 51.5 c 128,-1,18
 546 67 546 67 573 76 c 0,19,20
 599 85 599 85 619.5 100 c 128,-1,21
 640 115 640 115 656 135 c 128,-1,22
 672 155 672 155 683.5 178.5 c 128,-1,23
 695 202 695 202 704 227 c 0,24,25
 709 239 709 239 713 257.5 c 128,-1,26
 717 276 717 276 717 287 c 0,27,28
 717 297 717 297 713 297 c 0,29,30
 710 297 710 297 703.5 289 c 128,-1,31
 697 281 697 281 684 272 c 128,-1,32
 671 263 671 263 651 255 c 128,-1,33
 631 247 631 247 601 247 c 0,34,35
 531 247 531 247 491.5 295 c 128,-1,36
 452 343 452 343 452 425 c 0,37,38
 452 463 452 463 464 499 c 128,-1,39
 476 535 476 535 500 562.5 c 128,-1,40
 524 590 524 590 559 606.5 c 128,-1,41
 594 623 594 623 640 623 c 0,0,1
645 535 m 0,42,43
 603 535 603 535 577.5 508 c 128,-1,44
 552 481 552 481 552 432 c 0,45,46
 552 390 552 390 570.5 364.5 c 128,-1,47
 589 339 589 339 622 339 c 0,48,49
 642 339 642 339 660.5 347 c 128,-1,50
 679 355 679 355 693 368 c 128,-1,51
 707 381 707 381 716 398.5 c 128,-1,52
 725 416 725 416 725 434 c 0,53,54
 725 455 725 455 721.5 473 c 128,-1,55
 718 491 718 491 709 505 c 128,-1,56
 700 519 700 519 684.5 527 c 128,-1,57
 669 535 669 535 645 535 c 0,42,43
502 486 m 0,58,59
 504 496 504 496 506.5 503.5 c 128,-1,60
 509 511 509 511 509 517 c 0,61,62
 509 524 509 524 502 524 c 0,63,64
 499 524 499 524 493.5 511 c 128,-1,65
 488 498 488 498 483.5 480 c 128,-1,66
 479 462 479 462 476 444 c 128,-1,67
 473 426 473 426 475 415 c 0,68,69
 478 403 478 403 483 403 c 256,70,71
 488 403 488 403 490.5 410.5 c 128,-1,72
 493 418 493 418 495 426 c 0,73,74
 499 443 499 443 499 457 c 128,-1,75
 499 471 499 471 502 486 c 0,58,59
498 380 m 0,76,77
 498 385 498 385 496.5 388.5 c 128,-1,78
 495 392 495 392 492 392 c 0,79,80
 487 392 487 392 483 389 c 128,-1,81
 479 386 479 386 479 376 c 0,82,83
 479 373 479 373 481.5 370 c 128,-1,84
 484 367 484 367 488 367 c 0,85,86
 494 367 494 367 496 372.5 c 128,-1,87
 498 378 498 378 498 380 c 0,76,77
570 58 m 2,88,89
 570 61 570 61 565.5 60 c 128,-1,90
 561 59 561 59 556 55 c 128,-1,91
 551 51 551 51 547 44 c 128,-1,92
 543 37 543 37 543 28 c 0,93,94
 543 26 543 26 544.5 20 c 128,-1,95
 546 14 546 14 550 14 c 0,96,97
 553 14 553 14 556.5 20.5 c 128,-1,98
 560 27 560 27 563 35.5 c 128,-1,99
 566 44 566 44 568 51 c 128,-1,100
 570 58 570 58 570 58 c 2,88,89
EndSplineSet
EndChar

StartChar: colon.knda
Encoding: 58 58 26
Width: 1284
Flags: W
LayerCount: 2
Fore
SplineSet
580 54 m 0,0,1
 580 91 580 91 598 106 c 128,-1,2
 616 121 616 121 641 121 c 0,3,4
 667 121 667 121 685.5 106 c 128,-1,5
 704 91 704 91 704 54 c 0,6,7
 704 18 704 18 685.5 2 c 128,-1,8
 667 -14 667 -14 641 -14 c 0,9,10
 616 -14 616 -14 598 2 c 128,-1,11
 580 18 580 18 580 54 c 0,0,1
580 482 m 0,12,13
 580 520 580 520 598 535 c 128,-1,14
 616 550 616 550 641 550 c 0,15,16
 667 550 667 550 685.5 535 c 128,-1,17
 704 520 704 520 704 482 c 0,18,19
 704 446 704 446 685.5 430 c 128,-1,20
 667 414 667 414 641 414 c 0,21,22
 616 414 616 414 598 430 c 128,-1,23
 580 446 580 446 580 482 c 0,12,13
EndSplineSet
EndChar

StartChar: semicolon.knda
Encoding: 59 59 27
Width: 1284
Flags: W
LayerCount: 2
Fore
SplineSet
712.5 105 m 1,0,1
 703.5 70 703.5 70 689.5 29 c 128,-1,2
 675.5 -12 675.5 -12 659 -52.5 c 128,-1,3
 642.5 -93 642.5 -93 626.5 -129 c 1,4,-1
 560.5 -129 l 1,5,6
 567.5 -101 567.5 -101 575 -69 c 128,-1,7
 582.5 -37 582.5 -37 589.5 -4.5 c 128,-1,8
 596.5 28 596.5 28 602 59 c 128,-1,9
 607.5 90 607.5 90 611.5 116 c 1,10,-1
 705.5 116 l 1,11,-1
 712.5 105 l 1,0,1
599.5 482 m 0,12,13
 599.5 520 599.5 520 617.5 535 c 128,-1,14
 635.5 550 635.5 550 660.5 550 c 0,15,16
 686.5 550 686.5 550 705 535 c 128,-1,17
 723.5 520 723.5 520 723.5 482 c 0,18,19
 723.5 446 723.5 446 705 430 c 128,-1,20
 686.5 414 686.5 414 660.5 414 c 0,21,22
 635.5 414 635.5 414 617.5 430 c 128,-1,23
 599.5 446 599.5 446 599.5 482 c 0,12,13
EndSplineSet
EndChar

StartChar: less.knda
Encoding: 60 60 28
Width: 1284
Flags: W
LayerCount: 2
Fore
SplineSet
877.5 116 m 1,0,-1
 406.5 323 l 1,1,-1
 406.5 373 l 1,2,-1
 877.5 608 l 1,3,-1
 877.5 530 l 1,4,-1
 500.5 352 l 1,5,-1
 877.5 194 l 1,6,-1
 877.5 116 l 1,0,-1
EndSplineSet
EndChar

StartChar: equal.knda
Encoding: 61 61 29
Width: 1284
Flags: W
LayerCount: 2
Fore
SplineSet
413 416 m 1,0,-1
 413 487 l 1,1,-1
 871 487 l 1,2,-1
 871 416 l 1,3,-1
 413 416 l 1,0,-1
413 217 m 1,4,-1
 413 288 l 1,5,-1
 871 288 l 1,6,-1
 871 217 l 1,7,-1
 413 217 l 1,4,-1
EndSplineSet
EndChar

StartChar: greater.knda
Encoding: 62 62 30
Width: 1284
Flags: W
LayerCount: 2
Fore
SplineSet
406.5 194 m 1,0,-1
 783.5 351 l 1,1,-1
 406.5 530 l 1,2,-1
 406.5 608 l 1,3,-1
 877.5 373 l 1,4,-1
 877.5 323 l 1,5,-1
 406.5 116 l 1,6,-1
 406.5 194 l 1,0,-1
EndSplineSet
EndChar

StartChar: question.knda
Encoding: 63 63 31
Width: 1284
Flags: W
LayerCount: 2
Fore
SplineSet
572 199 m 6,0,1
 572 237 572 237 579.5 264.5 c 132,-1,2
 587 292 587 292 605.5 317 c 132,-1,3
 624 342 624 342 656 369 c 4,4,5
 695 402 695 402 716.5 424 c 132,-1,6
 738 446 738 446 747 467 c 132,-1,7
 756 488 756 488 756 518 c 4,8,9
 756 566 756 566 725 592 c 132,-1,10
 694 618 694 618 635 618 c 4,11,12
 586 618 586 618 548 605.5 c 132,-1,13
 510 593 510 593 475 576 c 5,14,-1
 444 646 l 5,15,16
 484 667 484 667 532.5 681 c 132,-1,17
 581 695 581 695 641 695 c 4,18,19
 736 695 736 695 788 648 c 132,-1,20
 840 601 840 601 840 520 c 4,21,22
 840 475 840 475 825.5 443.5 c 132,-1,23
 811 412 811 412 784.5 385.5 c 132,-1,24
 758 359 758 359 722 329 c 4,25,26
 689 301 689 301 671.5 280 c 132,-1,27
 654 259 654 259 648 238.5 c 132,-1,28
 642 218 642 218 642 189 c 6,29,-1
 642 172 l 5,30,-1
 572 172 l 5,31,-1
 572 199 l 6,0,1
549 25 m 4,32,33
 549 62 549 62 566.5 77 c 132,-1,34
 584 92 584 92 611 92 c 4,35,36
 636 92 636 92 654 77 c 132,-1,37
 672 62 672 62 672 25 c 4,38,39
 672 -11 672 -11 654 -27 c 132,-1,40
 636 -43 636 -43 611 -43 c 4,41,42
 584 -43 584 -43 566.5 -27 c 132,-1,43
 549 -11 549 -11 549 25 c 4,32,33
EndSplineSet
EndChar

StartChar: bracketleft.knda
Encoding: 91 91 32
Width: 1284
Flags: W
LayerCount: 2
Fore
SplineSet
546.930664062 -70 m 0,0,1
 543.930664062 -67 543.930664062 -67 542.430664062 -56.5 c 128,-1,2
 540.930664062 -46 540.930664062 -46 539.930664062 -12.5 c 128,-1,3
 538.930664062 21 538.930664062 21 538.930664062 86.5 c 128,-1,4
 538.930664062 152 538.930664062 152 538.930664062 266 c 0,5,6
 538.930664062 347 538.930664062 347 538.930664062 405 c 128,-1,7
 538.930664062 463 538.930664062 463 538.930664062 503.5 c 128,-1,8
 538.930664062 544 538.930664062 544 539.930664062 570 c 128,-1,9
 540.930664062 596 540.930664062 596 542.930664062 611.5 c 128,-1,10
 544.930664062 627 544.930664062 627 547.930664062 635 c 128,-1,11
 550.930664062 643 550.930664062 643 555.930664062 649 c 0,12,13
 559.930664062 654 559.930664062 654 571.430664062 657 c 128,-1,14
 582.930664062 660 582.930664062 660 598.430664062 661.5 c 128,-1,15
 613.930664062 663 613.930664062 663 633.430664062 663.5 c 128,-1,16
 652.930664062 664 652.930664062 664 672.930664062 664 c 0,17,18
 713.930664062 664 713.930664062 664 734.430664062 650 c 128,-1,19
 754.930664062 636 754.930664062 636 735.930664062 616 c 0,20,21
 730.930664062 610 730.930664062 610 716.930664062 606 c 128,-1,22
 702.930664062 602 702.930664062 602 672.930664062 602 c 0,23,24
 658.930664062 602 658.930664062 602 651.430664062 600 c 128,-1,25
 643.930664062 598 643.930664062 598 640.930664062 593 c 128,-1,26
 637.930664062 588 637.930664062 588 637.930664062 579.5 c 128,-1,27
 637.930664062 571 637.930664062 571 637.930664062 557 c 2,28,-1
 637.930664062 -20 l 1,29,-1
 655.930664062 -20 l 2,30,31
 698.930664062 -20 698.930664062 -20 713.430664062 -27.5 c 128,-1,32
 727.930664062 -35 727.930664062 -35 727.930664062 -56 c 0,33,34
 727.930664062 -66 727.930664062 -66 724.430664062 -71.5 c 128,-1,35
 720.930664062 -77 720.930664062 -77 710.430664062 -79.5 c 128,-1,36
 699.930664062 -82 699.930664062 -82 681.930664062 -82.5 c 128,-1,37
 663.930664062 -83 663.930664062 -83 633.930664062 -83 c 0,38,39
 606.930664062 -83 606.930664062 -83 591.430664062 -83 c 128,-1,40
 575.930664062 -83 575.930664062 -83 566.930664062 -81.5 c 128,-1,41
 557.930664062 -80 557.930664062 -80 553.930664062 -77.5 c 128,-1,42
 549.930664062 -75 549.930664062 -75 546.930664062 -70 c 0,0,1
583.930664062 616 m 256,43,44
 585.930664062 624 585.930664062 624 594.930664062 630 c 128,-1,45
 603.930664062 636 603.930664062 636 609.930664062 636 c 0,46,47
 618.930664062 636 618.930664062 636 618.930664062 643 c 0,48,49
 618.930664062 644 618.930664062 644 617.430664062 644 c 128,-1,50
 615.930664062 644 615.930664062 644 609.930664062 644 c 0,51,52
 594.930664062 644 594.930664062 644 580.930664062 634 c 128,-1,53
 566.930664062 624 566.930664062 624 566.930664062 610 c 0,54,55
 566.930664062 598 566.930664062 598 570.930664062 598 c 256,56,57
 574.930664062 598 574.930664062 598 578.430664062 603 c 128,-1,58
 581.930664062 608 581.930664062 608 583.930664062 616 c 256,43,44
EndSplineSet
EndChar

StartChar: backslash.knda
Encoding: 92 92 33
Width: 1284
Flags: W
LayerCount: 2
Fore
SplineSet
528.5 666 m 0,0,1
 535.5 666 535.5 666 553.5 630.5 c 128,-1,2
 571.5 595 571.5 595 595 541 c 128,-1,3
 618.5 487 618.5 487 644.5 422.5 c 128,-1,4
 670.5 358 670.5 358 693.5 299.5 c 128,-1,5
 716.5 241 716.5 241 733 197.5 c 128,-1,6
 749.5 154 749.5 154 755.5 142 c 0,7,8
 761.5 129 761.5 129 773 101.5 c 128,-1,9
 784.5 74 784.5 74 796 44.5 c 128,-1,10
 807.5 15 807.5 15 816 -10.5 c 128,-1,11
 824.5 -36 824.5 -36 824.5 -44 c 0,12,13
 824.5 -51 824.5 -51 819.5 -57 c 128,-1,14
 814.5 -63 814.5 -63 807 -67.5 c 128,-1,15
 799.5 -72 799.5 -72 791 -74.5 c 128,-1,16
 782.5 -77 782.5 -77 775.5 -77 c 0,17,18
 761.5 -77 761.5 -77 750 -67.5 c 128,-1,19
 738.5 -58 738.5 -58 731.5 -47 c 0,20,21
 725.5 -37 725.5 -37 710.5 -3 c 128,-1,22
 695.5 31 695.5 31 675.5 79.5 c 128,-1,23
 655.5 128 655.5 128 631.5 187 c 128,-1,24
 607.5 246 607.5 246 583.5 306 c 128,-1,25
 559.5 366 559.5 366 537 423 c 128,-1,26
 514.5 480 514.5 480 497.5 525 c 128,-1,27
 480.5 570 480.5 570 470 598.5 c 128,-1,28
 459.5 627 459.5 627 459.5 630 c 0,29,30
 459.5 639 459.5 639 468.5 646 c 128,-1,31
 477.5 653 477.5 653 489.5 657.5 c 128,-1,32
 501.5 662 501.5 662 513 664 c 128,-1,33
 524.5 666 524.5 666 528.5 666 c 0,0,1
503.5 626 m 0,34,35
 501.5 631 501.5 631 494 629 c 128,-1,36
 486.5 627 486.5 627 486.5 620 c 0,37,38
 486.5 614 486.5 614 491.5 599.5 c 128,-1,39
 496.5 585 496.5 585 503 569.5 c 128,-1,40
 509.5 554 509.5 554 516 540.5 c 128,-1,41
 522.5 527 522.5 527 524.5 523 c 0,42,43
 527.5 518 527.5 518 532.5 518 c 128,-1,44
 537.5 518 537.5 518 539.5 519 c 0,45,46
 544.5 520 544.5 520 541 532.5 c 128,-1,47
 537.5 545 537.5 545 530.5 561.5 c 128,-1,48
 523.5 578 523.5 578 515.5 596 c 128,-1,49
 507.5 614 507.5 614 503.5 626 c 0,34,35
EndSplineSet
EndChar

StartChar: bracketright.knda
Encoding: 93 93 34
Width: 1284
Flags: W
LayerCount: 2
Fore
SplineSet
571.75 -80 m 0,0,1
 556.75 -80 556.75 -80 546.25 -71.5 c 128,-1,2
 535.75 -63 535.75 -63 535.75 -55 c 0,3,4
 535.75 -33 535.75 -33 549.25 -25 c 128,-1,5
 562.75 -17 562.75 -17 582.75 -17 c 0,6,7
 606.75 -17 606.75 -17 620.25 -15 c 128,-1,8
 633.75 -13 633.75 -13 640.25 -8.5 c 128,-1,9
 646.75 -4 646.75 -4 648.25 3.5 c 128,-1,10
 649.75 11 649.75 11 649.75 21 c 2,11,-1
 649.75 551 l 2,12,13
 649.75 580 649.75 580 637.75 590 c 128,-1,14
 625.75 600 625.75 600 614.75 600 c 256,15,16
 603.75 600 603.75 600 591.75 598 c 128,-1,17
 579.75 596 579.75 596 568.75 596 c 0,18,19
 554.75 596 554.75 596 545.25 603 c 128,-1,20
 535.75 610 535.75 610 535.75 633 c 0,21,22
 535.75 645 535.75 645 552.25 653.5 c 128,-1,23
 568.75 662 568.75 662 597.75 662 c 0,24,25
 622.75 662 622.75 662 646.75 662 c 128,-1,26
 670.75 662 670.75 662 690.25 660.5 c 128,-1,27
 709.75 659 709.75 659 722.75 656 c 128,-1,28
 735.75 653 735.75 653 738.75 647 c 0,29,30
 741.75 642 741.75 642 742.25 625.5 c 128,-1,31
 742.75 609 742.75 609 742.75 570.5 c 128,-1,32
 742.75 532 742.75 532 743.25 466 c 128,-1,33
 743.75 400 743.75 400 744.75 295 c 0,34,35
 746.75 193 746.75 193 747.75 127.5 c 128,-1,36
 748.75 62 748.75 62 747.75 21 c 0,37,38
 747.75 -7 747.75 -7 743.75 -25 c 128,-1,39
 739.75 -43 739.75 -43 733.75 -54 c 128,-1,40
 727.75 -65 727.75 -65 719.25 -70 c 128,-1,41
 710.75 -75 710.75 -75 700.75 -76 c 0,42,43
 682.75 -78 682.75 -78 661.25 -79 c 128,-1,44
 639.75 -80 639.75 -80 620.75 -80 c 128,-1,45
 601.75 -80 601.75 -80 587.75 -80 c 128,-1,46
 573.75 -80 573.75 -80 571.75 -80 c 0,0,1
566.75 644 m 256,47,48
 562.75 649 562.75 649 555.75 645 c 128,-1,49
 548.75 641 548.75 641 548.75 633 c 0,50,51
 548.75 623 548.75 623 552.75 623 c 256,52,53
 556.75 623 556.75 623 556.75 630 c 0,54,55
 557.75 634 557.75 634 564.25 636.5 c 128,-1,56
 570.75 639 570.75 639 566.75 644 c 256,47,48
EndSplineSet
EndChar

StartChar: asciicircum.knda
Encoding: 94 94 35
Width: 1284
Flags: W
LayerCount: 2
Fore
SplineSet
394 267 m 1,0,-1
 606 719 l 1,1,-1
 656 719 l 1,2,-1
 890 267 l 1,3,-1
 812 267 l 1,4,-1
 632 626 l 1,5,-1
 472 267 l 1,6,-1
 394 267 l 1,0,-1
EndSplineSet
EndChar

StartChar: underscore.knda
Encoding: 95 95 36
Width: 1284
Flags: W
LayerCount: 2
Fore
SplineSet
866 -154 m 1,0,-1
 418 -154 l 1,1,-1
 418 -90 l 1,2,-1
 866 -90 l 1,3,-1
 866 -154 l 1,0,-1
EndSplineSet
EndChar

StartChar: braceleft.knda
Encoding: 123 123 37
Width: 1284
Flags: W
LayerCount: 2
Fore
SplineSet
718.5 -77 m 0,0,1
 665.5 -77 665.5 -77 635.5 -62 c 128,-1,2
 605.5 -47 605.5 -47 590 -21 c 128,-1,3
 574.5 5 574.5 5 570 39 c 128,-1,4
 565.5 73 565.5 73 563.5 111 c 0,5,6
 561.5 156 561.5 156 551 178 c 128,-1,7
 540.5 200 540.5 200 529 213 c 128,-1,8
 517.5 226 517.5 226 508.5 238 c 128,-1,9
 499.5 250 499.5 250 499.5 276 c 256,10,11
 499.5 302 499.5 302 512.5 315.5 c 128,-1,12
 525.5 329 525.5 329 541.5 345 c 128,-1,13
 557.5 361 557.5 361 571.5 387.5 c 128,-1,14
 585.5 414 585.5 414 587.5 466 c 0,15,16
 589.5 505 589.5 505 592.5 540.5 c 128,-1,17
 595.5 576 595.5 576 609 602.5 c 128,-1,18
 622.5 629 622.5 629 651 644.5 c 128,-1,19
 679.5 660 679.5 660 733.5 660 c 0,20,21
 748.5 660 748.5 660 758.5 656 c 128,-1,22
 768.5 652 768.5 652 774.5 646 c 128,-1,23
 780.5 640 780.5 640 782.5 633.5 c 128,-1,24
 784.5 627 784.5 627 784.5 622 c 0,25,26
 784.5 606 784.5 606 772 602 c 128,-1,27
 759.5 598 759.5 598 742.5 596.5 c 128,-1,28
 725.5 595 725.5 595 707.5 591 c 128,-1,29
 689.5 587 689.5 587 677.5 572 c 0,30,31
 669.5 562 669.5 562 670.5 540.5 c 128,-1,32
 671.5 519 671.5 519 674.5 492.5 c 128,-1,33
 677.5 466 677.5 466 679 436 c 128,-1,34
 680.5 406 680.5 406 674.5 378 c 0,35,36
 671.5 364 671.5 364 658 348 c 128,-1,37
 644.5 332 644.5 332 630.5 318 c 128,-1,38
 616.5 304 616.5 304 605 293 c 128,-1,39
 593.5 282 593.5 282 593.5 277 c 256,40,41
 593.5 272 593.5 272 604.5 260.5 c 128,-1,42
 615.5 249 615.5 249 628.5 232 c 128,-1,43
 641.5 215 641.5 215 652.5 192.5 c 128,-1,44
 663.5 170 663.5 170 663.5 143 c 0,45,46
 663.5 135 663.5 135 662.5 115.5 c 128,-1,47
 661.5 96 661.5 96 661 74.5 c 128,-1,48
 660.5 53 660.5 53 662 34 c 128,-1,49
 663.5 15 663.5 15 668.5 9 c 0,50,51
 677.5 -2 677.5 -2 690.5 -10 c 128,-1,52
 703.5 -18 703.5 -18 720.5 -18 c 0,53,54
 728.5 -18 728.5 -18 738 -18.5 c 128,-1,55
 747.5 -19 747.5 -19 755 -21.5 c 128,-1,56
 762.5 -24 762.5 -24 767.5 -30 c 128,-1,57
 772.5 -36 772.5 -36 772.5 -47 c 0,58,59
 772.5 -56 772.5 -56 767 -62 c 128,-1,60
 761.5 -68 761.5 -68 753.5 -71.5 c 128,-1,61
 745.5 -75 745.5 -75 736 -76 c 128,-1,62
 726.5 -77 726.5 -77 718.5 -77 c 0,0,1
637.5 584 m 0,63,64
 644.5 594 644.5 594 653 601.5 c 128,-1,65
 661.5 609 661.5 609 669 615 c 128,-1,66
 676.5 621 676.5 621 681 626 c 128,-1,67
 685.5 631 685.5 631 685.5 636 c 0,68,69
 685.5 640 685.5 640 680.5 640 c 0,70,71
 673.5 640 673.5 640 662.5 633 c 128,-1,72
 651.5 626 651.5 626 641.5 616 c 128,-1,73
 631.5 606 631.5 606 624.5 594.5 c 128,-1,74
 617.5 583 617.5 583 617.5 574 c 0,75,76
 617.5 572 617.5 572 619.5 571 c 128,-1,77
 621.5 570 621.5 570 622.5 570 c 0,78,79
 627.5 570 627.5 570 631 575 c 128,-1,80
 634.5 580 634.5 580 637.5 584 c 0,63,64
EndSplineSet
EndChar

StartChar: bar.knda
Encoding: 124 124 38
Width: 1284
Flags: W
LayerCount: 2
Fore
SplineSet
644 -99 m 256,0,1
 617 -99 617 -99 605.5 -80 c 128,-1,2
 594 -61 594 -61 594 -43 c 2,3,-1
 595 666 l 2,4,5
 595 682 595 682 605.5 694 c 128,-1,6
 616 706 616 706 636 706 c 0,7,8
 660 706 660 706 674 698 c 128,-1,9
 688 690 688 690 690 672 c 2,10,-1
 690 -38 l 2,11,12
 690 -60 690 -60 680.5 -79.5 c 128,-1,13
 671 -99 671 -99 644 -99 c 256,0,1
622 653 m 0,14,15
 622 664 622 664 624.5 671.5 c 128,-1,16
 627 679 627 679 628.5 683.5 c 128,-1,17
 630 688 630 688 630 690 c 128,-1,18
 630 692 630 692 625 692 c 0,19,20
 619 692 619 692 615.5 686.5 c 128,-1,21
 612 681 612 681 610 673.5 c 128,-1,22
 608 666 608 666 607.5 658.5 c 128,-1,23
 607 651 607 651 607 646 c 0,24,25
 607 633 607 633 610 622.5 c 128,-1,26
 613 612 613 612 619 612 c 0,27,28
 622 612 622 612 622.5 616.5 c 128,-1,29
 623 621 623 621 623 628 c 128,-1,30
 623 635 623 635 622.5 642 c 128,-1,31
 622 649 622 649 622 653 c 0,14,15
EndSplineSet
EndChar

StartChar: braceright.knda
Encoding: 125 125 39
Width: 1284
Flags: W
LayerCount: 2
Fore
SplineSet
568 -74 m 0,0,1
 561 -74 561 -74 552 -72.5 c 128,-1,2
 543 -71 543 -71 534.5 -67 c 128,-1,3
 526 -63 526 -63 520 -57 c 128,-1,4
 514 -51 514 -51 514 -42 c 0,5,6
 514 -34 514 -34 519 -29.5 c 128,-1,7
 524 -25 524 -25 530.5 -23 c 128,-1,8
 537 -21 537 -21 545 -21 c 128,-1,9
 553 -21 553 -21 559 -21 c 0,10,11
 586 -21 586 -21 598 -12.5 c 128,-1,12
 610 -4 610 -4 614.5 10.5 c 128,-1,13
 619 25 619 25 619 43 c 128,-1,14
 619 61 619 61 621 80 c 0,15,16
 623 97 623 97 625 122.5 c 128,-1,17
 627 148 627 148 632.5 175 c 128,-1,18
 638 202 638 202 646.5 226.5 c 128,-1,19
 655 251 655 251 668 264 c 0,20,21
 670 267 670 267 678 271.5 c 128,-1,22
 686 276 686 276 686 280 c 0,23,24
 686 286 686 286 674.5 289.5 c 128,-1,25
 663 293 663 293 659 296 c 0,26,27
 643 306 643 306 632.5 334 c 128,-1,28
 622 362 622 362 616.5 395 c 128,-1,29
 611 428 611 428 608.5 459 c 128,-1,30
 606 490 606 490 605 505 c 0,31,32
 604 514 604 514 604.5 529 c 128,-1,33
 605 544 605 544 603.5 558 c 128,-1,34
 602 572 602 572 598.5 583 c 128,-1,35
 595 594 595 594 586 596 c 0,36,37
 568 601 568 601 550 599 c 0,38,39
 521 597 521 597 508.5 605.5 c 128,-1,40
 496 614 496 614 496 631 c 0,41,42
 496 653 496 653 518.5 660.5 c 128,-1,43
 541 668 541 668 574 663 c 0,44,45
 610 659 610 659 633.5 642.5 c 128,-1,46
 657 626 657 626 671 603 c 128,-1,47
 685 580 685 580 691.5 553.5 c 128,-1,48
 698 527 698 527 700 502 c 0,49,50
 702 472 702 472 703 443 c 128,-1,51
 704 414 704 414 708.5 389 c 128,-1,52
 713 364 713 364 723.5 344.5 c 128,-1,53
 734 325 734 325 755 315 c 0,54,55
 764 311 764 311 776 301.5 c 128,-1,56
 788 292 788 292 788 281 c 0,57,58
 788 273 788 273 782 267.5 c 128,-1,59
 776 262 776 262 770 257 c 0,60,61
 750 242 750 242 741 227.5 c 128,-1,62
 732 213 732 213 728.5 197.5 c 128,-1,63
 725 182 725 182 725 164.5 c 128,-1,64
 725 147 725 147 724 126 c 0,65,66
 722 87 722 87 718.5 51 c 128,-1,67
 715 15 715 15 700.5 -12.5 c 128,-1,68
 686 -40 686 -40 655 -57 c 128,-1,69
 624 -74 624 -74 568 -74 c 0,0,1
521 616 m 0,70,71
 524 616 524 616 527.5 620.5 c 128,-1,72
 531 625 531 625 533.5 630.5 c 128,-1,73
 536 636 536 636 537.5 641.5 c 128,-1,74
 539 647 539 647 539 649 c 0,75,76
 539 656 539 656 532 656 c 0,77,78
 526 656 526 656 522 652 c 128,-1,79
 518 648 518 648 515.5 643 c 128,-1,80
 513 638 513 638 512 632.5 c 128,-1,81
 511 627 511 627 512 625 c 0,82,83
 515 616 515 616 521 616 c 0,70,71
EndSplineSet
EndChar

StartChar: asciitilde.knda
Encoding: 126 126 40
Width: 1284
Flags: W
LayerCount: 2
Fore
SplineSet
625.5 319 m 0,0,1
 589.5 335 589.5 335 566 340.5 c 128,-1,2
 542.5 346 542.5 346 520.5 346 c 0,3,4
 492.5 346 492.5 346 461.5 329 c 128,-1,5
 430.5 312 430.5 312 406.5 287 c 1,6,-1
 406.5 365 l 1,7,8
 430.5 391 430.5 391 460.5 404.5 c 128,-1,9
 490.5 418 490.5 418 526.5 418 c 0,10,11
 555.5 418 555.5 418 584 412 c 128,-1,12
 612.5 406 612.5 406 658.5 386 c 0,13,14
 694.5 370 694.5 370 718 364.5 c 128,-1,15
 741.5 359 741.5 359 762.5 359 c 0,16,17
 791.5 359 791.5 359 822.5 376 c 128,-1,18
 853.5 393 853.5 393 877.5 418 c 1,19,-1
 877.5 341 l 1,20,21
 853.5 315 853.5 315 823.5 301 c 128,-1,22
 793.5 287 793.5 287 757.5 287 c 0,23,24
 729.5 287 729.5 287 700 293.5 c 128,-1,25
 670.5 300 670.5 300 625.5 319 c 0,0,1
EndSplineSet
EndChar

StartChar: A
Encoding: 65 65 41
Width: 1284
Flags: W
LayerCount: 2
Fore
SplineSet
597.5 -8 m 0,0,1
 530.5 -8 530.5 -8 493 71 c 128,-1,2
 455.5 150 455.5 150 455.5 291 c 0,3,4
 455.5 444 455.5 444 499.5 530 c 128,-1,5
 543.5 616 543.5 616 623.5 621 c 0,6,7
 652.5 623 652.5 623 671 614.5 c 128,-1,8
 689.5 606 689.5 606 701.5 595 c 128,-1,9
 713.5 584 713.5 584 719.5 575 c 128,-1,10
 725.5 566 725.5 566 728.5 566 c 256,11,12
 731.5 566 731.5 566 732.5 575 c 128,-1,13
 733.5 584 733.5 584 737.5 595 c 128,-1,14
 741.5 606 741.5 606 750 615 c 128,-1,15
 758.5 624 758.5 624 777.5 624 c 256,16,17
 796.5 624 796.5 624 809.5 615 c 128,-1,18
 822.5 606 822.5 606 822.5 592 c 2,19,-1
 822.5 204 l 2,20,21
 822.5 163 822.5 163 825.5 126.5 c 128,-1,22
 828.5 90 828.5 90 828.5 71 c 0,23,24
 828.5 36 828.5 36 815 14 c 128,-1,25
 801.5 -8 801.5 -8 780.5 -8 c 0,26,27
 756.5 -8 756.5 -8 741.5 19 c 128,-1,28
 726.5 46 726.5 46 726.5 88 c 0,29,30
 726.5 114 726.5 114 721.5 114 c 0,31,32
 717.5 114 717.5 114 710.5 95 c 128,-1,33
 703.5 76 703.5 76 690 53 c 128,-1,34
 676.5 30 676.5 30 654.5 11 c 128,-1,35
 632.5 -8 632.5 -8 597.5 -8 c 0,0,1
751.5 557 m 0,36,37
 755.5 557 755.5 557 757 563.5 c 128,-1,38
 758.5 570 758.5 570 760.5 577 c 0,39,40
 763.5 587 763.5 587 766.5 594 c 128,-1,41
 769.5 601 769.5 601 769.5 606 c 256,42,43
 769.5 611 769.5 611 765.5 611 c 0,44,45
 760.5 611 760.5 611 752.5 601 c 128,-1,46
 744.5 591 744.5 591 744.5 575 c 0,47,48
 744.5 567 744.5 567 746.5 562 c 128,-1,49
 748.5 557 748.5 557 751.5 557 c 0,36,37
621.5 90 m 0,50,51
 635.5 90 635.5 90 651.5 117 c 128,-1,52
 667.5 144 667.5 144 681 185.5 c 128,-1,53
 694.5 227 694.5 227 703.5 275.5 c 128,-1,54
 712.5 324 712.5 324 712.5 366 c 0,55,56
 712.5 399 712.5 399 707 428.5 c 128,-1,57
 701.5 458 701.5 458 691.5 480.5 c 128,-1,58
 681.5 503 681.5 503 669 516 c 128,-1,59
 656.5 529 656.5 529 642.5 529 c 0,60,61
 626.5 529 626.5 529 611.5 511.5 c 128,-1,62
 596.5 494 596.5 494 586 463.5 c 128,-1,63
 575.5 433 575.5 433 569 392.5 c 128,-1,64
 562.5 352 562.5 352 562.5 306 c 0,65,66
 562.5 265 562.5 265 567.5 226 c 128,-1,67
 572.5 187 572.5 187 581 157 c 128,-1,68
 589.5 127 589.5 127 600 108.5 c 128,-1,69
 610.5 90 610.5 90 621.5 90 c 0,50,51
549.5 33 m 0,70,71
 553.5 33 553.5 33 556 36.5 c 128,-1,72
 558.5 40 558.5 40 557.5 43 c 256,73,74
 556.5 46 556.5 46 552 51.5 c 128,-1,75
 547.5 57 547.5 57 541.5 64.5 c 128,-1,76
 535.5 72 535.5 72 530 80.5 c 128,-1,77
 524.5 89 524.5 89 522.5 97 c 0,78,79
 521.5 101 521.5 101 520 107.5 c 128,-1,80
 518.5 114 518.5 114 516.5 120.5 c 128,-1,81
 514.5 127 514.5 127 512.5 131.5 c 128,-1,82
 510.5 136 510.5 136 507.5 136 c 0,83,84
 502.5 136 502.5 136 502.5 122.5 c 128,-1,85
 502.5 109 502.5 109 509.5 89 c 0,86,87
 517.5 69 517.5 69 529.5 51 c 128,-1,88
 541.5 33 541.5 33 549.5 33 c 0,70,71
778.5 22 m 256,89,90
 778.5 25 778.5 25 775 29 c 128,-1,91
 771.5 33 771.5 33 767 38 c 128,-1,92
 762.5 43 762.5 43 759 49.5 c 128,-1,93
 755.5 56 755.5 56 755.5 63 c 0,94,95
 755.5 66 755.5 66 754.5 69 c 0,96,97
 752.5 74 752.5 74 748.5 74 c 0,98,99
 741.5 74 741.5 74 741.5 62 c 0,100,101
 741.5 46 741.5 46 750.5 29.5 c 128,-1,102
 759.5 13 759.5 13 768.5 13 c 0,103,104
 772.5 13 772.5 13 775.5 16 c 128,-1,105
 778.5 19 778.5 19 778.5 22 c 256,89,90
574.5 17 m 256,106,107
 577.5 17 577.5 17 581 21 c 128,-1,108
 584.5 25 584.5 25 586 29.5 c 128,-1,109
 587.5 34 587.5 34 586 38 c 128,-1,110
 584.5 42 584.5 42 578.5 42 c 0,111,112
 566.5 42 566.5 42 566.5 30 c 0,113,114
 566.5 25 566.5 25 569 21 c 128,-1,115
 571.5 17 571.5 17 574.5 17 c 256,106,107
EndSplineSet

EndChar

StartChar: B
Encoding: 66 66 42
Width: 1284
Flags: W
LayerCount: 2
Fore
SplineSet
707 546 m 0,0,1
 667 546 667 546 638.5 574 c 128,-1,2
 610 602 610 602 610 646 c 0,3,4
 610 670 610 670 618.5 691.5 c 128,-1,5
 627 713 627 713 642 728.5 c 128,-1,6
 657 744 657 744 678 753.5 c 128,-1,7
 699 763 699 763 724 763 c 0,8,9
 744 763 744 763 761 754.5 c 128,-1,10
 778 746 778 746 790 731 c 128,-1,11
 802 716 802 716 808.5 697 c 128,-1,12
 815 678 815 678 815 657 c 0,13,14
 815 630 815 630 806.5 609.5 c 128,-1,15
 798 589 798 589 783 575 c 128,-1,16
 768 561 768 561 748.5 553.5 c 128,-1,17
 729 546 729 546 707 546 c 0,0,1
670 719 m 0,18,19
 677 726 677 726 678.5 731 c 128,-1,20
 680 736 680 736 678 736 c 0,21,22
 670 736 670 736 661 728.5 c 128,-1,23
 652 721 652 721 644.5 710.5 c 128,-1,24
 637 700 637 700 632 688 c 128,-1,25
 627 676 627 676 627 666 c 0,26,27
 627 664 627 664 628.5 658 c 128,-1,28
 630 652 630 652 633 652 c 0,29,30
 637 652 637 652 643 674 c 0,31,32
 646 688 646 688 654 699.5 c 128,-1,33
 662 711 662 711 670 719 c 0,18,19
711 603 m 0,34,35
 723 603 723 603 739.5 617 c 128,-1,36
 756 631 756 631 756 657 c 0,37,38
 756 677 756 677 745.5 690.5 c 128,-1,39
 735 704 735 704 718 704 c 256,40,41
 701 704 701 704 687 690.5 c 128,-1,42
 673 677 673 677 673 653 c 256,43,44
 673 629 673 629 684 616 c 128,-1,45
 695 603 695 603 711 603 c 0,34,35
514 655 m 0,46,47
 494 655 494 655 477 640 c 128,-1,48
 460 625 460 625 460 586 c 2,49,-1
 460 91 l 2,50,51
 460 70 460 70 468.5 53 c 128,-1,52
 477 36 477 36 491.5 24.5 c 128,-1,53
 506 13 506 13 524.5 7 c 128,-1,54
 543 1 543 1 563 1 c 2,55,-1
 622 1 l 2,56,57
 653 1 653 1 688.5 13 c 128,-1,58
 724 25 724 25 754 51 c 128,-1,59
 784 77 784 77 804 119 c 128,-1,60
 824 161 824 161 824 220 c 256,61,62
 824 279 824 279 804.5 325.5 c 128,-1,63
 785 372 785 372 756 403.5 c 128,-1,64
 727 435 727 435 693 451.5 c 128,-1,65
 659 468 659 468 629 468 c 2,66,-1
 600 468 l 2,67,68
 591 468 591 468 582.5 472 c 128,-1,69
 574 476 574 476 574 485 c 2,70,-1
 574 590 l 2,71,72
 574 608 574 608 568.5 620 c 128,-1,73
 563 632 563 632 554 640 c 128,-1,74
 545 648 545 648 534.5 651.5 c 128,-1,75
 524 655 524 655 514 655 c 0,46,47
618 379 m 2,76,77
 635 379 635 379 651 371 c 128,-1,78
 667 363 667 363 680.5 345.5 c 128,-1,79
 694 328 694 328 702 300 c 128,-1,80
 710 272 710 272 710 232 c 0,81,82
 710 189 710 189 702 160.5 c 128,-1,83
 694 132 694 132 681 115.5 c 128,-1,84
 668 99 668 99 652 92 c 128,-1,85
 636 85 636 85 621 85 c 2,86,-1
 599 85 l 2,87,88
 574 85 574 85 574 119 c 2,89,-1
 574 356 l 2,90,91
 574 379 574 379 605 379 c 2,92,-1
 618 379 l 2,76,77
500 620 m 256,93,94
 495 615 495 615 491.5 602 c 128,-1,95
 488 589 488 589 488 550.5 c 128,-1,96
 488 512 488 512 481 512 c 0,97,98
 476 512 476 512 474.5 520.5 c 128,-1,99
 473 529 473 529 473 541 c 0,100,101
 473 603 473 603 480 619 c 128,-1,102
 487 635 487 635 497 635 c 0,103,104
 499 635 499 635 502 633 c 128,-1,105
 505 631 505 631 505 629 c 0,106,107
 505 625 505 625 500 620 c 256,93,94
EndSplineSet
EndChar

StartChar: C
Encoding: 67 67 43
Width: 1284
Flags: W
LayerCount: 2
Fore
SplineSet
688 584 m 0
 648 584 648 584 619.5 612 c 0
 591 640 591 640 591 684 c 0
 591 708 591 708 599.5 729.5 c 0
 608 751 608 751 623 766.5 c 0
 638 782 638 782 659 791.5 c 0
 680 801 680 801 705 801 c 0
 725 801 725 801 742 792.5 c 0
 759 784 759 784 771 769 c 0
 783 754 783 754 789.5 735 c 0
 796 716 796 716 796 695 c 0
 796 668 796 668 787.5 647.5 c 0
 779 627 779 627 764 613 c 0
 749 599 749 599 729.5 591.5 c 0
 710 584 710 584 688 584 c 0
651 757 m 0
 658 764 658 764 659.5 769 c 0
 661 774 661 774 659 774 c 0
 651 774 651 774 642 766.5 c 0
 633 759 633 759 625.5 748.5 c 0
 618 738 618 738 613 726 c 0
 608 714 608 714 608 704 c 0
 608 702 608 702 609.5 696 c 0
 611 690 611 690 614 690 c 0
 618 690 618 690 624 712 c 0
 627 726 627 726 635 737.5 c 0
 643 749 643 749 651 757 c 0
692 641 m 0
 704 641 704 641 720.5 655 c 0
 737 669 737 669 737 695 c 0
 737 715 737 715 726.5 728.5 c 0
 716 742 716 742 699 742 c 256
 682 742 682 742 668 728.5 c 0
 654 715 654 715 654 691 c 256
 654 667 654 667 665 654 c 0
 676 641 676 641 692 641 c 0
EndSplineSet
Refer: 69 99 N 1 0 0 1 0 -15 2
EndChar

StartChar: D
Encoding: 68 68 44
Width: 1284
Flags: W
LayerCount: 2
Fore
SplineSet
542.5 0 m 2,0,1
 524.5 0 524.5 0 508 4 c 128,-1,2
 491.5 8 491.5 8 479 18 c 128,-1,3
 466.5 28 466.5 28 459 45 c 128,-1,4
 451.5 62 451.5 62 451.5 88 c 2,5,-1
 451.5 516 l 2,6,7
 451.5 543 451.5 543 461 562.5 c 128,-1,8
 470.5 582 470.5 582 486 594.5 c 128,-1,9
 501.5 607 501.5 607 522.5 612.5 c 128,-1,10
 543.5 618 543.5 618 566.5 618 c 2,11,-1
 611.5 618 l 2,12,13
 654.5 618 654.5 618 694.5 598.5 c 128,-1,14
 734.5 579 734.5 579 765 541.5 c 128,-1,15
 795.5 504 795.5 504 814 449.5 c 128,-1,16
 832.5 395 832.5 395 832.5 326 c 0,17,18
 832.5 253 832.5 253 813.5 192.5 c 128,-1,19
 794.5 132 794.5 132 762.5 89.5 c 128,-1,20
 730.5 47 730.5 47 687.5 23.5 c 128,-1,21
 644.5 0 644.5 0 597.5 0 c 2,22,-1
 542.5 0 l 2,0,1
592.5 96 m 2,23,24
 618.5 96 618.5 96 641.5 112.5 c 128,-1,25
 664.5 129 664.5 129 681 159.5 c 128,-1,26
 697.5 190 697.5 190 707 233 c 128,-1,27
 716.5 276 716.5 276 716.5 329 c 0,28,29
 716.5 424 716.5 424 686.5 472 c 128,-1,30
 656.5 520 656.5 520 608.5 520 c 2,31,-1
 593.5 520 l 2,32,33
 576.5 520 576.5 520 571 512.5 c 128,-1,34
 565.5 505 565.5 505 565.5 480 c 2,35,-1
 565.5 132 l 2,36,37
 565.5 112 565.5 112 569 104 c 128,-1,38
 572.5 96 572.5 96 579.5 96 c 2,39,-1
 592.5 96 l 2,23,24
482.5 83 m 0,40,41
 486.5 83 486.5 83 488 93.5 c 128,-1,42
 489.5 104 489.5 104 489.5 117.5 c 128,-1,43
 489.5 131 489.5 131 489 143.5 c 128,-1,44
 488.5 156 488.5 156 488.5 161 c 0,45,46
 488.5 216 488.5 216 482.5 216 c 0,47,48
 479.5 216 479.5 216 476.5 203.5 c 128,-1,49
 473.5 191 473.5 191 473.5 161 c 0,50,51
 473.5 116 473.5 116 474 99.5 c 128,-1,52
 474.5 83 474.5 83 482.5 83 c 0,40,41
481.5 69 m 0,53,54
 474.5 69 474.5 69 474.5 58 c 0,55,56
 474.5 40 474.5 40 482.5 40 c 0,57,58
 485.5 40 485.5 40 487.5 46 c 128,-1,59
 489.5 52 489.5 52 489.5 58 c 0,60,61
 489.5 69 489.5 69 481.5 69 c 0,53,54
EndSplineSet

EndChar

StartChar: E
Encoding: 69 69 45
Width: 1284
Flags: W
LayerCount: 2
Fore
SplineSet
527 333.5 m 0,0,1
 515 349.5 515 349.5 506 365 c 128,-1,2
 497 380.5 497 380.5 495 395.5 c 0,3,4
 492 409.5 492 409.5 486 408.5 c 0,5,6
 478 408.5 478 408.5 481 390.5 c 0,7,8
 482 381.5 482 381.5 486.5 368.5 c 128,-1,9
 491 355.5 491 355.5 497 344.5 c 128,-1,10
 503 333.5 503 333.5 511 326 c 128,-1,11
 519 318.5 519 318.5 528 319.5 c 0,12,13
 536 321.5 536 321.5 527 333.5 c 0,0,1
513 60 m 0,14,15
 501 76 501 76 492 91.5 c 128,-1,16
 483 107 483 107 481 122 c 0,17,18
 478 136 478 136 472 135 c 0,19,20
 464 135 464 135 467 117 c 0,21,22
 468 108 468 108 472.5 95 c 128,-1,23
 477 82 477 82 483 71 c 128,-1,24
 489 60 489 60 497 52.5 c 128,-1,25
 505 45 505 45 514 46 c 0,26,27
 522 48 522 48 513 60 c 0,14,15
751 315 m 1,28,-1
 751 243 l 1,29,-1
 678 243 l 2,30,31
 627 243 627 243 593.5 232.5 c 128,-1,32
 560 222 560 222 543.5 202 c 128,-1,33
 527 182 527 182 527 151 c 0,34,35
 527 118 527 118 546 98.5 c 128,-1,36
 565 79 565 79 597 70.5 c 128,-1,37
 629 62 629 62 669 62 c 0,38,39
 725 62 725 62 767.5 75 c 128,-1,40
 810 88 810 88 843 104 c 1,41,-1
 843 27 l 1,42,43
 812 11 812 11 769 0.5 c 128,-1,44
 726 -10 726 -10 664 -10 c 0,45,46
 549 -10 549 -10 494 34.5 c 128,-1,47
 439 79 439 79 439 146 c 0,48,49
 439 186 439 186 455.5 211.5 c 128,-1,50
 472 237 472 237 499 252.5 c 128,-1,51
 526 268 526 268 558 277 c 1,52,-1
 558 282 l 1,53,54
 513 296 513 296 485.5 325.5 c 128,-1,55
 458 355 458 355 458 404 c 0,56,57
 458 449 458 449 484.5 481 c 128,-1,58
 511 513 511 513 557.5 529.5 c 128,-1,59
 604 546 604 546 664 546 c 0,60,61
 722 546 722 546 763.5 536 c 128,-1,62
 805 526 805 526 845 508 c 1,63,-1
 812 438 l 1,64,65
 779 453 779 453 744.5 463 c 128,-1,66
 710 473 710 473 663 473 c 0,67,68
 603 473 603 473 572.5 454 c 128,-1,69
 542 435 542 435 542 397 c 0,70,71
 542 353 542 353 583.5 334 c 128,-1,72
 625 315 625 315 695 315 c 2,73,-1
 751 315 l 1,28,-1
EndSplineSet

EndChar

StartChar: F
Encoding: 70 70 46
Width: 1284
Flags: W
LayerCount: 2
Fore
SplineSet
553.5 0 m 0,0,1
 526.5 0 526.5 0 509 9.5 c 128,-1,2
 491.5 19 491.5 19 491.5 49 c 2,3,-1
 491.5 543 l 2,4,5
 491.5 582 491.5 582 520 599.5 c 128,-1,6
 548.5 617 548.5 617 593.5 617 c 2,7,-1
 763.5 616 l 2,8,9
 774.5 616 774.5 616 783.5 604.5 c 128,-1,10
 792.5 593 792.5 593 792.5 579 c 0,11,12
 792.5 572 792.5 572 791 561.5 c 128,-1,13
 789.5 551 789.5 551 786.5 541.5 c 128,-1,14
 783.5 532 783.5 532 779 525.5 c 128,-1,15
 774.5 519 774.5 519 768.5 519 c 2,16,-1
 631.5 520 l 2,17,18
 605.5 520 605.5 520 605.5 494 c 2,19,-1
 605.5 345 l 2,20,21
 605.5 335 605.5 335 612 330.5 c 128,-1,22
 618.5 326 618.5 326 628.5 326 c 2,23,-1
 734.5 329 l 2,24,25
 742.5 329 742.5 329 748.5 324 c 128,-1,26
 754.5 319 754.5 319 759.5 310.5 c 128,-1,27
 764.5 302 764.5 302 767 293 c 128,-1,28
 769.5 284 769.5 284 769.5 276 c 0,29,30
 769.5 237 769.5 237 731.5 236 c 2,31,-1
 625.5 233 l 2,32,33
 617.5 233 617.5 233 611.5 227 c 128,-1,34
 605.5 221 605.5 221 605.5 213 c 2,35,-1
 605.5 48 l 2,36,37
 605.5 32 605.5 32 601 22.5 c 128,-1,38
 596.5 13 596.5 13 589 8 c 128,-1,39
 581.5 3 581.5 3 572 1.5 c 128,-1,40
 562.5 0 562.5 0 553.5 0 c 0,0,1
541.5 26 m 0,41,42
 540.5 31 540.5 31 532 42 c 128,-1,43
 523.5 53 523.5 53 521.5 78 c 0,44,45
 519.5 91 519.5 91 516 94 c 128,-1,46
 512.5 97 512.5 97 510.5 97 c 256,47,48
 508.5 97 508.5 97 507 91 c 128,-1,49
 505.5 85 505.5 85 507.5 75 c 0,50,51
 507.5 70 507.5 70 509.5 60.5 c 128,-1,52
 511.5 51 511.5 51 515 41.5 c 128,-1,53
 518.5 32 518.5 32 523.5 25 c 128,-1,54
 528.5 18 528.5 18 535.5 19 c 0,55,56
 541.5 19 541.5 19 541.5 26 c 0,41,42
EndSplineSet

EndChar

StartChar: G
Encoding: 71 71 47
Width: 1284
Flags: W
LayerCount: 2
Fore
SplineSet
672 621 m 0,0,1
 632 621 632 621 603.5 649 c 128,-1,2
 575 677 575 677 575 721 c 0,3,4
 575 745 575 745 583.5 766.5 c 128,-1,5
 592 788 592 788 607 803.5 c 128,-1,6
 622 819 622 819 643 828.5 c 128,-1,7
 664 838 664 838 689 838 c 0,8,9
 709 838 709 838 726 829.5 c 128,-1,10
 743 821 743 821 755 806 c 128,-1,11
 767 791 767 791 773.5 772 c 128,-1,12
 780 753 780 753 780 732 c 0,13,14
 780 705 780 705 771.5 684.5 c 128,-1,15
 763 664 763 664 748 650 c 128,-1,16
 733 636 733 636 713.5 628.5 c 128,-1,17
 694 621 694 621 672 621 c 0,0,1
635 794 m 0,18,19
 642 801 642 801 643.5 806 c 128,-1,20
 645 811 645 811 643 811 c 0,21,22
 635 811 635 811 626 803.5 c 128,-1,23
 617 796 617 796 609.5 785.5 c 128,-1,24
 602 775 602 775 597 763 c 128,-1,25
 592 751 592 751 592 741 c 0,26,27
 592 739 592 739 593.5 733 c 128,-1,28
 595 727 595 727 598 727 c 0,29,30
 602 727 602 727 608 749 c 0,31,32
 611 763 611 763 619 774.5 c 128,-1,33
 627 786 627 786 635 794 c 0,18,19
676 678 m 0,34,35
 688 678 688 678 704.5 692 c 128,-1,36
 721 706 721 706 721 732 c 0,37,38
 721 752 721 752 710.5 765.5 c 128,-1,39
 700 779 700 779 683 779 c 256,40,41
 666 779 666 779 652 765.5 c 128,-1,42
 638 752 638 752 638 728 c 256,43,44
 638 704 638 704 649 691 c 128,-1,45
 660 678 660 678 676 678 c 0,34,35
641 -37 m 0,46,47
 578 -37 578 -37 537.5 -4 c 128,-1,48
 497 29 497 29 474 79 c 128,-1,49
 451 129 451 129 442.5 187 c 128,-1,50
 434 245 434 245 434 296 c 0,51,52
 434 352 434 352 447.5 405.5 c 128,-1,53
 461 459 461 459 489.5 500.5 c 128,-1,54
 518 542 518 542 563.5 567.5 c 128,-1,55
 609 593 609 593 673 593 c 0,56,57
 700 593 700 593 729.5 587 c 128,-1,58
 759 581 759 581 783.5 564.5 c 128,-1,59
 808 548 808 548 824.5 520 c 128,-1,60
 841 492 841 492 841 448 c 0,61,62
 841 432 841 432 834.5 422.5 c 128,-1,63
 828 413 828 413 818.5 407.5 c 128,-1,64
 809 402 809 402 799 400.5 c 128,-1,65
 789 399 789 399 783 399 c 0,66,67
 769 399 769 399 756.5 409 c 128,-1,68
 744 419 744 419 744 448 c 0,69,70
 744 471 744 471 736 483 c 128,-1,71
 728 495 728 495 717 500.5 c 128,-1,72
 706 506 706 506 695.5 507 c 128,-1,73
 685 508 685 508 679 508 c 0,74,75
 653 508 653 508 630 492.5 c 128,-1,76
 607 477 607 477 589.5 448 c 128,-1,77
 572 419 572 419 562 377 c 128,-1,78
 552 335 552 335 552 282 c 0,79,80
 552 253 552 253 555.5 213 c 128,-1,81
 559 173 559 173 571 137 c 128,-1,82
 583 101 583 101 605 75.5 c 128,-1,83
 627 50 627 50 663 50 c 0,84,85
 686 50 686 50 703 65 c 128,-1,86
 720 80 720 80 731.5 102 c 128,-1,87
 743 124 743 124 749 148.5 c 128,-1,88
 755 173 755 173 754 192 c 0,89,90
 753 208 753 208 734.5 209.5 c 128,-1,91
 716 211 716 211 693 211 c 2,92,-1
 631 211 l 2,93,94
 625 211 625 211 620 217 c 128,-1,95
 615 223 615 223 612 231.5 c 128,-1,96
 609 240 609 240 607 249 c 128,-1,97
 605 258 605 258 605 264 c 0,98,99
 605 280 605 280 615.5 292.5 c 128,-1,100
 626 305 626 305 649 305 c 2,101,-1
 774 304 l 2,102,103
 787 304 787 304 800.5 298.5 c 128,-1,104
 814 293 814 293 824.5 282.5 c 128,-1,105
 835 272 835 272 842 255.5 c 128,-1,106
 849 239 849 239 849 216 c 0,107,108
 849 181 849 181 849.5 151 c 128,-1,109
 850 121 850 121 850 77 c 0,110,111
 850 43 850 43 847.5 22 c 128,-1,112
 845 1 845 1 839 -11 c 128,-1,113
 833 -23 833 -23 824.5 -27.5 c 128,-1,114
 816 -32 816 -32 804 -32 c 0,115,116
 787 -32 787 -32 779 -19.5 c 128,-1,117
 771 -7 771 -7 767.5 8 c 128,-1,118
 764 23 764 23 763 35.5 c 128,-1,119
 762 48 762 48 759 48 c 256,120,121
 756 48 756 48 750 34.5 c 128,-1,122
 744 21 744 21 731 5.5 c 128,-1,123
 718 -10 718 -10 697 -23.5 c 128,-1,124
 676 -37 676 -37 641 -37 c 0,46,47
546 44 m 0,125,126
 546 49 546 49 530 72 c 0,127,128
 523 83 523 83 516 97.5 c 128,-1,129
 509 112 509 112 504 126 c 128,-1,130
 499 140 499 140 496 152 c 128,-1,131
 493 164 493 164 494 168 c 0,132,133
 495 173 495 173 492 175.5 c 128,-1,134
 489 178 489 178 488 178 c 0,135,136
 480 178 480 178 478 167 c 256,137,138
 476 156 476 156 481.5 135 c 128,-1,139
 487 114 487 114 496.5 93 c 128,-1,140
 506 72 506 72 517.5 56 c 128,-1,141
 529 40 529 40 538 39 c 0,142,143
 545 37 545 37 546 44 c 0,125,126
809 -7 m 0,144,145
 809 1 809 1 801 6.5 c 128,-1,146
 793 12 793 12 792 24 c 0,147,148
 792 27 792 27 791.5 35 c 128,-1,149
 791 43 791 43 786 43 c 256,150,151
 781 43 781 43 780 36.5 c 128,-1,152
 779 30 779 30 779 25 c 256,153,154
 779 20 779 20 780.5 12.5 c 128,-1,155
 782 5 782 5 785 -1.5 c 128,-1,156
 788 -8 788 -8 792 -13 c 128,-1,157
 796 -18 796 -18 801 -18 c 256,158,159
 806 -18 806 -18 807.5 -14 c 128,-1,160
 809 -10 809 -10 809 -7 c 0,144,145
566 27 m 0,161,162
 567 30 567 30 564.5 32.5 c 128,-1,163
 562 35 562 35 560 35 c 0,164,165
 556 36 556 36 554.5 33 c 128,-1,166
 553 30 553 30 552 28 c 0,167,168
 551 23 551 23 553.5 21.5 c 128,-1,169
 556 20 556 20 558 20 c 0,170,171
 564 20 564 20 566 27 c 0,161,162
EndSplineSet
EndChar

StartChar: H
Encoding: 72 72 48
Width: 1284
Flags: W
LayerCount: 2
Fore
SplineSet
761 0 m 256,0,1
 744 0 744 0 734 9.5 c 128,-1,2
 724 19 724 19 719 33 c 128,-1,3
 714 47 714 47 712.5 63 c 128,-1,4
 711 79 711 79 711 92 c 2,5,-1
 711 238 l 2,6,7
 711 242 711 242 711 247 c 128,-1,8
 711 252 711 252 710 256.5 c 128,-1,9
 709 261 709 261 706 263.5 c 128,-1,10
 703 266 703 266 698 264 c 2,11,-1
 591 233 l 2,12,13
 582 231 582 231 577.5 229 c 128,-1,14
 573 227 573 227 573 217 c 2,15,-1
 573 105 l 2,16,17
 573 93 573 93 571 75 c 128,-1,18
 569 57 569 57 563.5 40.5 c 128,-1,19
 558 24 558 24 548 12 c 128,-1,20
 538 0 538 0 521 0 c 0,21,22
 500 0 500 0 488 10.5 c 128,-1,23
 476 21 476 21 470 37 c 128,-1,24
 464 53 464 53 462.5 71 c 128,-1,25
 461 89 461 89 461 105 c 2,26,-1
 461 542 l 2,27,28
 461 567 461 567 475.5 589.5 c 128,-1,29
 490 612 490 612 518 612 c 0,30,31
 532 612 532 612 542.5 605.5 c 128,-1,32
 553 599 553 599 560 588.5 c 128,-1,33
 567 578 567 578 570 565 c 128,-1,34
 573 552 573 552 573 540 c 2,35,-1
 573 339 l 2,36,37
 573 332 573 332 575 324.5 c 128,-1,38
 577 317 577 317 586 319 c 2,39,-1
 700 349 l 2,40,41
 709 351 709 351 710 356 c 128,-1,42
 711 361 711 361 711 368 c 2,43,-1
 711 540 l 2,44,45
 711 551 711 551 712.5 564 c 128,-1,46
 714 577 714 577 719 588.5 c 128,-1,47
 724 600 724 600 733 608 c 128,-1,48
 742 616 742 616 756 616 c 0,49,50
 789 616 789 616 806 591.5 c 128,-1,51
 823 567 823 567 823 537 c 2,52,-1
 823 91 l 2,53,54
 823 78 823 78 819.5 62 c 128,-1,55
 816 46 816 46 808.5 32 c 128,-1,56
 801 18 801 18 789.5 9 c 128,-1,57
 778 0 778 0 761 0 c 256,0,1
732 552 m 256,58,59
 735 552 735 552 739.5 558 c 128,-1,60
 744 564 744 564 748 571.5 c 128,-1,61
 752 579 752 579 754.5 586.5 c 128,-1,62
 757 594 757 594 757 597 c 256,63,64
 757 600 757 600 753 600 c 0,65,66
 741 600 741 600 734 586 c 128,-1,67
 727 572 727 572 727 562 c 0,68,69
 727 560 727 560 728 556 c 128,-1,70
 729 552 729 552 732 552 c 256,58,59
503 30 m 1,71,72
 502 36 502 36 500 40.5 c 128,-1,73
 498 45 498 45 495.5 50.5 c 128,-1,74
 493 56 493 56 491.5 64.5 c 128,-1,75
 490 73 490 73 490 86 c 0,76,77
 490 90 490 90 489 96.5 c 128,-1,78
 488 103 488 103 483 103 c 0,79,80
 479 103 479 103 478 96 c 128,-1,81
 477 89 477 89 477 86 c 0,82,83
 477 82 477 82 478 72 c 128,-1,84
 479 62 479 62 481 52 c 128,-1,85
 483 42 483 42 487 34.5 c 128,-1,86
 491 27 491 27 497 27 c 2,87,-1
 503 30 l 1,71,72
752 20 m 0,88,89
 752 22 752 22 751 23 c 128,-1,90
 750 24 750 24 749 26 c 0,91,92
 742 35 742 35 738 50.5 c 128,-1,93
 734 66 734 66 734 77 c 1,94,-1
 732 81 l 1,95,96
 727 81 727 81 726 71 c 128,-1,97
 725 61 725 61 725 58 c 0,98,99
 725 47 725 47 729.5 32 c 128,-1,100
 734 17 734 17 749 17 c 0,101,102
 752 17 752 17 752 20 c 0,88,89
EndSplineSet
EndChar

StartChar: I
Encoding: 73 73 49
Width: 1284
Flags: W
LayerCount: 2
Fore
SplineSet
509 484 m 1,0,-1
 619 792 l 1,1,-1
 669 792 l 1,2,-1
 775 484 l 1,3,-1
 697 484 l 1,4,-1
 645 699 l 1,5,-1
 587 484 l 1,6,-1
 509 484 l 1,0,-1
637 -4 m 256,7,8
 613 -4 613 -4 600 6.5 c 128,-1,9
 587 17 587 17 587 32 c 2,10,-1
 587 387 l 2,11,12
 587 396 587 396 589.5 408 c 128,-1,13
 592 420 592 420 597.5 430 c 128,-1,14
 603 440 603 440 612.5 447 c 128,-1,15
 622 454 622 454 637 454 c 256,16,17
 652 454 652 454 662.5 448 c 128,-1,18
 673 442 673 442 679.5 433 c 128,-1,19
 686 424 686 424 689.5 413 c 128,-1,20
 693 402 693 402 693 392 c 2,21,-1
 693 32 l 2,22,23
 693 16 693 16 677 6 c 128,-1,24
 661 -4 661 -4 637 -4 c 256,7,8
605 359 m 0,25,26
 608 359 608 359 609 365 c 128,-1,27
 610 371 610 371 610 379.5 c 128,-1,28
 610 388 610 388 610.5 397.5 c 128,-1,29
 611 407 611 407 613 413 c 0,30,31
 614 417 614 417 616 424 c 128,-1,32
 618 431 618 431 615 431 c 0,33,34
 610 431 610 431 606.5 425.5 c 128,-1,35
 603 420 603 420 600.5 412.5 c 128,-1,36
 598 405 598 405 597 396.5 c 128,-1,37
 596 388 596 388 596 383 c 0,38,39
 596 376 596 376 598 367.5 c 128,-1,40
 600 359 600 359 605 359 c 0,25,26
EndSplineSet
EndChar

StartChar: J
Encoding: 74 74 50
Width: 1284
Flags: W
LayerCount: 2
Fore
SplineSet
645 -8 m 0,0,1
 600 -8 600 -8 568 4.5 c 128,-1,2
 536 17 536 17 516 38.5 c 128,-1,3
 496 60 496 60 487 88.5 c 128,-1,4
 478 117 478 117 478 149 c 0,5,6
 478 203 478 203 491 221.5 c 128,-1,7
 504 240 504 240 520 240 c 0,8,9
 528 240 528 240 537 238 c 128,-1,10
 546 236 546 236 554 230.5 c 128,-1,11
 562 225 562 225 567 215 c 128,-1,12
 572 205 572 205 572 188 c 0,13,14
 572 172 572 172 573.5 153 c 128,-1,15
 575 134 575 134 580.5 118 c 128,-1,16
 586 102 586 102 597 91.5 c 128,-1,17
 608 81 608 81 628 81 c 0,18,19
 646 81 646 81 658 86 c 128,-1,20
 670 91 670 91 677.5 104.5 c 128,-1,21
 685 118 685 118 688 141 c 128,-1,22
 691 164 691 164 691 199 c 0,23,24
 691 237 691 237 691.5 290 c 128,-1,25
 692 343 692 343 692 412 c 2,26,-1
 692 517 l 2,27,28
 692 525 692 525 684.5 530.5 c 128,-1,29
 677 536 677 536 669 536 c 2,30,-1
 628 536 l 2,31,32
 574 536 574 536 551.5 546 c 128,-1,33
 529 556 529 556 529 579 c 0,34,35
 529 594 529 594 537 601.5 c 128,-1,36
 545 609 545 609 563 612 c 128,-1,37
 581 615 581 615 610 615.5 c 128,-1,38
 639 616 639 616 681 616 c 0,39,40
 741 616 741 616 770.5 609 c 128,-1,41
 800 602 800 602 805 584 c 0,42,43
 806 581 806 581 806 558.5 c 128,-1,44
 806 536 806 536 806 502.5 c 128,-1,45
 806 469 806 469 805.5 429.5 c 128,-1,46
 805 390 805 390 805 353 c 0,47,48
 804 289 804 289 804 247 c 128,-1,49
 804 205 804 205 803.5 177 c 128,-1,50
 803 149 803 149 800.5 129.5 c 128,-1,51
 798 110 798 110 793 90 c 0,52,53
 786 65 786 65 770 46.5 c 128,-1,54
 754 28 754 28 733 16 c 128,-1,55
 712 4 712 4 689 -2 c 128,-1,56
 666 -8 666 -8 645 -8 c 0,0,1
585 594 m 0,57,58
 587 599 587 599 583 600 c 0,59,60
 576 602 576 602 562.5 598 c 128,-1,61
 549 594 549 594 547 587 c 0,62,63
 546 584 546 584 547 580.5 c 128,-1,64
 548 577 548 577 550 576 c 0,65,66
 558 574 558 574 570.5 581 c 128,-1,67
 583 588 583 588 585 594 c 0,57,58
499 144 m 0,68,69
 504 145 504 145 505.5 157 c 128,-1,70
 507 169 507 169 508 173 c 0,71,72
 510 183 510 183 512.5 194 c 128,-1,73
 515 205 515 205 522 214 c 0,74,75
 527 219 527 219 526 223 c 0,76,77
 526 225 526 225 524 226.5 c 128,-1,78
 522 228 522 228 520 227 c 0,79,80
 511 226 511 226 505 217 c 128,-1,81
 499 208 499 208 496 197 c 128,-1,82
 493 186 493 186 492 176 c 128,-1,83
 491 166 491 166 491 163 c 0,84,85
 492 155 492 155 494 149 c 128,-1,86
 496 143 496 143 499 144 c 0,68,69
EndSplineSet
EndChar

StartChar: K
Encoding: 75 75 51
Width: 1284
Flags: W
LayerCount: 2
Fore
SplineSet
593.5 575 m 0,0,1
 553.5 575 553.5 575 525 603 c 128,-1,2
 496.5 631 496.5 631 496.5 675 c 0,3,4
 496.5 699 496.5 699 505 720.5 c 128,-1,5
 513.5 742 513.5 742 528.5 757.5 c 128,-1,6
 543.5 773 543.5 773 564.5 782.5 c 128,-1,7
 585.5 792 585.5 792 610.5 792 c 0,8,9
 630.5 792 630.5 792 647.5 783.5 c 128,-1,10
 664.5 775 664.5 775 676.5 760 c 128,-1,11
 688.5 745 688.5 745 695 726 c 128,-1,12
 701.5 707 701.5 707 701.5 686 c 0,13,14
 701.5 659 701.5 659 693 638.5 c 128,-1,15
 684.5 618 684.5 618 669.5 604 c 128,-1,16
 654.5 590 654.5 590 635 582.5 c 128,-1,17
 615.5 575 615.5 575 593.5 575 c 0,0,1
556.5 748 m 0,18,19
 563.5 755 563.5 755 565 760 c 128,-1,20
 566.5 765 566.5 765 564.5 765 c 0,21,22
 556.5 765 556.5 765 547.5 757.5 c 128,-1,23
 538.5 750 538.5 750 531 739.5 c 128,-1,24
 523.5 729 523.5 729 518.5 717 c 128,-1,25
 513.5 705 513.5 705 513.5 695 c 0,26,27
 513.5 693 513.5 693 515 687 c 128,-1,28
 516.5 681 516.5 681 519.5 681 c 0,29,30
 523.5 681 523.5 681 529.5 703 c 0,31,32
 532.5 717 532.5 717 540.5 728.5 c 128,-1,33
 548.5 740 548.5 740 556.5 748 c 0,18,19
597.5 632 m 0,34,35
 609.5 632 609.5 632 626 646 c 128,-1,36
 642.5 660 642.5 660 642.5 686 c 0,37,38
 642.5 706 642.5 706 632 719.5 c 128,-1,39
 621.5 733 621.5 733 604.5 733 c 256,40,41
 587.5 733 587.5 733 573.5 719.5 c 128,-1,42
 559.5 706 559.5 706 559.5 682 c 256,43,44
 559.5 658 559.5 658 570.5 645 c 128,-1,45
 581.5 632 581.5 632 597.5 632 c 0,34,35
508.5 0 m 0,46,47
 487.5 0 487.5 0 477.5 11 c 128,-1,48
 467.5 22 467.5 22 464 38.5 c 128,-1,49
 460.5 55 460.5 55 460.5 73 c 128,-1,50
 460.5 91 460.5 91 460.5 105 c 2,51,-1
 460.5 204 l 1,52,-1
 459.5 402 l 1,53,-1
 459.5 428 l 2,54,55
 459.5 455 459.5 455 461.5 476 c 128,-1,56
 463.5 497 463.5 497 469.5 512 c 128,-1,57
 475.5 527 475.5 527 487 535 c 128,-1,58
 498.5 543 498.5 543 518.5 543 c 0,59,60
 541.5 543 541.5 543 559 524.5 c 128,-1,61
 576.5 506 576.5 506 576.5 476 c 0,62,63
 576.5 471 576.5 471 576 456 c 128,-1,64
 575.5 441 575.5 441 575.5 421 c 2,65,-1
 575.5 429 l 1,66,-1
 575.5 410 l 2,67,68
 575.5 391 575.5 391 577 379 c 128,-1,69
 578.5 367 578.5 367 580.5 367 c 0,70,71
 584.5 367 584.5 367 596 385.5 c 128,-1,72
 607.5 404 607.5 404 623 431.5 c 128,-1,73
 638.5 459 638.5 459 656.5 491.5 c 128,-1,74
 674.5 524 674.5 524 692.5 551.5 c 128,-1,75
 710.5 579 710.5 579 727 597.5 c 128,-1,76
 743.5 616 743.5 616 754.5 616 c 0,77,78
 763.5 616 763.5 616 774.5 613 c 128,-1,79
 785.5 610 785.5 610 794.5 604 c 128,-1,80
 803.5 598 803.5 598 809.5 589 c 128,-1,81
 815.5 580 815.5 580 815.5 567 c 0,82,83
 815.5 559 815.5 559 804.5 537.5 c 128,-1,84
 793.5 516 793.5 516 777.5 489 c 128,-1,85
 761.5 462 761.5 462 742.5 432 c 128,-1,86
 723.5 402 723.5 402 707.5 376.5 c 128,-1,87
 691.5 351 691.5 351 680.5 333.5 c 128,-1,88
 669.5 316 669.5 316 669.5 313 c 0,89,90
 669.5 309 669.5 309 681 290 c 128,-1,91
 692.5 271 692.5 271 709.5 245 c 128,-1,92
 726.5 219 726.5 219 747 188.5 c 128,-1,93
 767.5 158 767.5 158 784.5 130 c 128,-1,94
 801.5 102 801.5 102 813 80 c 128,-1,95
 824.5 58 824.5 58 824.5 48 c 0,96,97
 824.5 35 824.5 35 816 26 c 128,-1,98
 807.5 17 807.5 17 795.5 11 c 128,-1,99
 783.5 5 783.5 5 771.5 2 c 128,-1,100
 759.5 -1 759.5 -1 751.5 -1 c 0,101,102
 737.5 -1 737.5 -1 722.5 17.5 c 128,-1,103
 707.5 36 707.5 36 695.5 57 c 0,104,105
 691.5 64 691.5 64 683 80.5 c 128,-1,106
 674.5 97 674.5 97 663 118 c 128,-1,107
 651.5 139 651.5 139 639 161.5 c 128,-1,108
 626.5 184 626.5 184 615 203 c 128,-1,109
 603.5 222 603.5 222 595 234 c 128,-1,110
 586.5 246 586.5 246 582.5 246 c 0,111,112
 574.5 246 574.5 246 574.5 234.5 c 128,-1,113
 574.5 223 574.5 223 574.5 215 c 2,114,-1
 574.5 164 l 1,115,-1
 575.5 125 l 1,116,-1
 575.5 102 l 2,117,118
 575.5 51 575.5 51 559.5 25.5 c 128,-1,119
 543.5 0 543.5 0 508.5 0 c 0,46,47
478.5 488 m 0,120,121
 483.5 487 483.5 487 488 491 c 128,-1,122
 492.5 495 492.5 495 496 500.5 c 128,-1,123
 499.5 506 499.5 506 502.5 512.5 c 128,-1,124
 505.5 519 505.5 519 506.5 523 c 0,125,126
 507.5 526 507.5 526 504.5 528.5 c 128,-1,127
 501.5 531 501.5 531 498.5 531 c 0,128,129
 494.5 531 494.5 531 490.5 526 c 128,-1,130
 486.5 521 486.5 521 483 514.5 c 128,-1,131
 479.5 508 479.5 508 477.5 501.5 c 128,-1,132
 475.5 495 475.5 495 475.5 492 c 0,133,134
 475.5 488 475.5 488 478.5 488 c 0,120,121
728.5 558 m 0,135,136
 731.5 558 731.5 558 737.5 562.5 c 128,-1,137
 743.5 567 743.5 567 749.5 573 c 128,-1,138
 755.5 579 755.5 579 759.5 585.5 c 128,-1,139
 763.5 592 763.5 592 762.5 596 c 0,140,141
 762.5 600 762.5 600 758.5 600 c 0,142,143
 755.5 601 755.5 601 749 596.5 c 128,-1,144
 742.5 592 742.5 592 736 585.5 c 128,-1,145
 729.5 579 729.5 579 725 573 c 128,-1,146
 720.5 567 720.5 567 721.5 564 c 0,147,148
 723.5 559 723.5 559 728.5 558 c 0,135,136
493.5 70 m 0,149,150
 493.5 74 493.5 74 493.5 84.5 c 128,-1,151
 493.5 95 493.5 95 492.5 106 c 128,-1,152
 491.5 117 491.5 117 489.5 125.5 c 128,-1,153
 487.5 134 487.5 134 483.5 134 c 0,154,155
 480.5 134 480.5 134 478 129 c 128,-1,156
 475.5 124 475.5 124 474.5 117 c 128,-1,157
 473.5 110 473.5 110 473 103.5 c 128,-1,158
 472.5 97 472.5 97 472.5 95 c 0,159,160
 472.5 91 472.5 91 472.5 82.5 c 128,-1,161
 472.5 74 472.5 74 474 65 c 128,-1,162
 475.5 56 475.5 56 478.5 49.5 c 128,-1,163
 481.5 43 481.5 43 487.5 43 c 0,164,165
 489.5 43 489.5 43 491 47 c 128,-1,166
 492.5 51 492.5 51 493 55.5 c 128,-1,167
 493.5 60 493.5 60 493.5 64.5 c 128,-1,168
 493.5 69 493.5 69 493.5 70 c 0,149,150
754.5 21 m 0,169,170
 754.5 24 754.5 24 751.5 30.5 c 128,-1,171
 748.5 37 748.5 37 744 43 c 128,-1,172
 739.5 49 739.5 49 734.5 54 c 128,-1,173
 729.5 59 729.5 59 726.5 59 c 0,174,175
 724.5 59 724.5 59 723.5 55.5 c 128,-1,176
 722.5 52 722.5 52 722.5 50 c 0,177,178
 722.5 47 722.5 47 725 41 c 128,-1,179
 727.5 35 727.5 35 731 29 c 128,-1,180
 734.5 23 734.5 23 739.5 19 c 128,-1,181
 744.5 15 744.5 15 748.5 15 c 0,182,183
 754.5 15 754.5 15 754.5 21 c 0,169,170
503.5 25 m 0,184,185
 505.5 29 505.5 29 502.5 32.5 c 128,-1,186
 499.5 36 499.5 36 495.5 36 c 0,187,188
 490.5 36 490.5 36 488 32.5 c 128,-1,189
 485.5 29 485.5 29 487.5 25 c 0,190,191
 489.5 17 489.5 17 495.5 17 c 256,192,193
 501.5 17 501.5 17 503.5 25 c 0,184,185
EndSplineSet
EndChar

StartChar: L
Encoding: 76 76 52
Width: 1284
Flags: W
LayerCount: 2
Fore
SplineSet
660 569 m 0,0,1
 620 569 620 569 591.5 597 c 128,-1,2
 563 625 563 625 563 669 c 0,3,4
 563 693 563 693 571.5 714.5 c 128,-1,5
 580 736 580 736 595 751.5 c 128,-1,6
 610 767 610 767 631 776.5 c 128,-1,7
 652 786 652 786 677 786 c 0,8,9
 697 786 697 786 714 777.5 c 128,-1,10
 731 769 731 769 743 754 c 128,-1,11
 755 739 755 739 761.5 720 c 128,-1,12
 768 701 768 701 768 680 c 0,13,14
 768 653 768 653 759.5 632.5 c 128,-1,15
 751 612 751 612 736 598 c 128,-1,16
 721 584 721 584 701.5 576.5 c 128,-1,17
 682 569 682 569 660 569 c 0,0,1
623 742 m 0,18,19
 630 749 630 749 631.5 754 c 128,-1,20
 633 759 633 759 631 759 c 0,21,22
 623 759 623 759 614 751.5 c 128,-1,23
 605 744 605 744 597.5 733.5 c 128,-1,24
 590 723 590 723 585 711 c 128,-1,25
 580 699 580 699 580 689 c 0,26,27
 580 687 580 687 581.5 681 c 128,-1,28
 583 675 583 675 586 675 c 0,29,30
 590 675 590 675 596 697 c 0,31,32
 599 711 599 711 607 722.5 c 128,-1,33
 615 734 615 734 623 742 c 0,18,19
664 626 m 0,34,35
 676 626 676 626 692.5 640 c 128,-1,36
 709 654 709 654 709 680 c 0,37,38
 709 700 709 700 698.5 713.5 c 128,-1,39
 688 727 688 727 671 727 c 256,40,41
 654 727 654 727 640 713.5 c 128,-1,42
 626 700 626 700 626 676 c 256,43,44
 626 652 626 652 637 639 c 128,-1,45
 648 626 648 626 664 626 c 0,34,35
533 0 m 2,46,47
 522 0 522 0 513.5 8 c 128,-1,48
 505 16 505 16 505 27 c 2,49,-1
 505 492 l 2,50,51
 505 503 505 503 506.5 514 c 128,-1,52
 508 525 508 525 514 534 c 128,-1,53
 520 543 520 543 531.5 549 c 128,-1,54
 543 555 543 555 563 555 c 0,55,56
 586 555 586 555 602.5 537 c 128,-1,57
 619 519 619 519 619 499 c 2,58,-1
 619 121 l 2,59,60
 619 103 619 103 626 98.5 c 128,-1,61
 633 94 633 94 642 94 c 0,62,63
 659 94 659 94 672.5 94.5 c 128,-1,64
 686 95 686 95 698.5 95.5 c 128,-1,65
 711 96 711 96 724.5 96.5 c 128,-1,66
 738 97 738 97 755 97 c 0,67,68
 769 97 769 97 774 82.5 c 128,-1,69
 779 68 779 68 779 54 c 0,70,71
 779 34 779 34 766.5 16.5 c 128,-1,72
 754 -1 754 -1 740 -1 c 2,73,-1
 693 -1 l 1,74,-1
 610 0 l 1,75,-1
 533 0 l 2,46,47
523 488 m 0,76,77
 526 488 526 488 530.5 494.5 c 128,-1,78
 535 501 535 501 539.5 510 c 128,-1,79
 544 519 544 519 547.5 527 c 128,-1,80
 551 535 551 535 551 538 c 0,81,82
 551 543 551 543 543 543 c 0,83,84
 538 543 538 543 533 536.5 c 128,-1,85
 528 530 528 530 524.5 522 c 128,-1,86
 521 514 521 514 519 506 c 128,-1,87
 517 498 517 498 518 494 c 0,88,89
 518 488 518 488 523 488 c 0,76,77
534 59 m 0,90,91
 539 59 539 59 541 70 c 128,-1,92
 543 81 543 81 544 96.5 c 128,-1,93
 545 112 545 112 544.5 128.5 c 128,-1,94
 544 145 544 145 544 155 c 0,95,96
 544 159 544 159 543.5 165 c 128,-1,97
 543 171 543 171 541.5 177 c 128,-1,98
 540 183 540 183 537.5 187 c 128,-1,99
 535 191 535 191 530 191 c 0,100,101
 527 191 527 191 525.5 182.5 c 128,-1,102
 524 174 524 174 523 163 c 128,-1,103
 522 152 522 152 522 142.5 c 128,-1,104
 522 133 522 133 522 130 c 256,105,106
 522 127 522 127 522.5 115.5 c 128,-1,107
 523 104 523 104 524.5 91.5 c 128,-1,108
 526 79 526 79 528 69 c 128,-1,109
 530 59 530 59 534 59 c 0,90,91
551 30 m 0,110,111
 551 41 551 41 544 41 c 0,112,113
 534 41 534 41 534 30 c 0,114,115
 534 22 534 22 542 22 c 0,116,117
 545 22 545 22 548 24 c 128,-1,118
 551 26 551 26 551 30 c 0,110,111
EndSplineSet
EndChar

StartChar: M
Encoding: 77 77 53
Width: 1284
Flags: W
LayerCount: 2
Fore
SplineSet
665.5 599 m 0,0,1
 625.5 599 625.5 599 597 627 c 128,-1,2
 568.5 655 568.5 655 568.5 699 c 0,3,4
 568.5 723 568.5 723 577 744.5 c 128,-1,5
 585.5 766 585.5 766 600.5 781.5 c 128,-1,6
 615.5 797 615.5 797 636.5 806.5 c 128,-1,7
 657.5 816 657.5 816 682.5 816 c 0,8,9
 702.5 816 702.5 816 719.5 807.5 c 128,-1,10
 736.5 799 736.5 799 748.5 784 c 128,-1,11
 760.5 769 760.5 769 767 750 c 128,-1,12
 773.5 731 773.5 731 773.5 710 c 0,13,14
 773.5 683 773.5 683 765 662.5 c 128,-1,15
 756.5 642 756.5 642 741.5 628 c 128,-1,16
 726.5 614 726.5 614 707 606.5 c 128,-1,17
 687.5 599 687.5 599 665.5 599 c 0,0,1
628.5 772 m 0,18,19
 635.5 779 635.5 779 637 784 c 128,-1,20
 638.5 789 638.5 789 636.5 789 c 0,21,22
 628.5 789 628.5 789 619.5 781.5 c 128,-1,23
 610.5 774 610.5 774 603 763.5 c 128,-1,24
 595.5 753 595.5 753 590.5 741 c 128,-1,25
 585.5 729 585.5 729 585.5 719 c 0,26,27
 585.5 717 585.5 717 587 711 c 128,-1,28
 588.5 705 588.5 705 591.5 705 c 0,29,30
 595.5 705 595.5 705 601.5 727 c 0,31,32
 604.5 741 604.5 741 612.5 752.5 c 128,-1,33
 620.5 764 620.5 764 628.5 772 c 0,18,19
669.5 656 m 0,34,35
 681.5 656 681.5 656 698 670 c 128,-1,36
 714.5 684 714.5 684 714.5 710 c 0,37,38
 714.5 730 714.5 730 704 743.5 c 128,-1,39
 693.5 757 693.5 757 676.5 757 c 256,40,41
 659.5 757 659.5 757 645.5 743.5 c 128,-1,42
 631.5 730 631.5 730 631.5 706 c 256,43,44
 631.5 682 631.5 682 642.5 669 c 128,-1,45
 653.5 656 653.5 656 669.5 656 c 0,34,35
417.5 0 m 0,46,47
 402.5 0 402.5 0 393.5 5.5 c 128,-1,48
 384.5 11 384.5 11 380 20 c 128,-1,49
 375.5 29 375.5 29 374 40.5 c 128,-1,50
 372.5 52 372.5 52 372.5 65 c 2,51,-1
 372.5 496 l 2,52,53
 372.5 507 372.5 507 373 520 c 128,-1,54
 373.5 533 373.5 533 377.5 544 c 128,-1,55
 381.5 555 381.5 555 390.5 562.5 c 128,-1,56
 399.5 570 399.5 570 415.5 570 c 0,57,58
 435.5 570 435.5 570 445.5 555.5 c 128,-1,59
 455.5 541 455.5 541 460 523 c 128,-1,60
 464.5 505 464.5 505 465.5 490.5 c 128,-1,61
 466.5 476 466.5 476 468.5 476 c 256,62,63
 470.5 476 470.5 476 474.5 491.5 c 128,-1,64
 478.5 507 478.5 507 489 525 c 128,-1,65
 499.5 543 499.5 543 518.5 558.5 c 128,-1,66
 537.5 574 537.5 574 570.5 574 c 0,67,68
 598.5 574 598.5 574 616.5 559 c 128,-1,69
 634.5 544 634.5 544 645.5 525.5 c 128,-1,70
 656.5 507 656.5 507 662.5 492 c 128,-1,71
 668.5 477 668.5 477 671.5 477 c 256,72,73
 674.5 477 674.5 477 680 492 c 128,-1,74
 685.5 507 685.5 507 696.5 525.5 c 128,-1,75
 707.5 544 707.5 544 727 559 c 128,-1,76
 746.5 574 746.5 574 778.5 574 c 0,77,78
 819.5 574 819.5 574 845.5 554 c 128,-1,79
 871.5 534 871.5 534 886 498.5 c 128,-1,80
 900.5 463 900.5 463 906 414.5 c 128,-1,81
 911.5 366 911.5 366 911.5 310 c 2,82,-1
 911.5 27 l 2,83,84
 911.5 13 911.5 13 892.5 6.5 c 128,-1,85
 873.5 0 873.5 0 853.5 0 c 256,86,87
 833.5 0 833.5 0 822.5 5.5 c 128,-1,88
 811.5 11 811.5 11 811.5 26 c 2,89,-1
 811.5 301 l 2,90,91
 811.5 313 811.5 313 811.5 341.5 c 128,-1,92
 811.5 370 811.5 370 807 400 c 128,-1,93
 802.5 430 802.5 430 792 452.5 c 128,-1,94
 781.5 475 781.5 475 760.5 475 c 0,95,96
 742.5 475 742.5 475 731 461 c 128,-1,97
 719.5 447 719.5 447 712.5 422.5 c 128,-1,98
 705.5 398 705.5 398 702 363.5 c 128,-1,99
 698.5 329 698.5 329 696.5 287 c 0,100,101
 693.5 238 693.5 238 692.5 211 c 128,-1,102
 691.5 184 691.5 184 692 141.5 c 128,-1,103
 692.5 99 692.5 99 693 69.5 c 128,-1,104
 693.5 40 693.5 40 693.5 31 c 0,105,106
 693.5 17 693.5 17 677 8.5 c 128,-1,107
 660.5 0 660.5 0 636.5 0 c 256,108,109
 612.5 0 612.5 0 602.5 7 c 128,-1,110
 592.5 14 592.5 14 592.5 38 c 2,111,-1
 592.5 301 l 2,112,113
 592.5 312 592.5 312 592.5 341 c 128,-1,114
 592.5 370 592.5 370 588.5 400 c 128,-1,115
 584.5 430 584.5 430 574.5 453 c 128,-1,116
 564.5 476 564.5 476 544.5 476 c 0,117,118
 526.5 476 526.5 476 514 460.5 c 128,-1,119
 501.5 445 501.5 445 493.5 421 c 128,-1,120
 485.5 397 485.5 397 481 367 c 128,-1,121
 476.5 337 476.5 337 474.5 309 c 128,-1,122
 472.5 281 472.5 281 472 257 c 128,-1,123
 471.5 233 471.5 233 471.5 221 c 2,124,-1
 471.5 45 l 2,125,126
 471.5 26 471.5 26 455.5 13 c 128,-1,127
 439.5 0 439.5 0 417.5 0 c 0,46,47
396.5 476 m 0,128,129
 402.5 477 402.5 477 403 487.5 c 128,-1,130
 403.5 498 403.5 498 403.5 506 c 0,131,132
 403.5 513 403.5 513 405.5 521.5 c 128,-1,133
 407.5 530 407.5 530 409 537 c 128,-1,134
 410.5 544 410.5 544 410.5 549 c 128,-1,135
 410.5 554 410.5 554 406.5 554 c 0,136,137
 399.5 554 399.5 554 395 547.5 c 128,-1,138
 390.5 541 390.5 541 388.5 532 c 128,-1,139
 386.5 523 386.5 523 385.5 515 c 128,-1,140
 384.5 507 384.5 507 384.5 504 c 0,141,142
 384.5 496 384.5 496 386.5 485.5 c 128,-1,143
 388.5 475 388.5 475 396.5 476 c 0,128,129
627.5 23 m 0,144,145
 627.5 33 627.5 33 621 36.5 c 128,-1,146
 614.5 40 614.5 40 614.5 51 c 0,147,148
 614.5 53 614.5 53 614.5 58.5 c 128,-1,149
 614.5 64 614.5 64 614 69.5 c 128,-1,150
 613.5 75 613.5 75 611.5 79.5 c 128,-1,151
 609.5 84 609.5 84 606.5 84 c 0,152,153
 604.5 84 604.5 84 603.5 79.5 c 128,-1,154
 602.5 75 602.5 75 602 69 c 128,-1,155
 601.5 63 601.5 63 601.5 57.5 c 128,-1,156
 601.5 52 601.5 52 601.5 50 c 0,157,158
 601.5 38 601.5 38 605 24.5 c 128,-1,159
 608.5 11 608.5 11 618.5 11 c 0,160,161
 627.5 11 627.5 11 627.5 23 c 0,144,145
843.5 24 m 0,162,163
 843.5 34 843.5 34 838 41.5 c 128,-1,164
 832.5 49 832.5 49 832.5 60 c 0,165,166
 832.5 64 832.5 64 832 74 c 128,-1,167
 831.5 84 831.5 84 825.5 84 c 0,168,169
 820.5 84 820.5 84 820 73 c 128,-1,170
 819.5 62 819.5 62 819.5 59 c 256,171,172
 819.5 56 819.5 56 820 48 c 128,-1,173
 820.5 40 820.5 40 822.5 32.5 c 128,-1,174
 824.5 25 824.5 25 827.5 19 c 128,-1,175
 830.5 13 830.5 13 835.5 13 c 0,176,177
 839.5 13 839.5 13 841.5 17.5 c 128,-1,178
 843.5 22 843.5 22 843.5 24 c 0,162,163
415.5 24 m 0,179,180
 415.5 35 415.5 35 411 36 c 128,-1,181
 406.5 37 406.5 37 401.5 44 c 0,182,183
 400.5 46 400.5 46 400 51.5 c 128,-1,184
 399.5 57 399.5 57 399.5 62.5 c 128,-1,185
 399.5 68 399.5 68 398 72.5 c 128,-1,186
 396.5 77 396.5 77 393.5 77 c 0,187,188
 388.5 77 388.5 77 388 67.5 c 128,-1,189
 387.5 58 387.5 58 387.5 51 c 0,190,191
 387.5 47 387.5 47 388.5 41 c 128,-1,192
 389.5 35 389.5 35 392 29 c 128,-1,193
 394.5 23 394.5 23 398 18.5 c 128,-1,194
 401.5 14 401.5 14 406.5 14 c 0,195,196
 415.5 14 415.5 14 415.5 24 c 0,179,180
EndSplineSet
EndChar

StartChar: N
Encoding: 78 78 54
Width: 1284
Flags: W
LayerCount: 2
Fore
SplineSet
621.5 558 m 4,0,1
 581.5 558 581.5 558 553 586 c 132,-1,2
 524.5 614 524.5 614 524.5 658 c 4,3,4
 524.5 682 524.5 682 533 703.5 c 132,-1,5
 541.5 725 541.5 725 556.5 740.5 c 132,-1,6
 571.5 756 571.5 756 592.5 765.5 c 132,-1,7
 613.5 775 613.5 775 638.5 775 c 4,8,9
 658.5 775 658.5 775 675.5 766.5 c 132,-1,10
 692.5 758 692.5 758 704.5 743 c 132,-1,11
 716.5 728 716.5 728 723 709 c 132,-1,12
 729.5 690 729.5 690 729.5 669 c 4,13,14
 729.5 642 729.5 642 721 621.5 c 132,-1,15
 712.5 601 712.5 601 697.5 587 c 132,-1,16
 682.5 573 682.5 573 663 565.5 c 132,-1,17
 643.5 558 643.5 558 621.5 558 c 4,0,1
584.5 731 m 4,18,19
 591.5 738 591.5 738 593 743 c 132,-1,20
 594.5 748 594.5 748 592.5 748 c 4,21,22
 584.5 748 584.5 748 575.5 740.5 c 132,-1,23
 566.5 733 566.5 733 559 722.5 c 132,-1,24
 551.5 712 551.5 712 546.5 700 c 132,-1,25
 541.5 688 541.5 688 541.5 678 c 4,26,27
 541.5 676 541.5 676 543 670 c 132,-1,28
 544.5 664 544.5 664 547.5 664 c 4,29,30
 551.5 664 551.5 664 557.5 686 c 4,31,32
 560.5 700 560.5 700 568.5 711.5 c 132,-1,33
 576.5 723 576.5 723 584.5 731 c 4,18,19
625.5 615 m 4,34,35
 637.5 615 637.5 615 654 629 c 132,-1,36
 670.5 643 670.5 643 670.5 669 c 4,37,38
 670.5 689 670.5 689 660 702.5 c 132,-1,39
 649.5 716 649.5 716 632.5 716 c 260,40,41
 615.5 716 615.5 716 601.5 702.5 c 132,-1,42
 587.5 689 587.5 689 587.5 665 c 260,43,44
 587.5 641 587.5 641 598.5 628 c 132,-1,45
 609.5 615 609.5 615 625.5 615 c 4,34,35
513.5 0 m 0,46,47
 488.5 0 488.5 0 478.5 14.5 c 128,-1,48
 468.5 29 468.5 29 468.5 65 c 2,49,-1
 468.5 422 l 2,50,51
 468.5 466 468.5 466 478 481 c 128,-1,52
 487.5 496 487.5 496 516.5 496 c 0,53,54
 535.5 496 535.5 496 553.5 486.5 c 128,-1,55
 571.5 477 571.5 477 571.5 451 c 2,56,-1
 571.5 437 l 2,57,58
 571.5 397 571.5 397 575.5 397 c 256,59,60
 579.5 397 579.5 397 584.5 413 c 128,-1,61
 589.5 429 589.5 429 601.5 448.5 c 128,-1,62
 613.5 468 613.5 468 635.5 484 c 128,-1,63
 657.5 500 657.5 500 693.5 500 c 0,64,65
 757.5 500 757.5 500 786.5 437 c 128,-1,66
 815.5 374 815.5 374 815.5 236 c 2,67,-1
 815.5 31 l 2,68,69
 815.5 0 815.5 0 759.5 0 c 0,70,71
 732.5 0 732.5 0 720.5 11.5 c 128,-1,72
 708.5 23 708.5 23 708.5 34 c 2,73,-1
 708.5 227 l 2,74,75
 708.5 279 708.5 279 705.5 311 c 128,-1,76
 702.5 343 702.5 343 696.5 361 c 128,-1,77
 690.5 379 690.5 379 681 385.5 c 128,-1,78
 671.5 392 671.5 392 657.5 392 c 0,79,80
 636.5 392 636.5 392 621 372.5 c 128,-1,81
 605.5 353 605.5 353 595.5 320 c 128,-1,82
 585.5 287 585.5 287 581 242.5 c 128,-1,83
 576.5 198 576.5 198 576.5 147 c 2,84,-1
 576.5 45 l 2,85,86
 576.5 30 576.5 30 569 21 c 128,-1,87
 561.5 12 561.5 12 551.5 7.5 c 128,-1,88
 541.5 3 541.5 3 531 1.5 c 128,-1,89
 520.5 0 520.5 0 513.5 0 c 0,46,47
488.5 395 m 0,90,91
 491.5 395 491.5 395 493.5 407 c 128,-1,92
 495.5 419 495.5 419 497.5 434 c 128,-1,93
 499.5 449 499.5 449 500.5 461.5 c 128,-1,94
 501.5 474 501.5 474 501.5 475 c 0,95,96
 501.5 477 501.5 477 501 480 c 128,-1,97
 500.5 483 500.5 483 498.5 483 c 0,98,99
 493.5 483 493.5 483 490 475.5 c 128,-1,100
 486.5 468 486.5 468 484.5 458.5 c 128,-1,101
 482.5 449 482.5 449 481.5 439.5 c 128,-1,102
 480.5 430 480.5 430 480.5 427 c 0,103,104
 480.5 419 480.5 419 482.5 407 c 128,-1,105
 484.5 395 484.5 395 488.5 395 c 0,90,91
745.5 29 m 0,106,107
 745.5 35 745.5 35 743.5 38 c 128,-1,108
 741.5 41 741.5 41 739 43 c 128,-1,109
 736.5 45 736.5 45 734.5 49 c 128,-1,110
 732.5 53 732.5 53 732.5 60 c 0,111,112
 732.5 76 732.5 76 731 80 c 128,-1,113
 729.5 84 729.5 84 724.5 84 c 256,114,115
 719.5 84 719.5 84 718 76.5 c 128,-1,116
 716.5 69 716.5 69 716.5 59 c 0,117,118
 716.5 39 716.5 39 722.5 27 c 128,-1,119
 728.5 15 728.5 15 736.5 15 c 0,120,121
 739.5 15 739.5 15 742.5 18.5 c 128,-1,122
 745.5 22 745.5 22 745.5 29 c 0,106,107
512.5 26 m 0,123,124
 512.5 31 512.5 31 510 33.5 c 128,-1,125
 507.5 36 507.5 36 504.5 38.5 c 128,-1,126
 501.5 41 501.5 41 499 45 c 128,-1,127
 496.5 49 496.5 49 496.5 56 c 0,128,129
 496.5 77 496.5 77 489.5 77 c 0,130,131
 487.5 77 487.5 77 485.5 69.5 c 128,-1,132
 483.5 62 483.5 62 483.5 51 c 0,133,134
 483.5 36 483.5 36 490 24 c 128,-1,135
 496.5 12 496.5 12 504.5 12 c 0,136,137
 506.5 12 506.5 12 509.5 16 c 128,-1,138
 512.5 20 512.5 20 512.5 26 c 0,123,124
EndSplineSet
EndChar

StartChar: O
Encoding: 79 79 55
Width: 1284
Flags: W
LayerCount: 2
Fore
SplineSet
515.5 341.5 m 0,0,1
 502.5 346 502.5 346 494 355 c 128,-1,2
 485.5 364 485.5 364 483 374 c 128,-1,3
 480.5 384 480.5 384 484 394.5 c 0,4,5
 488.5 406 488.5 406 497.5 411.5 c 0,6,7
 502.5 414 502.5 414 510 416.5 c 0,8,9
 517.5 418 517.5 418 531 420 c 128,-1,10
 544.5 422 544.5 422 564.5 422 c 0,11,12
 624.5 422 624.5 422 655.5 422.5 c 0,13,14
 727.5 422 727.5 422 752.5 421 c 128,-1,15
 777.5 420 777.5 420 790 414.5 c 0,16,17
 802.5 410 802.5 410 805.5 400.5 c 0,18,19
 808.5 392 808.5 392 808.5 376.5 c 0,20,21
 808.5 364 808.5 364 803 357 c 128,-1,22
 797.5 350 797.5 350 783.5 345 c 128,-1,23
 769.5 340 769.5 340 745.5 338.5 c 0,24,25
 721.5 336 721.5 336 655.5 336.5 c 0,26,27
 577.5 336 577.5 336 549 338 c 128,-1,28
 520.5 340 520.5 340 515.5 341.5 c 0,0,1
523.5 402.5 m 0,29,30
 523.5 404 523.5 404 521 406 c 0,31,32
 519.5 407 519.5 407 514.5 404.5 c 128,-1,33
 509.5 402 509.5 402 507 392.5 c 0,34,35
 504.5 384 504.5 384 504.5 376.5 c 256,36,37
 504.5 370 504.5 370 506.5 369.5 c 0,38,39
 509.5 370 509.5 370 514.5 382.5 c 0,40,41
 520.5 396 520.5 396 520.5 396.5 c 0,42,43
 523.5 399 523.5 399 523.5 402.5 c 0,29,30
513.5 180.5 m 0,44,45
 494.5 184 494.5 184 485 198 c 128,-1,46
 475.5 212 475.5 212 482.5 226.5 c 0,47,48
 487.5 236 487.5 236 495 240.5 c 0,49,50
 502.5 246 502.5 246 518 248 c 0,51,52
 541.5 251 541.5 251 558.5 251 c 0,53,54
 622.5 251 622.5 251 676 251.5 c 128,-1,55
 729.5 252 729.5 252 755 250 c 128,-1,56
 780.5 248 780.5 248 794.5 245 c 128,-1,57
 808.5 242 808.5 242 814 235 c 128,-1,58
 819.5 228 819.5 228 819.5 217.5 c 0,59,60
 819.5 204 819.5 204 813.5 195.5 c 0,61,62
 807.5 186 807.5 186 792 181.5 c 0,63,64
 776.5 176 776.5 176 750.5 174 c 0,65,66
 713.5 171 713.5 171 656.5 171.5 c 0,67,68
 578.5 172 578.5 172 550 175 c 128,-1,69
 521.5 178 521.5 178 513.5 180.5 c 0,44,45
516.5 229.5 m 0,70,71
 516.5 232 516.5 232 513.5 232.5 c 256,72,73
 510.5 232 510.5 232 509.5 231.5 c 0,74,75
 507.5 230 507.5 230 504.5 226 c 128,-1,76
 501.5 222 501.5 222 501.5 214.5 c 0,77,78
 501.5 206 501.5 206 503 204.5 c 0,79,80
 504.5 204 504.5 204 509.5 208.5 c 0,81,82
 513.5 212 513.5 212 515 218.5 c 0,83,84
 516.5 224 516.5 224 516.5 229.5 c 0,70,71
639.5 -10 m 0,85,86
 567.5 -10 567.5 -10 514 17.5 c 128,-1,87
 460.5 45 460.5 45 425.5 88.5 c 128,-1,88
 390.5 132 390.5 132 373 186 c 128,-1,89
 355.5 240 355.5 240 355.5 294 c 0,90,91
 355.5 360 355.5 360 375.5 416 c 128,-1,92
 395.5 472 395.5 472 433 512.5 c 128,-1,93
 470.5 553 470.5 553 524.5 576 c 128,-1,94
 578.5 599 578.5 599 645.5 599 c 0,95,96
 707.5 599 707.5 599 759.5 576.5 c 128,-1,97
 811.5 554 811.5 554 849 514.5 c 128,-1,98
 886.5 475 886.5 475 907.5 420.5 c 128,-1,99
 928.5 366 928.5 366 928.5 303 c 0,100,101
 928.5 239 928.5 239 907 182 c 128,-1,102
 885.5 125 885.5 125 847 82.5 c 128,-1,103
 808.5 40 808.5 40 755.5 15 c 128,-1,104
 702.5 -10 702.5 -10 639.5 -10 c 0,85,86
641.5 67 m 0,105,106
 742.5 67 742.5 67 794 130.5 c 128,-1,107
 845.5 194 845.5 194 845.5 303 c 0,108,109
 845.5 347 845.5 347 832 387.5 c 128,-1,110
 818.5 428 818.5 428 792.5 459 c 128,-1,111
 766.5 490 766.5 490 729.5 508.5 c 128,-1,112
 692.5 527 692.5 527 645.5 527 c 0,113,114
 600.5 527 600.5 527 563 509 c 128,-1,115
 525.5 491 525.5 491 498.5 461 c 128,-1,116
 471.5 431 471.5 431 456.5 391 c 128,-1,117
 441.5 351 441.5 351 441.5 306 c 256,118,119
 441.5 261 441.5 261 455 218 c 128,-1,120
 468.5 175 468.5 175 494 141.5 c 128,-1,121
 519.5 108 519.5 108 556.5 87.5 c 128,-1,122
 593.5 67 593.5 67 641.5 67 c 0,105,106
EndSplineSet

EndChar

StartChar: P
Encoding: 80 80 56
Width: 1284
Flags: W
LayerCount: 2
Fore
SplineSet
514 -14 m 0,0,1
 494 -14 494 -14 477 1 c 128,-1,2
 460 16 460 16 460 69 c 2,3,-1
 460 526 l 2,4,5
 460 547 460 547 468.5 564 c 128,-1,6
 477 581 477 581 491.5 592.5 c 128,-1,7
 506 604 506 604 524.5 610 c 128,-1,8
 543 616 543 616 563 616 c 2,9,-1
 622 616 l 2,10,11
 653 616 653 616 688.5 604 c 128,-1,12
 724 592 724 592 754 566 c 128,-1,13
 784 540 784 540 804 498 c 128,-1,14
 824 456 824 456 824 397 c 256,15,16
 824 338 824 338 804.5 291.5 c 128,-1,17
 785 245 785 245 756 213.5 c 128,-1,18
 727 182 727 182 693 165.5 c 128,-1,19
 659 149 659 149 629 149 c 2,20,-1
 600 149 l 2,21,22
 591 149 591 149 582.5 145 c 128,-1,23
 574 141 574 141 574 132 c 2,24,-1
 574 65 l 2,25,26
 574 33 574 33 568.5 21 c 128,-1,27
 563 9 563 9 554 1 c 128,-1,28
 545 -7 545 -7 534.5 -10.5 c 128,-1,29
 524 -14 524 -14 514 -14 c 0,0,1
618 238 m 2,30,31
 635 238 635 238 651 246 c 128,-1,32
 667 254 667 254 680.5 271.5 c 128,-1,33
 694 289 694 289 702 317 c 128,-1,34
 710 345 710 345 710 385 c 0,35,36
 710 428 710 428 702 456.5 c 128,-1,37
 694 485 694 485 681 501.5 c 128,-1,38
 668 518 668 518 652 525 c 128,-1,39
 636 532 636 532 621 532 c 2,40,-1
 599 532 l 2,41,42
 574 532 574 532 574 498 c 2,43,-1
 574 261 l 2,44,45
 574 238 574 238 605 238 c 2,46,-1
 618 238 l 2,30,31
500 21 m 256,47,48
 495 26 495 26 491.5 39 c 128,-1,49
 488 52 488 52 488 78.5 c 128,-1,50
 488 105 488 105 481 105 c 0,51,52
 476 105 476 105 474.5 96.5 c 128,-1,53
 473 88 473 88 473 76 c 0,54,55
 473 38 473 38 480 22 c 128,-1,56
 487 6 487 6 497 6 c 0,57,58
 499 6 499 6 502 8 c 128,-1,59
 505 10 505 10 505 12 c 0,60,61
 505 16 505 16 500 21 c 256,47,48
EndSplineSet

EndChar

StartChar: Q
Encoding: 81 81 57
Width: 1284
Flags: W
LayerCount: 2
Fore
SplineSet
648 616 m 0,0,1
 607 616 607 616 574 601 c 2,2,3
 574 601 574 601 541 585 c 1,4,-1
 497 537 l 1,5,6
 465 492 465 492 449 432.5 c 128,-1,7
 433 373 433 373 433 311 c 0,8,9
 433 255 433 255 445 196.5 c 128,-1,10
 457 138 457 138 483 90.5 c 128,-1,11
 509 43 509 43 550 12.5 c 128,-1,12
 591 -18 591 -18 649 -18 c 0,13,14
 686 -18 686 -18 717 -4 c 1,15,16
 725 -22 725 -22 737.5 -40.5 c 128,-1,17
 750 -59 750 -59 773 -59 c 0,18,19
 780 -59 780 -59 788.5 -56.5 c 128,-1,20
 797 -54 797 -54 804.5 -49.5 c 128,-1,21
 812 -45 812 -45 817 -39 c 128,-1,22
 822 -33 822 -33 822 -26 c 0,23,24
 822 -18 822 -18 813 8.5 c 128,-1,25
 804 35 804 35 792 65 c 1,26,27
 822 112 822 112 836.5 177.5 c 128,-1,28
 851 243 851 243 851 316 c 0,29,30
 851 371 851 371 839 425 c 128,-1,31
 827 479 827 479 802.5 521.5 c 128,-1,32
 778 564 778 564 739.5 590 c 128,-1,33
 701 616 701 616 648 616 c 0,0,1
496 139 m 0,34,35
 499 139 499 139 503 133.5 c 128,-1,36
 507 128 507 128 511.5 119.5 c 128,-1,37
 516 111 516 111 521.5 102 c 128,-1,38
 527 93 527 93 532 86 c 0,39,40
 554 57 554 57 573.5 40 c 128,-1,41
 593 23 593 23 593 18 c 0,42,43
 593 15 593 15 588 14 c 0,44,45
 576 14 576 14 559.5 28 c 128,-1,46
 543 42 543 42 528 61.5 c 128,-1,47
 513 81 513 81 502.5 101.5 c 128,-1,48
 492 122 492 122 492 134 c 0,49,50
 492 139 492 139 496 139 c 0,34,35
553 395 m 1,51,52
 569 354 569 354 586 312 c 128,-1,53
 603 270 603 270 619.5 229.5 c 128,-1,54
 636 189 636 189 651.5 151 c 128,-1,55
 667 113 667 113 680 81 c 1,56,57
 667 74 667 74 649 74 c 0,58,59
 618 74 618 74 598 102 c 128,-1,60
 578 130 578 130 566.5 168.5 c 128,-1,61
 555 207 555 207 551 247 c 128,-1,62
 547 287 547 287 547 311 c 0,63,64
 547 327 547 327 548.5 349 c 128,-1,65
 550 371 550 371 553 395 c 1,51,52
497 161 m 256,66,67
 497 153 497 153 490 151 c 0,68,69
 487 151 487 151 482 154.5 c 128,-1,70
 477 158 477 158 477 166 c 0,71,72
 477 175 477 175 485 175 c 0,73,74
 488 175 488 175 492.5 172 c 128,-1,75
 497 169 497 169 497 161 c 256,66,67
648 536 m 0,76,77
 678 536 678 536 696.5 513.5 c 128,-1,78
 715 491 715 491 725.5 457.5 c 128,-1,79
 736 424 736 424 740 384 c 128,-1,80
 744 344 744 344 744 308 c 0,81,82
 744 282 744 282 743 254 c 128,-1,83
 742 226 742 226 738 198 c 1,84,85
 728 224 728 224 713 262.5 c 128,-1,86
 698 301 698 301 680.5 344.5 c 128,-1,87
 663 388 663 388 644.5 434.5 c 128,-1,88
 626 481 626 481 608 523 c 1,89,90
 626 536 626 536 648 536 c 0,76,77
EndSplineSet

EndChar

StartChar: R
Encoding: 82 82 58
Width: 1284
Flags: W
LayerCount: 2
Fore
SplineSet
623.5 584 m 4,0,1
 583.5 584 583.5 584 555 612 c 132,-1,2
 526.5 640 526.5 640 526.5 684 c 4,3,4
 526.5 708 526.5 708 535 729.5 c 132,-1,5
 543.5 751 543.5 751 558.5 766.5 c 132,-1,6
 573.5 782 573.5 782 594.5 791.5 c 132,-1,7
 615.5 801 615.5 801 640.5 801 c 4,8,9
 660.5 801 660.5 801 677.5 792.5 c 132,-1,10
 694.5 784 694.5 784 706.5 769 c 132,-1,11
 718.5 754 718.5 754 725 735 c 132,-1,12
 731.5 716 731.5 716 731.5 695 c 4,13,14
 731.5 668 731.5 668 723 647.5 c 132,-1,15
 714.5 627 714.5 627 699.5 613 c 132,-1,16
 684.5 599 684.5 599 665 591.5 c 132,-1,17
 645.5 584 645.5 584 623.5 584 c 4,0,1
586.5 757 m 4,18,19
 593.5 764 593.5 764 595 769 c 132,-1,20
 596.5 774 596.5 774 594.5 774 c 4,21,22
 586.5 774 586.5 774 577.5 766.5 c 132,-1,23
 568.5 759 568.5 759 561 748.5 c 132,-1,24
 553.5 738 553.5 738 548.5 726 c 132,-1,25
 543.5 714 543.5 714 543.5 704 c 4,26,27
 543.5 702 543.5 702 545 696 c 132,-1,28
 546.5 690 546.5 690 549.5 690 c 4,29,30
 553.5 690 553.5 690 559.5 712 c 4,31,32
 562.5 726 562.5 726 570.5 737.5 c 132,-1,33
 578.5 749 578.5 749 586.5 757 c 4,18,19
627.5 641 m 4,34,35
 639.5 641 639.5 641 656 655 c 132,-1,36
 672.5 669 672.5 669 672.5 695 c 4,37,38
 672.5 715 672.5 715 662 728.5 c 132,-1,39
 651.5 742 651.5 742 634.5 742 c 260,40,41
 617.5 742 617.5 742 603.5 728.5 c 132,-1,42
 589.5 715 589.5 715 589.5 691 c 260,43,44
 589.5 667 589.5 667 600.5 654 c 132,-1,45
 611.5 641 611.5 641 627.5 641 c 4,34,35
567.5 0 m 0,46,47
 542.5 0 542.5 0 532.5 17 c 128,-1,48
 522.5 34 522.5 34 522.5 64 c 2,49,-1
 522.5 451 l 2,50,51
 522.5 505 522.5 505 533.5 525 c 128,-1,52
 544.5 545 544.5 545 570.5 545 c 0,53,54
 593.5 545 593.5 545 607 526.5 c 128,-1,55
 620.5 508 620.5 508 620.5 473 c 0,56,57
 620.5 462 620.5 462 620.5 456.5 c 128,-1,58
 620.5 451 620.5 451 623.5 451 c 0,59,60
 625.5 451 625.5 451 626 454 c 128,-1,61
 626.5 457 626.5 457 628.5 461 c 0,62,63
 631.5 468 631.5 468 637 482 c 128,-1,64
 642.5 496 642.5 496 653 510 c 128,-1,65
 663.5 524 663.5 524 679.5 534.5 c 128,-1,66
 695.5 545 695.5 545 717.5 545 c 0,67,68
 737.5 545 737.5 545 749.5 533 c 128,-1,69
 761.5 521 761.5 521 761.5 502 c 0,70,71
 761.5 482 761.5 482 753 464.5 c 128,-1,72
 744.5 447 744.5 447 724.5 447 c 256,73,74
 704.5 447 704.5 447 687 428.5 c 128,-1,75
 669.5 410 669.5 410 657 381.5 c 128,-1,76
 644.5 353 644.5 353 637 319 c 128,-1,77
 629.5 285 629.5 285 629.5 254 c 2,78,-1
 629.5 55 l 2,79,80
 629.5 25 629.5 25 609.5 12.5 c 128,-1,81
 589.5 0 589.5 0 567.5 0 c 0,46,47
549.5 503 m 256,82,83
 550.5 507 550.5 507 552 511.5 c 128,-1,84
 553.5 516 553.5 516 554.5 520 c 128,-1,85
 555.5 524 555.5 524 555 526.5 c 128,-1,86
 554.5 529 554.5 529 550.5 529 c 0,87,88
 545.5 529 545.5 529 540.5 518.5 c 128,-1,89
 535.5 508 535.5 508 535.5 497 c 0,90,91
 535.5 476 535.5 476 542.5 476 c 0,92,93
 547.5 476 547.5 476 548 487.5 c 128,-1,94
 548.5 499 548.5 499 549.5 503 c 256,82,83
549.5 50 m 0,95,96
 546.5 62 546.5 62 545 71.5 c 128,-1,97
 543.5 81 543.5 81 540.5 81 c 0,98,99
 535.5 81 535.5 81 535.5 64 c 0,100,101
 535.5 46 535.5 46 540.5 32 c 128,-1,102
 545.5 18 545.5 18 552.5 18 c 0,103,104
 554.5 18 554.5 18 557 19 c 128,-1,105
 559.5 20 559.5 20 559.5 25 c 0,106,107
 559.5 28 559.5 28 555.5 34 c 128,-1,108
 551.5 40 551.5 40 549.5 50 c 0,95,96
EndSplineSet
EndChar

StartChar: S
Encoding: 83 83 59
Width: 1284
Flags: W
LayerCount: 2
Fore
SplineSet
652 622.5 m 4,0,1
 612 622.5 612 622.5 583.5 650.5 c 132,-1,2
 555 678.5 555 678.5 555 722.5 c 4,3,4
 555 746.5 555 746.5 563.5 768 c 132,-1,5
 572 789.5 572 789.5 587 805 c 132,-1,6
 602 820.5 602 820.5 623 830 c 132,-1,7
 644 839.5 644 839.5 669 839.5 c 4,8,9
 689 839.5 689 839.5 706 831 c 132,-1,10
 723 822.5 723 822.5 735 807.5 c 132,-1,11
 747 792.5 747 792.5 753.5 773.5 c 132,-1,12
 760 754.5 760 754.5 760 733.5 c 4,13,14
 760 706.5 760 706.5 751.5 686 c 132,-1,15
 743 665.5 743 665.5 728 651.5 c 132,-1,16
 713 637.5 713 637.5 693.5 630 c 132,-1,17
 674 622.5 674 622.5 652 622.5 c 4,0,1
615 795.5 m 4,18,19
 622 802.5 622 802.5 623.5 807.5 c 132,-1,20
 625 812.5 625 812.5 623 812.5 c 4,21,22
 615 812.5 615 812.5 606 805 c 132,-1,23
 597 797.5 597 797.5 589.5 787 c 132,-1,24
 582 776.5 582 776.5 577 764.5 c 132,-1,25
 572 752.5 572 752.5 572 742.5 c 4,26,27
 572 740.5 572 740.5 573.5 734.5 c 132,-1,28
 575 728.5 575 728.5 578 728.5 c 4,29,30
 582 728.5 582 728.5 588 750.5 c 4,31,32
 591 764.5 591 764.5 599 776 c 132,-1,33
 607 787.5 607 787.5 615 795.5 c 4,18,19
656 679.5 m 4,34,35
 668 679.5 668 679.5 684.5 693.5 c 132,-1,36
 701 707.5 701 707.5 701 733.5 c 4,37,38
 701 753.5 701 753.5 690.5 767 c 132,-1,39
 680 780.5 680 780.5 663 780.5 c 260,40,41
 646 780.5 646 780.5 632 767 c 132,-1,42
 618 753.5 618 753.5 618 729.5 c 260,43,44
 618 705.5 618 705.5 629 692.5 c 132,-1,45
 640 679.5 640 679.5 656 679.5 c 4,34,35
645 -46 m 4,46,47
 614 -46 614 -46 583 -32.5 c 132,-1,48
 552 -19 552 -19 527.5 6 c 132,-1,49
 503 31 503 31 488 68 c 132,-1,50
 473 105 473 105 473 151 c 4,51,52
 473 182 473 182 491 202 c 132,-1,53
 509 222 509 222 536 220 c 4,54,55
 553 219 553 219 560.5 207.5 c 132,-1,56
 568 196 568 196 568 170 c 4,57,58
 568 152 568 152 572.5 129 c 132,-1,59
 577 106 577 106 586 86 c 132,-1,60
 595 66 595 66 607.5 52.5 c 132,-1,61
 620 39 620 39 635 39 c 4,62,63
 699 39 699 39 699 104 c 4,64,65
 699 125 699 125 692.5 143 c 132,-1,66
 686 161 686 161 675.5 176 c 132,-1,67
 665 191 665 191 652 205 c 132,-1,68
 639 219 639 219 625 232 c 4,69,70
 553 304 553 304 522.5 352 c 132,-1,71
 492 400 492 400 492 440 c 4,72,73
 492 509 492 509 534.5 548 c 132,-1,74
 577 587 577 587 651 587 c 4,75,76
 685 587 685 587 713 572 c 132,-1,77
 741 557 741 557 761.5 533 c 132,-1,78
 782 509 782 509 793 479.5 c 132,-1,79
 804 450 804 450 804 422 c 4,80,81
 804 392 804 392 786.5 367.5 c 132,-1,82
 769 343 769 343 743 343 c 4,83,84
 731 343 731 343 717 353 c 132,-1,85
 703 363 703 363 703 380 c 4,86,87
 703 439 703 439 686 466.5 c 132,-1,88
 669 494 669 494 647 494 c 4,89,90
 605 494 605 494 605 446 c 4,91,92
 605 431 605 431 609 416.5 c 132,-1,93
 613 402 613 402 623.5 385 c 132,-1,94
 634 368 634 368 651.5 347.5 c 132,-1,95
 669 327 669 327 696 300 c 4,96,97
 729 267 729 267 751 241 c 132,-1,98
 773 215 773 215 786.5 193 c 132,-1,99
 800 171 800 171 805.5 152 c 132,-1,100
 811 133 811 133 811 114 c 4,101,102
 811 79 811 79 798.5 49.5 c 132,-1,103
 786 20 786 20 764 -1 c 132,-1,104
 742 -22 742 -22 711.5 -34 c 132,-1,105
 681 -46 681 -46 645 -46 c 4,46,47
550 506 m 4,106,107
 554 513 554 513 561 522.5 c 132,-1,108
 568 532 568 532 576 538 c 4,109,110
 584 543 584 543 586.5 549.5 c 132,-1,111
 589 556 589 556 586 556 c 4,112,113
 580 557 580 557 570 549.5 c 132,-1,114
 560 542 560 542 551 531 c 132,-1,115
 542 520 542 520 535 508 c 132,-1,116
 528 496 528 496 527 487 c 4,117,118
 527 481 527 481 533 481 c 4,119,120
 538 480 538 480 541 488 c 132,-1,121
 544 496 544 496 550 506 c 4,106,107
534 461 m 4,122,123
 534 468 534 468 528 468 c 4,124,125
 525 468 525 468 522.5 465 c 132,-1,126
 520 462 520 462 520 460 c 4,127,128
 520 455 520 455 527 454 c 4,129,130
 532 454 532 454 534 461 c 4,122,123
510 153 m 260,131,132
 515 167 515 167 520.5 176 c 132,-1,133
 526 185 526 185 527 193 c 4,134,135
 527 198 527 198 524 198 c 4,136,137
 516 199 516 199 509 192.5 c 132,-1,138
 502 186 502 186 497.5 176 c 132,-1,139
 493 166 493 166 492 153.5 c 132,-1,140
 491 141 491 141 495 129 c 4,141,142
 499 119 499 119 503 119 c 4,143,144
 508 119 508 119 506.5 129 c 132,-1,145
 505 139 505 139 510 153 c 260,131,132
EndSplineSet
EndChar

StartChar: T
Encoding: 84 84 60
Width: 1284
Flags: W
LayerCount: 2
Fore
SplineSet
633.5 0 m 0,0,1
 625.5 0 625.5 0 616.5 3 c 128,-1,2
 607.5 6 607.5 6 599.5 11 c 128,-1,3
 591.5 16 591.5 16 586 23.5 c 128,-1,4
 580.5 31 580.5 31 580.5 40 c 2,5,-1
 580.5 525 l 1,6,7
 568.5 525 568.5 525 528.5 525 c 128,-1,8
 488.5 525 488.5 525 472 529 c 128,-1,9
 455.5 533 455.5 533 444 542.5 c 128,-1,10
 432.5 552 432.5 552 432.5 570 c 0,11,12
 432.5 592 432.5 592 446.5 604 c 128,-1,13
 460.5 616 460.5 616 481.5 616 c 2,14,-1
 818.5 616 l 2,15,16
 834.5 616 834.5 616 843 602 c 128,-1,17
 851.5 588 851.5 588 851.5 574 c 0,18,19
 851.5 556 851.5 556 843 546.5 c 128,-1,20
 834.5 537 834.5 537 821.5 532 c 128,-1,21
 808.5 527 808.5 527 761.5 526 c 128,-1,22
 714.5 525 714.5 525 701.5 525 c 2,23,-1
 693.5 525 l 1,24,-1
 693.5 47 l 2,25,26
 693.5 24 693.5 24 673.5 12 c 128,-1,27
 653.5 0 653.5 0 633.5 0 c 0,0,1
455.5 553 m 256,28,29
 460.5 553 460.5 553 460.5 560 c 0,30,31
 460.5 568 460.5 568 463.5 578.5 c 128,-1,32
 466.5 589 466.5 589 472.5 598 c 0,33,34
 475.5 603 475.5 603 467.5 603 c 0,35,36
 458.5 603 458.5 603 452.5 591.5 c 128,-1,37
 446.5 580 446.5 580 446.5 569 c 0,38,39
 446.5 565 446.5 565 448.5 559 c 128,-1,40
 450.5 553 450.5 553 455.5 553 c 256,28,29
614.5 23 m 0,41,42
 623.5 23 623.5 23 623.5 32 c 0,43,44
 623.5 36 623.5 36 619.5 37 c 0,45,46
 613.5 39 613.5 39 611 49.5 c 128,-1,47
 608.5 60 608.5 60 608.5 65 c 0,48,49
 608.5 67 608.5 67 609 73 c 128,-1,50
 609.5 79 609.5 79 609.5 85 c 128,-1,51
 609.5 91 609.5 91 608.5 95.5 c 128,-1,52
 607.5 100 607.5 100 603.5 100 c 256,53,54
 599.5 100 599.5 100 597.5 96 c 128,-1,55
 595.5 92 595.5 92 594.5 86.5 c 128,-1,56
 593.5 81 593.5 81 593 75.5 c 128,-1,57
 592.5 70 592.5 70 592.5 68 c 0,58,59
 592.5 64 592.5 64 593.5 56 c 128,-1,60
 594.5 48 594.5 48 597 41 c 128,-1,61
 599.5 34 599.5 34 604 28.5 c 128,-1,62
 608.5 23 608.5 23 614.5 23 c 0,41,42
EndSplineSet

EndChar

StartChar: U
Encoding: 85 85 61
Width: 1284
Flags: W
LayerCount: 2
Fore
SplineSet
639.5 -4 m 0,0,1
 594.5 -4 594.5 -4 558 12.5 c 128,-1,2
 521.5 29 521.5 29 496.5 58.5 c 128,-1,3
 471.5 88 471.5 88 458 129.5 c 128,-1,4
 444.5 171 444.5 171 444.5 221 c 2,5,-1
 444.5 530 l 2,6,7
 444.5 540 444.5 540 446.5 555 c 128,-1,8
 448.5 570 448.5 570 454.5 583.5 c 128,-1,9
 460.5 597 460.5 597 471 606.5 c 128,-1,10
 481.5 616 481.5 616 497.5 616 c 0,11,12
 530.5 616 530.5 616 544.5 599 c 128,-1,13
 558.5 582 558.5 582 558.5 528 c 2,14,-1
 558.5 228 l 2,15,16
 558.5 204 558.5 204 558.5 179.5 c 128,-1,17
 558.5 155 558.5 155 566 135.5 c 128,-1,18
 573.5 116 573.5 116 591 103.5 c 128,-1,19
 608.5 91 608.5 91 643.5 91 c 0,20,21
 676.5 91 676.5 91 693.5 110 c 128,-1,22
 710.5 129 710.5 129 718 157.5 c 128,-1,23
 725.5 186 725.5 186 726 220 c 128,-1,24
 726.5 254 726.5 254 726.5 284 c 2,25,-1
 726.5 531 l 2,26,27
 726.5 541 726.5 541 728.5 556 c 128,-1,28
 730.5 571 730.5 571 736 584.5 c 128,-1,29
 741.5 598 741.5 598 751 608 c 128,-1,30
 760.5 618 760.5 618 776.5 618 c 0,31,32
 807.5 618 807.5 618 823.5 597.5 c 128,-1,33
 839.5 577 839.5 577 839.5 532 c 2,34,-1
 839.5 246 l 2,35,36
 839.5 189 839.5 189 827 143 c 128,-1,37
 814.5 97 814.5 97 789 64.5 c 128,-1,38
 763.5 32 763.5 32 726.5 14 c 128,-1,39
 689.5 -4 689.5 -4 639.5 -4 c 0,0,1
754.5 556 m 0,40,41
 754.5 560 754.5 560 757.5 568 c 128,-1,42
 760.5 576 760.5 576 767.5 584 c 0,43,44
 775.5 595 775.5 595 776 599 c 128,-1,45
 776.5 603 776.5 603 767.5 603 c 0,46,47
 762.5 603 762.5 603 758 598 c 128,-1,48
 753.5 593 753.5 593 750.5 588 c 0,49,50
 748.5 583 748.5 583 745 575 c 128,-1,51
 741.5 567 741.5 567 740.5 558 c 0,52,53
 740.5 553 740.5 553 741.5 548.5 c 128,-1,54
 742.5 544 742.5 544 747.5 544 c 256,55,56
 752.5 544 752.5 544 753.5 547.5 c 128,-1,57
 754.5 551 754.5 551 754.5 556 c 0,40,41
486.5 570 m 0,58,59
 490.5 579 490.5 579 496 585 c 128,-1,60
 501.5 591 501.5 591 501.5 598 c 0,61,62
 501.5 603 501.5 603 498.5 603 c 256,63,64
 495.5 603 495.5 603 489.5 600.5 c 128,-1,65
 483.5 598 483.5 598 478.5 590 c 0,66,67
 463.5 569 463.5 569 461.5 552 c 128,-1,68
 459.5 535 459.5 535 465.5 535 c 0,69,70
 470.5 535 470.5 535 476 545.5 c 128,-1,71
 481.5 556 481.5 556 486.5 570 c 0,58,59
555.5 48 m 0,72,73
 555.5 51 555.5 51 548 57 c 128,-1,74
 540.5 63 540.5 63 532.5 72 c 0,75,76
 524.5 80 524.5 80 514 93.5 c 128,-1,77
 503.5 107 503.5 107 496.5 122 c 0,78,79
 491.5 132 491.5 132 487 136 c 128,-1,80
 482.5 140 482.5 140 480.5 140 c 0,81,82
 476.5 140 476.5 140 476.5 133 c 0,83,84
 476.5 125 476.5 125 484.5 109.5 c 128,-1,85
 492.5 94 492.5 94 503.5 79 c 128,-1,86
 514.5 64 514.5 64 527 53 c 128,-1,87
 539.5 42 539.5 42 549.5 42 c 0,88,89
 555.5 42 555.5 42 555.5 48 c 0,72,73
578.5 39 m 0,90,91
 578.5 40 578.5 40 576 43 c 128,-1,92
 573.5 46 573.5 46 570.5 46 c 0,93,94
 565.5 45 565.5 45 563.5 42 c 128,-1,95
 561.5 39 561.5 39 561.5 37 c 0,96,97
 562.5 34 562.5 34 563.5 31.5 c 128,-1,98
 564.5 29 564.5 29 569.5 30 c 0,99,100
 578.5 30 578.5 30 578.5 39 c 0,90,91
EndSplineSet
EndChar

StartChar: V
Encoding: 86 86 62
Width: 1284
Flags: W
LayerCount: 2
Fore
SplineSet
680.5 103 m 1,0,-1
 609.5 103 l 1,1,-1
 609.5 783 l 1,2,-1
 680.5 783 l 1,3,-1
 680.5 103 l 1,0,-1
597.5 0 m 1,4,-1
 371.5 545 l 1,5,-1
 371.5 599 l 1,6,-1
 912.5 599 l 1,7,-1
 912.5 544 l 1,8,-1
 687.5 0 l 1,9,-1
 597.5 0 l 1,4,-1
643.5 98 m 1,10,-1
 816.5 520 l 1,11,-1
 470.5 520 l 1,12,-1
 643.5 98 l 1,10,-1
EndSplineSet
EndChar

StartChar: W
Encoding: 87 87 63
Width: 1284
Flags: W
LayerCount: 2
Fore
SplineSet
944.017578125 609.5 m 0,0,1
 943.517578125 578 943.517578125 578 923.017578125 568.5 c 0,2,3
 901.517578125 558 901.517578125 558 878.017578125 557.5 c 0,4,5
 842.517578125 557 842.517578125 557 633.017578125 556 c 128,-1,6
 423.517578125 555 423.517578125 555 393.017578125 555.5 c 4,7,8
 371.517578125 556 371.517578125 556 355.517578125 566 c 4,9,10
 340.517578125 575 340.517578125 575 340.017578125 599.5 c 4,11,12
 339.517578125 614 339.517578125 614 346.017578125 622 c 4,13,14
 351.517578125 630 351.517578125 630 361.017578125 635.5 c 4,15,16
 369.517578125 640 369.517578125 640 381.517578125 642.5 c 4,17,18
 393.517578125 644 393.517578125 644 404.017578125 644.5 c 4,19,20
 435.517578125 645 435.517578125 645 649.517578125 646 c 128,-1,21
 863.517578125 647 863.517578125 647 898.017578125 646.5 c 0,22,23
 915.517578125 646 915.517578125 646 929.517578125 639 c 128,-1,24
 943.517578125 632 943.517578125 632 944.017578125 609.5 c 0,0,1
358.017578125 580.5 m 4,25,26
 362.517578125 580 362.517578125 580 366.517578125 586 c 132,-1,27
 370.517578125 592 370.517578125 592 374.517578125 598 c 132,-1,28
 378.517578125 604 378.517578125 604 380.517578125 611 c 132,-1,29
 382.517578125 618 382.517578125 618 383.017578125 619.5 c 4,30,31
 382.517578125 624 382.517578125 624 382.517578125 627 c 132,-1,32
 382.517578125 630 382.517578125 630 377.017578125 630.5 c 4,33,34
 364.517578125 630 364.517578125 630 357.517578125 617 c 4,35,36
 351.517578125 607 351.517578125 607 351.017578125 593.5 c 4,37,38
 350.517578125 586 350.517578125 586 353.517578125 583 c 132,-1,39
 356.517578125 580 356.517578125 580 358.017578125 580.5 c 4,25,26
743.517578125 0 m 0,40,41
 720.517578125 0 720.517578125 0 704.017578125 6 c 128,-1,42
 687.517578125 12 687.517578125 12 676.017578125 23.5 c 128,-1,43
 664.517578125 35 664.517578125 35 656.517578125 51 c 0,44,45
 644.517578125 75 644.517578125 75 641.517578125 87 c 0,46,47
 640.517578125 91 640.517578125 91 639.517578125 97 c 128,-1,48
 638.517578125 103 638.517578125 103 637.017578125 109 c 128,-1,49
 635.517578125 115 635.517578125 115 634.017578125 119 c 128,-1,50
 632.517578125 123 632.517578125 123 630.517578125 123 c 256,51,52
 628.517578125 123 628.517578125 123 626.517578125 115.5 c 128,-1,53
 624.517578125 108 624.517578125 108 620.517578125 97 c 0,54,55
 610.517578125 71 610.517578125 71 601.517578125 52.5 c 128,-1,56
 592.517578125 34 592.517578125 34 581.017578125 22.5 c 128,-1,57
 569.517578125 11 569.517578125 11 555.517578125 5.5 c 128,-1,58
 541.517578125 0 541.517578125 0 521.517578125 0 c 0,59,60
 481.517578125 0 481.517578125 0 452.017578125 13.5 c 128,-1,61
 422.517578125 27 422.517578125 27 403.517578125 51.5 c 128,-1,62
 384.517578125 76 384.517578125 76 375.517578125 109.5 c 128,-1,63
 366.517578125 143 366.517578125 143 366.517578125 183 c 2,64,-1
 366.517578125 462 l 2,65,66
 366.517578125 472 366.517578125 472 369.517578125 485.5 c 128,-1,67
 372.517578125 499 372.517578125 499 379.517578125 511 c 128,-1,68
 386.517578125 523 386.517578125 523 398.017578125 531.5 c 128,-1,69
 409.517578125 540 409.517578125 540 427.517578125 540 c 0,70,71
 456.517578125 540 456.517578125 540 467.517578125 519.5 c 0,72,73
 478.400390625 499.21875 478.400390625 499.21875 478.517578125 467 c 2,74,-1
 479.517578125 193 l 2,75,76
 479.517578125 183 479.517578125 183 481.517578125 166.5 c 128,-1,77
 483.517578125 150 483.517578125 150 488.017578125 134 c 128,-1,78
 492.517578125 118 492.517578125 118 501.517578125 106.5 c 128,-1,79
 510.517578125 95 510.517578125 95 523.517578125 95 c 0,80,81
 546.517578125 95 546.517578125 95 560.017578125 129 c 128,-1,82
 573.517578125 163 573.517578125 163 580.517578125 219 c 128,-1,83
 587.517578125 275 587.517578125 275 589.017578125 308.5 c 128,-1,84
 590.517578125 342 590.517578125 342 590.517578125 418 c 0,85,86
 590.517578125 482 590.517578125 482 600.517578125 506.5 c 128,-1,87
 610.517578125 531 610.517578125 531 640.517578125 531 c 0,88,89
 654.517578125 531 654.517578125 531 663.517578125 526 c 128,-1,90
 672.517578125 521 672.517578125 521 678.517578125 505 c 128,-1,91
 684.517578125 489 684.517578125 489 687.017578125 459 c 128,-1,92
 689.517578125 429 689.517578125 429 689.517578125 379 c 0,93,94
 689.517578125 300 689.517578125 300 689.517578125 285.5 c 128,-1,95
 689.517578125 271 689.517578125 271 691.017578125 236.5 c 128,-1,96
 692.517578125 202 692.517578125 202 695.017578125 181.5 c 128,-1,97
 697.517578125 161 697.517578125 161 702.517578125 146 c 0,98,99
 711.517578125 117 711.517578125 117 721.517578125 105.5 c 128,-1,100
 731.517578125 94 731.517578125 94 744.517578125 94 c 0,101,102
 803.517578125 94 803.517578125 94 803.517578125 239 c 2,103,-1
 803.517578125 479 l 2,104,105
 803.517578125 490 803.517578125 490 805.517578125 501 c 128,-1,106
 807.517578125 512 807.517578125 512 813.017578125 520.5 c 128,-1,107
 818.517578125 529 818.517578125 529 828.517578125 534.5 c 128,-1,108
 838.517578125 540 838.517578125 540 853.517578125 540 c 0,109,110
 885.517578125 540 885.517578125 540 900.017578125 522.5 c 128,-1,111
 914.517578125 505 914.517578125 505 914.517578125 479 c 2,112,-1
 914.517578125 220 l 2,113,114
 914.517578125 178 914.517578125 178 903.017578125 138.5 c 128,-1,115
 891.517578125 99 891.517578125 99 870.017578125 68 c 128,-1,116
 848.517578125 37 848.517578125 37 816.517578125 18.5 c 128,-1,117
 784.517578125 0 784.517578125 0 743.517578125 0 c 0,40,41
391.517578125 455 m 0,118,119
 398.517578125 455 398.517578125 455 401.017578125 462 c 128,-1,120
 403.517578125 469 403.517578125 469 404.517578125 474 c 0,121,122
 406.517578125 488 406.517578125 488 415.517578125 497.5 c 0,123,124
 430.517578125 513 430.517578125 513 430.517578125 519 c 0,125,126
 430.517578125 521 430.517578125 521 428.517578125 524 c 128,-1,127
 426.517578125 527 426.517578125 527 423.517578125 527 c 0,128,129
 417.517578125 527 417.517578125 527 410.517578125 520.5 c 128,-1,130
 403.517578125 514 403.517578125 514 397.517578125 505 c 128,-1,131
 391.517578125 496 391.517578125 496 388.017578125 485.5 c 128,-1,132
 384.517578125 475 384.517578125 475 384.517578125 467 c 0,133,134
 384.517578125 463 384.517578125 463 385.517578125 459 c 128,-1,135
 386.517578125 455 386.517578125 455 391.517578125 455 c 0,118,119
836.517578125 473 m 0,136,137
 836.517578125 483 836.517578125 483 839.517578125 491 c 128,-1,138
 842.517578125 499 842.517578125 499 846.517578125 506 c 0,139,140
 851.517578125 514 851.517578125 514 850.517578125 519 c 128,-1,141
 849.517578125 524 849.517578125 524 846.517578125 524 c 0,142,143
 841.517578125 524 841.517578125 524 835.017578125 520.5 c 128,-1,144
 828.517578125 517 828.517578125 517 824.517578125 507 c 0,145,146
 819.517578125 491 819.517578125 491 821.017578125 476 c 128,-1,147
 822.517578125 461 822.517578125 461 830.517578125 461 c 0,148,149
 832.517578125 461 832.517578125 461 834.517578125 464.5 c 128,-1,150
 836.517578125 468 836.517578125 468 836.517578125 473 c 0,136,137
617.517578125 467 m 0,151,152
 617.517578125 468 617.517578125 468 619.517578125 477.5 c 128,-1,153
 621.517578125 487 621.517578125 487 624.517578125 493 c 0,154,155
 631.517578125 506 631.517578125 506 633.517578125 511 c 128,-1,156
 635.517578125 516 635.517578125 516 632.517578125 516 c 0,157,158
 630.517578125 516 630.517578125 516 625.017578125 514 c 128,-1,159
 619.517578125 512 619.517578125 512 614.517578125 505 c 0,160,161
 603.517578125 490 603.517578125 490 604.017578125 473 c 128,-1,162
 604.517578125 456 604.517578125 456 612.517578125 456 c 0,163,164
 617.517578125 456 617.517578125 456 617.517578125 467 c 0,151,152
468.517578125 37 m 0,165,166
 467.517578125 42 467.517578125 42 454.517578125 51 c 128,-1,167
 441.517578125 60 441.517578125 60 435.517578125 67 c 0,168,169
 424.517578125 78 424.517578125 78 420.017578125 89 c 128,-1,170
 415.517578125 100 415.517578125 100 410.517578125 99 c 0,171,172
 406.517578125 99 406.517578125 99 407.017578125 92 c 128,-1,173
 407.517578125 85 407.517578125 85 412.017578125 75 c 128,-1,174
 416.517578125 65 416.517578125 65 425.517578125 54 c 128,-1,175
 434.517578125 43 434.517578125 43 447.517578125 34 c 0,176,177
 456.517578125 27 456.517578125 27 463.517578125 29 c 0,178,179
 468.517578125 29 468.517578125 29 468.517578125 37 c 0,165,166
734.517578125 22 m 0,180,181
 734.517578125 26 734.517578125 26 731.017578125 27 c 128,-1,182
 727.517578125 28 727.517578125 28 724.517578125 28 c 0,183,184
 719.517578125 29 719.517578125 29 709.517578125 38 c 128,-1,185
 699.517578125 47 699.517578125 47 693.517578125 57 c 0,186,187
 683.517578125 72 683.517578125 72 675.517578125 74 c 0,188,189
 672.517578125 74 672.517578125 74 672.517578125 69 c 0,190,191
 672.517578125 67 672.517578125 67 676.017578125 59 c 128,-1,192
 679.517578125 51 679.517578125 51 686.517578125 42 c 128,-1,193
 693.517578125 33 693.517578125 33 703.017578125 25.5 c 128,-1,194
 712.517578125 18 712.517578125 18 723.517578125 17 c 0,195,196
 727.517578125 17 727.517578125 17 730.517578125 17 c 128,-1,197
 733.517578125 17 733.517578125 17 734.517578125 22 c 0,180,181
EndSplineSet
EndChar

StartChar: X
Encoding: 88 88 64
Width: 1284
Flags: W
LayerCount: 2
Fore
SplineSet
728.534179688 174.834960938 m 0,0,1
 738.138671875 166.602539062 738.138671875 166.602539062 751.790039062 152.40234375 c 128,-1,2
 765.44140625 138.202148438 765.44140625 138.202148438 778.081054688 125.494140625 c 128,-1,3
 790.720703125 112.786132812 790.720703125 112.786132812 800.975585938 104.829101562 c 128,-1,4
 811.231445312 96.87109375 811.231445312 96.87109375 814.043945312 101.124023438 c 0,5,6
 815.725585938 102.598632812 815.725585938 102.598632812 817.611328125 107.229492188 c 128,-1,7
 819.498046875 111.860351562 819.498046875 111.860351562 816 116.524414062 c 0,8,9
 813.049804688 119.885742188 813.049804688 119.885742188 803 131 c 128,-1,10
 792.950195312 142.112304688 792.950195312 142.112304688 781.047851562 153.98046875 c 128,-1,11
 769.146484375 165.84765625 769.146484375 165.84765625 757.604492188 175.94921875 c 128,-1,12
 746.061523438 186.05078125 746.061523438 186.05078125 740.505859375 188.313476562 c 0,13,14
 734.0234375 190.955078125 734.0234375 190.955078125 729.340820312 184.764648438 c 128,-1,15
 724.659179688 178.573242188 724.659179688 178.573242188 728.534179688 174.834960938 c 0,0,1
471.453125 485.340820312 m 0,16,17
 481.057617188 477.108398438 481.057617188 477.108398438 494.708984375 462.908203125 c 128,-1,18
 508.360351562 448.708007812 508.360351562 448.708007812 521 436 c 128,-1,19
 533.639648438 423.291992188 533.639648438 423.291992188 543.89453125 415.334960938 c 128,-1,20
 554.150390625 407.376953125 554.150390625 407.376953125 556.962890625 411.629882812 c 0,21,22
 558.64453125 413.104492188 558.64453125 413.104492188 560.530273438 417.735351562 c 128,-1,23
 562.416992188 422.366210938 562.416992188 422.366210938 558.918945312 427.030273438 c 0,24,25
 555.96875 430.391601562 555.96875 430.391601562 545.918945312 441.505859375 c 128,-1,26
 535.869140625 452.618164062 535.869140625 452.618164062 523.966796875 464.486328125 c 128,-1,27
 512.065429688 476.353515625 512.065429688 476.353515625 500.5234375 486.455078125 c 128,-1,28
 488.98046875 496.556640625 488.98046875 496.556640625 483.424804688 498.819335938 c 0,29,30
 476.942382812 501.4609375 476.942382812 501.4609375 472.259765625 495.270507812 c 128,-1,31
 467.578125 489.079101562 467.578125 489.079101562 471.453125 485.340820312 c 0,16,17
734.004882812 411.383789062 m 0,32,33
 742.94921875 420.328125 742.94921875 420.328125 758.154296875 432.850585938 c 128,-1,34
 773.360351562 445.372070312 773.360351562 445.372070312 787 457 c 128,-1,35
 800.639648438 468.627929688 800.639648438 468.627929688 809.360351562 478.2421875 c 128,-1,36
 818.081054688 487.857421875 818.081054688 487.857421875 814.056640625 490.98828125 c 0,37,38
 812.71484375 492.77734375 812.71484375 492.77734375 808.2421875 495.012695312 c 128,-1,39
 803.770507812 497.249023438 803.770507812 497.249023438 798.8515625 494.119140625 c 0,40,41
 795.2734375 491.435546875 795.2734375 491.435546875 783.421875 482.267578125 c 128,-1,42
 771.571289062 473.099609375 771.571289062 473.099609375 758.825195312 462.142578125 c 128,-1,43
 746.080078125 451.186523438 746.080078125 451.186523438 735.123046875 440.453125 c 128,-1,44
 724.166015625 429.719726562 724.166015625 429.719726562 721.483398438 424.353515625 c 0,45,46
 718.352539062 418.092773438 718.352539062 418.092773438 724.166015625 412.94921875 c 128,-1,47
 729.98046875 407.806640625 729.98046875 407.806640625 734.004882812 411.383789062 c 0,32,33
460.004882812 123.383789062 m 0,48,49
 468.94921875 132.328125 468.94921875 132.328125 484.154296875 144.850585938 c 128,-1,50
 499.360351562 157.372070312 499.360351562 157.372070312 513 169 c 128,-1,51
 526.639648438 180.627929688 526.639648438 180.627929688 535.360351562 190.2421875 c 128,-1,52
 544.081054688 199.857421875 544.081054688 199.857421875 540.056640625 202.98828125 c 0,53,54
 538.71484375 204.77734375 538.71484375 204.77734375 534.2421875 207.012695312 c 128,-1,55
 529.770507812 209.249023438 529.770507812 209.249023438 524.8515625 206.119140625 c 0,56,57
 521.2734375 203.435546875 521.2734375 203.435546875 509.421875 194.267578125 c 128,-1,58
 497.571289062 185.099609375 497.571289062 185.099609375 484.825195312 174.142578125 c 128,-1,59
 472.080078125 163.186523438 472.080078125 163.186523438 461.123046875 152.453125 c 128,-1,60
 450.166015625 141.719726562 450.166015625 141.719726562 447.483398438 136.353515625 c 0,61,62
 444.352539062 130.092773438 444.352539062 130.092773438 450.166015625 124.94921875 c 128,-1,63
 455.98046875 119.806640625 455.98046875 119.806640625 460.004882812 123.383789062 c 0,48,49
460.004882812 123.383789062 m 0,64,65
 468.94921875 132.328125 468.94921875 132.328125 484.154296875 144.850585938 c 128,-1,66
 499.360351562 157.372070312 499.360351562 157.372070312 513 169 c 128,-1,67
 526.639648438 180.627929688 526.639648438 180.627929688 535.360351562 190.2421875 c 128,-1,68
 544.081054688 199.857421875 544.081054688 199.857421875 540.056640625 202.98828125 c 0,69,70
 538.71484375 204.77734375 538.71484375 204.77734375 534.2421875 207.012695312 c 128,-1,71
 529.770507812 209.249023438 529.770507812 209.249023438 524.8515625 206.119140625 c 0,72,73
 521.2734375 203.435546875 521.2734375 203.435546875 509.421875 194.267578125 c 128,-1,74
 497.571289062 185.099609375 497.571289062 185.099609375 484.825195312 174.142578125 c 128,-1,75
 472.080078125 163.186523438 472.080078125 163.186523438 461.123046875 152.453125 c 128,-1,76
 450.166015625 141.719726562 450.166015625 141.719726562 447.483398438 136.353515625 c 0,77,78
 444.352539062 130.092773438 444.352539062 130.092773438 450.166015625 124.94921875 c 128,-1,79
 455.98046875 119.806640625 455.98046875 119.806640625 460.004882812 123.383789062 c 0,64,65
481 71 m 1,80,-1
 412 140 l 1,81,-1
 573 301 l 1,82,-1
 412 462 l 1,83,-1
 481 531 l 1,84,-1
 642 370 l 1,85,-1
 803 531 l 1,86,-1
 872 462 l 1,87,-1
 711 301 l 1,88,-1
 872 140 l 1,89,-1
 803 71 l 1,90,-1
 642 232 l 1,91,-1
 481 71 l 1,80,-1
EndSplineSet
EndChar

StartChar: Y
Encoding: 89 89 65
Width: 1284
Flags: W
LayerCount: 2
Fore
SplineSet
642.36328125 0 m 0,0,1
 616.36328125 0 616.36328125 0 602.86328125 16.5 c 128,-1,2
 589.36328125 33 589.36328125 33 589.36328125 52 c 2,3,-1
 589.36328125 191 l 2,4,5
 589.36328125 204 589.36328125 204 587.86328125 214.5 c 128,-1,6
 586.36328125 225 586.36328125 225 582.86328125 236 c 128,-1,7
 579.36328125 247 579.36328125 247 573.36328125 260.5 c 128,-1,8
 567.36328125 274 567.36328125 274 558.36328125 294 c 2,9,-1
 439.36328125 556 l 2,10,11
 436.36328125 563 436.36328125 563 438.86328125 573.5 c 128,-1,12
 441.36328125 584 441.36328125 584 448.86328125 593.5 c 128,-1,13
 456.36328125 603 456.36328125 603 468.36328125 609.5 c 128,-1,14
 480.36328125 616 480.36328125 616 496.36328125 616 c 0,15,16
 505.36328125 616 505.36328125 616 513.86328125 611.5 c 128,-1,17
 522.36328125 607 522.36328125 607 527.36328125 595 c 2,18,-1
 620.36328125 377 l 2,19,20
 625.36328125 366 625.36328125 366 631.86328125 354 c 128,-1,21
 638.36328125 342 638.36328125 342 644.36328125 342 c 256,22,23
 650.36328125 342 650.36328125 342 656.36328125 351.5 c 128,-1,24
 662.36328125 361 662.36328125 361 669.36328125 377 c 2,25,-1
 769.36328125 600 l 2,26,27
 774.36328125 611 774.36328125 611 784.36328125 613.5 c 128,-1,28
 794.36328125 616 794.36328125 616 801.36328125 616 c 0,29,30
 814.36328125 616 814.36328125 616 823.86328125 609 c 128,-1,31
 833.36328125 602 833.36328125 602 838.86328125 592 c 128,-1,32
 844.36328125 582 844.36328125 582 845.86328125 571 c 128,-1,33
 847.36328125 560 847.36328125 560 843.36328125 552 c 2,34,-1
 718.36328125 281 l 2,35,36
 711.36328125 266 711.36328125 266 707.36328125 255.5 c 128,-1,37
 703.36328125 245 703.36328125 245 701.86328125 234 c 128,-1,38
 700.36328125 223 700.36328125 223 699.86328125 209.5 c 128,-1,39
 699.36328125 196 699.36328125 196 699.36328125 174 c 2,40,-1
 699.36328125 52 l 2,41,42
 699.36328125 37 699.36328125 37 693.86328125 27 c 128,-1,43
 688.36328125 17 688.36328125 17 679.86328125 11 c 128,-1,44
 671.36328125 5 671.36328125 5 661.36328125 2.5 c 128,-1,45
 651.36328125 0 651.36328125 0 642.36328125 0 c 0,0,1
470.36328125 551 m 0,46,47
 468.36328125 559 468.36328125 559 468.86328125 564.5 c 128,-1,48
 469.36328125 570 469.36328125 570 468.36328125 575 c 256,49,50
 467.36328125 580 467.36328125 580 465.36328125 584 c 128,-1,51
 463.36328125 588 463.36328125 588 461.36328125 587 c 0,52,53
 450.36328125 582 450.36328125 582 451.86328125 568 c 128,-1,54
 453.36328125 554 453.36328125 554 456.36328125 546 c 0,55,56
 461.36328125 535 461.36328125 535 468.36328125 537 c 0,57,58
 472.36328125 539 472.36328125 539 472.36328125 543 c 128,-1,59
 472.36328125 547 472.36328125 547 470.36328125 551 c 0,46,47
626.36328125 33 m 0,60,61
 624.36328125 37 624.36328125 37 620.86328125 47 c 128,-1,62
 617.36328125 57 617.36328125 57 615.36328125 74 c 0,63,64
 614.36328125 97 614.36328125 97 610.36328125 97 c 0,65,66
 609.36328125 97 609.36328125 97 607.36328125 93.5 c 128,-1,67
 605.36328125 90 605.36328125 90 604.36328125 81 c 0,68,69
 602.36328125 49 602.36328125 49 609.86328125 35 c 128,-1,70
 617.36328125 21 617.36328125 21 626.36328125 21 c 0,71,72
 630.36328125 21 630.36328125 21 629.36328125 24.5 c 128,-1,73
 628.36328125 28 628.36328125 28 626.36328125 33 c 0,60,61
EndSplineSet

EndChar

StartChar: Z
Encoding: 90 90 66
Width: 1284
Flags: W
LayerCount: 2
Fore
SplineSet
541.5 0 m 2,0,1
 530.5 0 530.5 0 518 2.5 c 128,-1,2
 505.5 5 505.5 5 495.5 11.5 c 128,-1,3
 485.5 18 485.5 18 479 28.5 c 128,-1,4
 472.5 39 472.5 39 472.5 55 c 0,5,6
 472.5 65 472.5 65 474 76 c 128,-1,7
 475.5 87 475.5 87 483.5 102 c 2,8,-1
 564.5 262 l 1,9,-1
 540.5 262 l 2,10,11
 525.5 262 525.5 262 517.5 273 c 128,-1,12
 509.5 284 509.5 284 509.5 301 c 256,13,14
 509.5 318 509.5 318 516 328 c 128,-1,15
 522.5 338 522.5 338 540.5 338 c 2,16,-1
 602.5 338 l 1,17,-1
 691.5 513 l 2,18,19
 694.5 519 694.5 519 694.5 525 c 0,20,21
 693.5 531 693.5 531 683.5 531 c 2,22,-1
 505.5 533 l 2,23,24
 492.5 533 492.5 533 484 543.5 c 128,-1,25
 475.5 554 475.5 554 475.5 569 c 0,26,27
 475.5 598 475.5 598 490 608 c 128,-1,28
 504.5 618 504.5 618 523.5 618 c 2,29,-1
 769.5 616 l 2,30,31
 781.5 616 781.5 616 789.5 609.5 c 128,-1,32
 797.5 603 797.5 603 802 593.5 c 128,-1,33
 806.5 584 806.5 584 808.5 572 c 128,-1,34
 810.5 560 810.5 560 810.5 548 c 0,35,36
 810.5 518 810.5 518 795.5 488 c 2,37,-1
 716.5 338 l 1,38,-1
 746.5 338 l 2,39,40
 764.5 338 764.5 338 772 329.5 c 128,-1,41
 779.5 321 779.5 321 779.5 307 c 0,42,43
 779.5 287 779.5 287 773 274.5 c 128,-1,44
 766.5 262 766.5 262 750.5 262 c 2,45,-1
 676.5 262 l 1,46,-1
 621.5 158 l 2,47,48
 609.5 135 609.5 135 603 121.5 c 128,-1,49
 596.5 108 596.5 108 596.5 100 c 0,50,51
 596.5 87 596.5 87 624.5 87 c 2,52,-1
 772.5 86 l 2,53,54
 792.5 86 792.5 86 802 72 c 128,-1,55
 811.5 58 811.5 58 811.5 35 c 0,56,57
 811.5 21 811.5 21 802 10.5 c 128,-1,58
 792.5 0 792.5 0 784.5 0 c 2,59,-1
 541.5 0 l 2,0,1
505.5 574 m 0,60,61
 507.5 578 507.5 578 511.5 585 c 128,-1,62
 515.5 592 515.5 592 514.5 595 c 0,63,64
 514.5 597 514.5 597 511 599.5 c 128,-1,65
 507.5 602 507.5 602 505.5 602 c 0,66,67
 494.5 600 494.5 600 491.5 586 c 128,-1,68
 488.5 572 488.5 572 490.5 560 c 0,69,70
 490.5 558 490.5 558 492.5 555 c 128,-1,71
 494.5 552 494.5 552 496.5 552 c 0,72,73
 500.5 553 500.5 553 502.5 562.5 c 128,-1,74
 504.5 572 504.5 572 505.5 574 c 0,60,61
532.5 306 m 0,75,76
 532.5 311 532.5 311 535.5 318.5 c 128,-1,77
 538.5 326 538.5 326 533.5 326 c 256,78,79
 528.5 326 528.5 326 523.5 318.5 c 128,-1,80
 518.5 311 518.5 311 518.5 300 c 0,81,82
 518.5 293 518.5 293 521 285.5 c 128,-1,83
 523.5 278 523.5 278 528.5 278 c 256,84,85
 533.5 278 533.5 278 533 287.5 c 128,-1,86
 532.5 297 532.5 297 532.5 306 c 0,75,76
498.5 49 m 0,87,88
 502.5 49 502.5 49 506.5 57.5 c 128,-1,89
 510.5 66 510.5 66 514.5 77.5 c 128,-1,90
 518.5 89 518.5 89 521 100.5 c 128,-1,91
 523.5 112 523.5 112 523.5 117 c 0,92,93
 523.5 121 523.5 121 519.5 121 c 0,94,95
 514.5 121 514.5 121 509.5 114 c 128,-1,96
 504.5 107 504.5 107 500 99 c 128,-1,97
 495.5 91 495.5 91 492.5 82.5 c 128,-1,98
 489.5 74 489.5 74 489.5 71 c 0,99,100
 488.5 63 488.5 63 491 56 c 128,-1,101
 493.5 49 493.5 49 498.5 49 c 0,87,88
513.5 27 m 0,102,103
 513.5 34 513.5 34 508.5 34 c 0,104,105
 499.5 34 499.5 34 499.5 25 c 0,106,107
 499.5 19 499.5 19 504.5 19 c 0,108,109
 507.5 19 507.5 19 510.5 21.5 c 128,-1,110
 513.5 24 513.5 24 513.5 27 c 0,102,103
EndSplineSet
EndChar

StartChar: a
Encoding: 97 97 67
Width: 1284
Flags: W
LayerCount: 2
Fore
SplineSet
648 621 m 0,0,1
 680 621 680 621 701 611 c 128,-1,2
 722 601 722 601 730 587 c 0,3,4
 736 575 736 575 747.5 534 c 128,-1,5
 759 493 759 493 772.5 437 c 128,-1,6
 786 381 786 381 800.5 318 c 128,-1,7
 815 255 815 255 827 199 c 128,-1,8
 839 143 839 143 846.5 101.5 c 128,-1,9
 854 60 854 60 854 48 c 0,10,11
 854 28 854 28 833 12.5 c 128,-1,12
 812 -3 812 -3 788 -3 c 256,13,14
 764 -3 764 -3 755 11 c 0,15,16
 751 17 751 17 745 32 c 128,-1,17
 739 47 739 47 733 67 c 128,-1,18
 727 87 727 87 721.5 109 c 128,-1,19
 716 131 716 131 712 152 c 0,20,21
 708 172 708 172 700.5 176.5 c 128,-1,22
 693 181 693 181 683 181 c 0,23,24
 654 181 654 181 632 181.5 c 128,-1,25
 610 182 610 182 599 182 c 0,26,27
 579 182 579 182 569.5 177.5 c 128,-1,28
 560 173 560 173 557 162 c 2,29,-1
 531 62 l 2,30,31
 523 33 523 33 505.5 15.5 c 128,-1,32
 488 -2 488 -2 466 -2 c 0,33,34
 430 -2 430 -2 430 48 c 0,35,36
 430 65 430 65 434 95.5 c 128,-1,37
 438 126 438 126 444.5 164.5 c 128,-1,38
 451 203 451 203 460.5 246.5 c 128,-1,39
 470 290 470 290 480.5 334.5 c 128,-1,40
 491 379 491 379 502 421 c 128,-1,41
 513 463 513 463 524 497 c 0,42,43
 536 535 536 535 548.5 559 c 128,-1,44
 561 583 561 583 575 597 c 128,-1,45
 589 611 589 611 606.5 616 c 128,-1,46
 624 621 624 621 648 621 c 0,0,1
587 561 m 0,47,48
 598 574 598 574 607 585.5 c 128,-1,49
 616 597 616 597 609 598 c 0,50,51
 593 601 593 601 577 579 c 0,52,53
 566 562 566 562 561 543 c 128,-1,54
 556 524 556 524 564 522 c 0,55,56
 566 522 566 522 568 525.5 c 128,-1,57
 570 529 570 529 572 535 c 128,-1,58
 574 541 574 541 577.5 548 c 128,-1,59
 581 555 581 555 587 561 c 0,47,48
603 377 m 0,60,61
 592 320 592 320 588.5 298.5 c 128,-1,62
 585 277 585 277 594 277 c 2,63,-1
 682 277 l 2,64,65
 690 277 690 277 686 296.5 c 128,-1,66
 682 316 682 316 674 357 c 0,67,68
 672 368 672 368 669 393.5 c 128,-1,69
 666 419 666 419 661.5 445 c 128,-1,70
 657 471 657 471 652 491.5 c 128,-1,71
 647 512 647 512 641 512 c 0,72,73
 636 512 636 512 630 494 c 128,-1,74
 624 476 624 476 618.5 452.5 c 128,-1,75
 613 429 613 429 609 407 c 128,-1,76
 605 385 605 385 603 377 c 0,60,61
462 63 m 0,77,78
 464 75 464 75 462 82 c 128,-1,79
 460 89 460 89 456 90 c 0,80,81
 454 90 454 90 451.5 87.5 c 128,-1,82
 449 85 449 85 447 77 c 0,83,84
 443 57 443 57 446 38.5 c 128,-1,85
 449 20 449 20 457 18 c 0,86,87
 467 16 467 16 461 33 c 0,88,89
 459 39 459 39 459.5 46.5 c 128,-1,90
 460 54 460 54 462 63 c 0,77,78
767 64 m 0,91,92
 760 78 760 78 758 83 c 128,-1,93
 756 88 756 88 754 88 c 0,94,95
 751 88 751 88 749 78 c 0,96,97
 749 74 749 74 751.5 63.5 c 128,-1,98
 754 53 754 53 758 42.5 c 128,-1,99
 762 32 762 32 767.5 24 c 128,-1,100
 773 16 773 16 778 16 c 0,101,102
 781 16 781 16 781 21 c 128,-1,103
 781 26 781 26 778.5 34 c 128,-1,104
 776 42 776 42 773 50 c 128,-1,105
 770 58 770 58 767 64 c 0,91,92
EndSplineSet
EndChar

StartChar: b
Encoding: 98 98 68
Width: 1284
Flags: W
LayerCount: 2
Fore
SplineSet
804.5 -12 m 0,0,1
 765.5 -12 765.5 -12 734 -0.5 c 128,-1,2
 702.5 11 702.5 11 676.5 37 c 128,-1,3
 650.5 63 650.5 63 626.5 105 c 1,4,-1
 658.5 104 l 1,5,6
 635.5 59 635.5 59 608 34 c 128,-1,7
 580.5 9 580.5 9 546 -1.5 c 128,-1,8
 511.5 -12 511.5 -12 465.5 -12 c 0,9,10
 409.5 -12 409.5 -12 371.5 9.5 c 128,-1,11
 333.5 31 333.5 31 315 65 c 128,-1,12
 296.5 99 296.5 99 296.5 136 c 0,13,14
 296.5 179 296.5 179 313 210 c 128,-1,15
 329.5 241 329.5 241 360.5 267.5 c 128,-1,16
 391.5 294 391.5 294 434.5 321 c 0,17,18
 472.5 346 472.5 346 495.5 368 c 128,-1,19
 518.5 390 518.5 390 518.5 422 c 0,20,21
 518.5 443 518.5 443 510.5 458.5 c 128,-1,22
 502.5 474 502.5 474 485 482 c 128,-1,23
 467.5 490 467.5 490 437.5 490 c 0,24,25
 394.5 490 394.5 490 374.5 471.5 c 128,-1,26
 354.5 453 354.5 453 354.5 422 c 0,27,28
 354.5 406 354.5 406 359.5 391.5 c 128,-1,29
 364.5 377 364.5 377 374.5 363 c 1,30,-1
 304.5 332 l 1,31,32
 288.5 357 288.5 357 281 381.5 c 128,-1,33
 273.5 406 273.5 406 273.5 431 c 0,34,35
 273.5 466 273.5 466 291.5 496 c 128,-1,36
 309.5 526 309.5 526 346 544.5 c 128,-1,37
 382.5 563 382.5 563 438.5 563 c 0,38,39
 500.5 563 500.5 563 535.5 541.5 c 128,-1,40
 570.5 520 570.5 520 585 488 c 128,-1,41
 599.5 456 599.5 456 599.5 423 c 0,42,43
 599.5 387 599.5 387 584 358.5 c 128,-1,44
 568.5 330 568.5 330 540 305 c 128,-1,45
 511.5 280 511.5 280 471.5 254 c 0,46,47
 425.5 224 425.5 224 402 201 c 128,-1,48
 378.5 178 378.5 178 378.5 141 c 0,49,50
 378.5 102 378.5 102 404.5 84.5 c 128,-1,51
 430.5 67 430.5 67 470.5 67 c 0,52,53
 537.5 67 537.5 67 569.5 102 c 128,-1,54
 601.5 137 601.5 137 605.5 195 c 1,55,-1
 681.5 195 l 1,56,57
 686.5 128 686.5 128 723 97.5 c 128,-1,58
 759.5 67 759.5 67 808.5 67 c 0,59,60
 863.5 67 863.5 67 896 106 c 128,-1,61
 928.5 145 928.5 145 928.5 210 c 0,62,63
 928.5 280 928.5 280 904 333 c 128,-1,64
 879.5 386 879.5 386 835.5 424.5 c 128,-1,65
 791.5 463 791.5 463 732.5 488 c 1,66,-1
 775.5 565 l 1,67,68
 843.5 532 843.5 532 896.5 482 c 128,-1,69
 949.5 432 949.5 432 980 365 c 128,-1,70
 1010.5 298 1010.5 298 1010.5 215 c 0,71,72
 1010.5 147 1010.5 147 986.5 96 c 128,-1,73
 962.5 45 962.5 45 916.5 16.5 c 128,-1,74
 870.5 -12 870.5 -12 804.5 -12 c 0,0,1
EndSplineSet
EndChar

StartChar: c
Encoding: 99 99 69
Width: 1284
Flags: W
LayerCount: 2
Fore
SplineSet
711 -10 m 4,0,1
 593 -10 593 -10 528 57 c 132,-1,2
 463 124 463 124 463 245 c 4,3,4
 463 325 463 325 492 380.5 c 132,-1,5
 521 436 521 436 575 465 c 5,6,-1
 416 465 l 5,7,-1
 416 537 l 5,8,-1
 868 537 l 5,9,-1
 868 465 l 5,10,-1
 755 465 l 6,11,12
 661 465 661 465 607.5 411.5 c 132,-1,13
 554 358 554 358 554 252 c 4,14,15
 554 165 554 165 597 114.5 c 132,-1,16
 640 64 640 64 720 64 c 4,17,18
 757 64 757 64 791 73.5 c 132,-1,19
 825 83 825 83 857 99 c 5,20,-1
 857 21 l 5,21,22
 828 5 828 5 793 -2.5 c 132,-1,23
 758 -10 758 -10 711 -10 c 4,0,1
EndSplineSet
EndChar

StartChar: d
Encoding: 100 100 70
Width: 1284
Flags: W
LayerCount: 2
Fore
SplineSet
472.5 -12 m 0,0,1
 394.5 -12 394.5 -12 346.5 46 c 128,-1,2
 298.5 104 298.5 104 298.5 220 c 0,3,4
 298.5 282 298.5 282 316 334 c 128,-1,5
 333.5 386 333.5 386 368.5 425.5 c 128,-1,6
 403.5 465 403.5 465 453.5 487 c 1,7,-1
 468.5 474 l 1,8,-1
 298.5 474 l 1,9,-1
 298.5 551 l 1,10,-1
 774.5 551 l 2,11,12
 827.5 551 827.5 551 850 556 c 128,-1,13
 872.5 561 872.5 561 882.5 569 c 0,14,15
 896.5 579 896.5 579 900.5 591.5 c 128,-1,16
 904.5 604 904.5 604 904.5 618 c 0,17,18
 904.5 651 904.5 651 888.5 682.5 c 128,-1,19
 872.5 714 872.5 714 839.5 747 c 1,20,-1
 904.5 790 l 1,21,22
 951.5 738 951.5 738 968.5 696.5 c 128,-1,23
 985.5 655 985.5 655 985.5 612 c 0,24,25
 985.5 593 985.5 593 977.5 565.5 c 128,-1,26
 969.5 538 969.5 538 944.5 516 c 0,27,28
 934.5 507 934.5 507 920 499 c 128,-1,29
 905.5 491 905.5 491 887.5 485.5 c 128,-1,30
 869.5 480 869.5 480 845.5 477 c 1,31,-1
 848.5 488 l 1,32,33
 883.5 474 883.5 474 905.5 450 c 128,-1,34
 927.5 426 927.5 426 938 397 c 128,-1,35
 948.5 368 948.5 368 948.5 337 c 0,36,37
 948.5 319 948.5 319 946 305 c 128,-1,38
 943.5 291 943.5 291 935.5 275 c 0,39,40
 933.5 271 933.5 271 928.5 268 c 128,-1,41
 923.5 265 923.5 265 921.5 261 c 0,42,43
 904.5 232 904.5 232 873.5 213 c 128,-1,44
 842.5 194 842.5 194 798.5 194 c 0,45,46
 765.5 194 765.5 194 738 205.5 c 128,-1,47
 710.5 217 710.5 217 693.5 241 c 128,-1,48
 676.5 265 676.5 265 676.5 301 c 0,49,50
 676.5 353 676.5 353 711 377.5 c 128,-1,51
 745.5 402 745.5 402 790.5 402 c 0,52,53
 824.5 402 824.5 402 848 393.5 c 128,-1,54
 871.5 385 871.5 385 889.5 372 c 0,55,56
 934.5 347 934.5 347 960 296.5 c 128,-1,57
 985.5 246 985.5 246 985.5 184 c 0,58,59
 985.5 125 985.5 125 962 81 c 128,-1,60
 938.5 37 938.5 37 898.5 12.5 c 128,-1,61
 858.5 -12 858.5 -12 806.5 -12 c 0,62,63
 738.5 -12 738.5 -12 698 14.5 c 128,-1,64
 657.5 41 657.5 41 622.5 104 c 1,65,-1
 654.5 109 l 1,66,67
 631.5 58 631.5 58 603 32 c 128,-1,68
 574.5 6 574.5 6 541.5 -3 c 128,-1,69
 508.5 -12 508.5 -12 472.5 -12 c 0,0,1
483.5 67 m 0,70,71
 533.5 67 533.5 67 562.5 100.5 c 128,-1,72
 591.5 134 591.5 134 600.5 184 c 1,73,-1
 676.5 184 l 1,74,75
 686.5 123 686.5 123 720 95 c 128,-1,76
 753.5 67 753.5 67 798.5 67 c 0,77,78
 828.5 67 828.5 67 854 79 c 128,-1,79
 879.5 91 879.5 91 895 117 c 128,-1,80
 910.5 143 910.5 143 910.5 185 c 0,81,82
 910.5 223 910.5 223 898.5 258.5 c 128,-1,83
 886.5 294 886.5 294 862 317.5 c 128,-1,84
 837.5 341 837.5 341 799.5 341 c 0,85,86
 778.5 341 778.5 341 765 330.5 c 128,-1,87
 751.5 320 751.5 320 751.5 301 c 0,88,89
 751.5 279 751.5 279 764.5 268 c 128,-1,90
 777.5 257 777.5 257 803.5 257 c 0,91,92
 819.5 257 819.5 257 837 264.5 c 128,-1,93
 854.5 272 854.5 272 866.5 289.5 c 128,-1,94
 878.5 307 878.5 307 878.5 337 c 256,95,96
 878.5 367 878.5 367 863 392.5 c 128,-1,97
 847.5 418 847.5 418 819 437 c 128,-1,98
 790.5 456 790.5 456 752 466 c 128,-1,99
 713.5 476 713.5 476 667.5 476 c 2,100,-1
 632.5 476 l 2,101,102
 570.5 476 570.5 476 523.5 457 c 128,-1,103
 476.5 438 476.5 438 444.5 403.5 c 128,-1,104
 412.5 369 412.5 369 396.5 322 c 128,-1,105
 380.5 275 380.5 275 380.5 220 c 0,106,107
 380.5 137 380.5 137 407.5 102 c 128,-1,108
 434.5 67 434.5 67 483.5 67 c 0,70,71
EndSplineSet
EndChar

StartChar: e
Encoding: 101 101 71
Width: 1284
Flags: W
LayerCount: 2
Fore
SplineSet
658.83984375 -10 m 0,0,1
 613.83984375 -10 613.83984375 -10 577.33984375 11.5 c 128,-1,2
 540.83984375 33 540.83984375 33 514.83984375 73 c 128,-1,3
 488.83984375 113 488.83984375 113 474.33984375 168.5 c 128,-1,4
 459.83984375 224 459.83984375 224 459.83984375 292 c 0,5,6
 459.83984375 364 459.83984375 364 475.83984375 424.5 c 128,-1,7
 491.83984375 485 491.83984375 485 520.33984375 529.5 c 128,-1,8
 548.83984375 574 548.83984375 574 588.33984375 598.5 c 128,-1,9
 627.83984375 623 627.83984375 623 673.83984375 623 c 0,10,11
 707.83984375 623 707.83984375 623 736.33984375 610 c 128,-1,12
 764.83984375 597 764.83984375 597 784.83984375 573.5 c 128,-1,13
 804.83984375 550 804.83984375 550 815.33984375 518.5 c 128,-1,14
 825.83984375 487 825.83984375 487 823.83984375 450 c 0,15,16
 821.83984375 407 821.83984375 407 803.83984375 366.5 c 128,-1,17
 785.83984375 326 785.83984375 326 755.83984375 295 c 128,-1,18
 725.83984375 264 725.83984375 264 686.33984375 245.5 c 128,-1,19
 646.83984375 227 646.83984375 227 601.83984375 227 c 0,20,21
 584.83984375 227 584.83984375 227 584.83984375 213 c 0,22,23
 584.83984375 149 584.83984375 149 607.33984375 118.5 c 128,-1,24
 629.83984375 88 629.83984375 88 664.83984375 88 c 0,25,26
 690.83984375 88 690.83984375 88 708.33984375 107 c 128,-1,27
 725.83984375 126 725.83984375 126 725.83984375 155 c 0,28,29
 725.83984375 179 725.83984375 179 738.83984375 193.5 c 128,-1,30
 751.83984375 208 751.83984375 208 771.83984375 208 c 0,31,32
 794.83984375 208 794.83984375 208 808.33984375 189.5 c 128,-1,33
 821.83984375 171 821.83984375 171 821.83984375 139 c 0,34,35
 821.83984375 109 821.83984375 109 808.83984375 81.5 c 128,-1,36
 795.83984375 54 795.83984375 54 773.83984375 34 c 128,-1,37
 751.83984375 14 751.83984375 14 721.83984375 2 c 128,-1,38
 691.83984375 -10 691.83984375 -10 658.83984375 -10 c 0,0,1
528.83984375 477 m 0,39,40
 531.83984375 477 531.83984375 477 541.33984375 491.5 c 128,-1,41
 550.83984375 506 550.83984375 506 563.83984375 523.5 c 128,-1,42
 576.83984375 541 576.83984375 541 591.83984375 556.5 c 128,-1,43
 606.83984375 572 606.83984375 572 621.83984375 573 c 0,44,45
 626.83984375 574 626.83984375 574 631.33984375 576.5 c 128,-1,46
 635.83984375 579 635.83984375 579 634.83984375 582 c 0,47,48
 634.83984375 592 634.83984375 592 621.83984375 590 c 0,49,50
 604.83984375 589 604.83984375 589 587.33984375 576 c 128,-1,51
 569.83984375 563 569.83984375 563 555.33984375 545.5 c 128,-1,52
 540.83984375 528 540.83984375 528 531.83984375 510 c 128,-1,53
 522.83984375 492 522.83984375 492 523.83984375 481 c 0,54,55
 525.83984375 474 525.83984375 474 528.83984375 477 c 0,39,40
581.83984375 315 m 0,56,57
 584.83984375 311 584.83984375 311 595.83984375 311 c 0,58,59
 621.83984375 311 621.83984375 311 645.83984375 324 c 128,-1,60
 669.83984375 337 669.83984375 337 687.83984375 357 c 128,-1,61
 705.83984375 377 705.83984375 377 716.83984375 403 c 128,-1,62
 727.83984375 429 727.83984375 429 727.83984375 454 c 0,63,64
 727.83984375 486 727.83984375 486 712.33984375 507 c 128,-1,65
 696.83984375 528 696.83984375 528 673.83984375 528 c 0,66,67
 656.83984375 528 656.83984375 528 642.33984375 513.5 c 128,-1,68
 627.83984375 499 627.83984375 499 616.33984375 477.5 c 128,-1,69
 604.83984375 456 604.83984375 456 596.83984375 429.5 c 128,-1,70
 588.83984375 403 588.83984375 403 584.33984375 379.5 c 128,-1,71
 579.83984375 356 579.83984375 356 578.83984375 338 c 128,-1,72
 577.83984375 320 577.83984375 320 581.83984375 315 c 0,56,57
515.83984375 467 m 0,73,74
 510.83984375 466 510.83984375 466 507.83984375 459.5 c 128,-1,75
 504.83984375 453 504.83984375 453 505.83984375 445 c 0,76,77
 507.83984375 436 507.83984375 436 509.83984375 437 c 0,78,79
 514.83984375 437 514.83984375 437 518.83984375 446 c 128,-1,80
 522.83984375 455 522.83984375 455 520.83984375 462 c 0,81,82
 518.83984375 468 518.83984375 468 515.83984375 467 c 0,73,74
EndSplineSet
EndChar

StartChar: f
Encoding: 102 102 72
Width: 1284
Flags: W
LayerCount: 2
Fore
SplineSet
476.5 -12 m 0,0,1
 420.5 -12 420.5 -12 376 10 c 128,-1,2
 331.5 32 331.5 32 306.5 72 c 128,-1,3
 281.5 112 281.5 112 281.5 167 c 0,4,5
 281.5 211 281.5 211 299.5 246.5 c 128,-1,6
 317.5 282 317.5 282 351.5 303 c 128,-1,7
 385.5 324 385.5 324 433.5 324 c 0,8,9
 486.5 324 486.5 324 518.5 299 c 128,-1,10
 550.5 274 550.5 274 550.5 231 c 0,11,12
 550.5 215 550.5 215 547.5 199 c 128,-1,13
 544.5 183 544.5 183 537.5 172 c 1,14,-1
 469.5 178 l 1,15,16
 471.5 186 471.5 186 473.5 194.5 c 128,-1,17
 475.5 203 475.5 203 475.5 210 c 0,18,19
 475.5 232 475.5 232 463.5 243 c 128,-1,20
 451.5 254 451.5 254 430.5 254 c 0,21,22
 399.5 254 399.5 254 379 232.5 c 128,-1,23
 358.5 211 358.5 211 358.5 170 c 0,24,25
 358.5 125 358.5 125 389.5 96 c 128,-1,26
 420.5 67 420.5 67 484.5 67 c 0,27,28
 553.5 67 553.5 67 585.5 102 c 128,-1,29
 617.5 137 617.5 137 622.5 195 c 1,30,-1
 698.5 195 l 1,31,32
 703.5 128 703.5 128 738 97.5 c 128,-1,33
 772.5 67 772.5 67 820.5 67 c 0,34,35
 856.5 67 856.5 67 878.5 83 c 128,-1,36
 900.5 99 900.5 99 910.5 127.5 c 128,-1,37
 920.5 156 920.5 156 920.5 191 c 0,38,39
 920.5 237 920.5 237 902.5 284.5 c 128,-1,40
 884.5 332 884.5 332 836.5 387 c 1,41,-1
 907.5 435 l 1,42,43
 953.5 384 953.5 384 978 326.5 c 128,-1,44
 1002.5 269 1002.5 269 1002.5 198 c 0,45,46
 1002.5 126 1002.5 126 978 79.5 c 128,-1,47
 953.5 33 953.5 33 913.5 10.5 c 128,-1,48
 873.5 -12 873.5 -12 827.5 -12 c 0,49,50
 776.5 -12 776.5 -12 744.5 1 c 128,-1,51
 712.5 14 712.5 14 690.5 39.5 c 128,-1,52
 668.5 65 668.5 65 646.5 101 c 1,53,-1
 677.5 105 l 1,54,55
 651.5 57 651.5 57 622 32 c 128,-1,56
 592.5 7 592.5 7 557 -2.5 c 128,-1,57
 521.5 -12 521.5 -12 476.5 -12 c 0,0,1
614.5 -144 m 1,58,-1
 622.5 15 l 1,59,-1
 699.5 15 l 1,60,-1
 707.5 -144 l 1,61,-1
 614.5 -144 l 1,58,-1
651.5 297 m 0,62,63
 627.5 297 627.5 297 611 314 c 128,-1,64
 594.5 331 594.5 331 594.5 355 c 0,65,66
 594.5 381 594.5 381 611 398 c 128,-1,67
 627.5 415 627.5 415 651.5 415 c 0,68,69
 676.5 415 676.5 415 693.5 398 c 128,-1,70
 710.5 381 710.5 381 710.5 355 c 0,71,72
 710.5 331 710.5 331 693.5 314 c 128,-1,73
 676.5 297 676.5 297 651.5 297 c 0,62,63
281.5 474 m 1,74,-1
 281.5 551 l 1,75,-1
 791.5 551 l 2,76,77
 845.5 551 845.5 551 867.5 556 c 128,-1,78
 889.5 561 889.5 561 899.5 569 c 0,79,80
 913.5 579 913.5 579 917.5 591.5 c 128,-1,81
 921.5 604 921.5 604 921.5 618 c 0,82,83
 921.5 651 921.5 651 905.5 682.5 c 128,-1,84
 889.5 714 889.5 714 856.5 747 c 1,85,-1
 921.5 790 l 1,86,87
 968.5 738 968.5 738 985.5 696.5 c 128,-1,88
 1002.5 655 1002.5 655 1002.5 612 c 0,89,90
 1002.5 593 1002.5 593 995 565.5 c 128,-1,91
 987.5 538 987.5 538 961.5 516 c 0,92,93
 936.5 494 936.5 494 902 484 c 128,-1,94
 867.5 474 867.5 474 809.5 474 c 2,95,-1
 281.5 474 l 1,74,-1
EndSplineSet
EndChar

StartChar: g
Encoding: 103 103 73
Width: 1284
Flags: W
LayerCount: 2
Fore
SplineSet
661.5 -5 m 0,0,1
 594.5 -5 594.5 -5 550.5 28 c 128,-1,2
 506.5 61 506.5 61 480.5 111 c 128,-1,3
 454.5 161 454.5 161 444.5 219 c 128,-1,4
 434.5 277 434.5 277 434.5 328 c 0,5,6
 434.5 384 434.5 384 446 437.5 c 128,-1,7
 457.5 491 457.5 491 484.5 532.5 c 128,-1,8
 511.5 574 511.5 574 555 599.5 c 128,-1,9
 598.5 625 598.5 625 662.5 625 c 0,10,11
 693.5 625 693.5 625 722 616.5 c 128,-1,12
 750.5 608 750.5 608 772.5 589.5 c 128,-1,13
 794.5 571 794.5 571 807.5 540.5 c 128,-1,14
 820.5 510 820.5 510 820.5 466 c 0,15,16
 820.5 450 820.5 450 814 440.5 c 128,-1,17
 807.5 431 807.5 431 798 425.5 c 128,-1,18
 788.5 420 788.5 420 778.5 418.5 c 128,-1,19
 768.5 417 768.5 417 762.5 417 c 0,20,21
 748.5 417 748.5 417 736 427 c 128,-1,22
 723.5 437 723.5 437 723.5 466 c 0,23,24
 723.5 511 723.5 511 703 529 c 128,-1,25
 682.5 547 682.5 547 653.5 547 c 0,26,27
 633.5 547 633.5 547 615 530.5 c 128,-1,28
 596.5 514 596.5 514 582.5 483.5 c 128,-1,29
 568.5 453 568.5 453 560.5 410 c 128,-1,30
 552.5 367 552.5 367 552.5 314 c 0,31,32
 552.5 285 552.5 285 556 245 c 128,-1,33
 559.5 205 559.5 205 571.5 169 c 128,-1,34
 583.5 133 583.5 133 605.5 107.5 c 128,-1,35
 627.5 82 627.5 82 663.5 82 c 0,36,37
 692.5 82 692.5 82 709 96.5 c 128,-1,38
 725.5 111 725.5 111 733 132 c 128,-1,39
 740.5 153 740.5 153 742 175.5 c 128,-1,40
 743.5 198 743.5 198 742.5 214 c 256,41,42
 741.5 230 741.5 230 729 231.5 c 128,-1,43
 716.5 233 716.5 233 693.5 233 c 2,44,-1
 642.5 233 l 2,45,46
 636.5 233 636.5 233 631.5 239 c 128,-1,47
 626.5 245 626.5 245 623.5 253.5 c 128,-1,48
 620.5 262 620.5 262 618.5 271 c 128,-1,49
 616.5 280 616.5 280 616.5 286 c 0,50,51
 616.5 302 616.5 302 627 314.5 c 128,-1,52
 637.5 327 637.5 327 660.5 327 c 2,53,-1
 768.5 326 l 2,54,55
 799.5 326 799.5 326 824.5 306 c 128,-1,56
 849.5 286 849.5 286 849.5 249 c 0,57,58
 849.5 206 849.5 206 840 161 c 128,-1,59
 830.5 116 830.5 116 808.5 79 c 128,-1,60
 786.5 42 786.5 42 750.5 18.5 c 128,-1,61
 714.5 -5 714.5 -5 661.5 -5 c 0,0,1
566.5 58 m 0,62,63
 566.5 62 566.5 62 546.5 84 c 0,64,65
 537.5 93 537.5 93 528.5 106.5 c 128,-1,66
 519.5 120 519.5 120 512 133 c 128,-1,67
 504.5 146 504.5 146 500 157.5 c 128,-1,68
 495.5 169 495.5 169 495.5 173 c 0,69,70
 495.5 178 495.5 178 492.5 179.5 c 128,-1,71
 489.5 181 489.5 181 488.5 181 c 0,72,73
 480.5 181 480.5 181 480.5 170 c 256,74,75
 480.5 159 480.5 159 489.5 139 c 128,-1,76
 498.5 119 498.5 119 511 99.5 c 128,-1,77
 523.5 80 523.5 80 537 66 c 128,-1,78
 550.5 52 550.5 52 560.5 52 c 0,79,80
 566.5 52 566.5 52 566.5 58 c 0,62,63
589.5 45 m 0,81,82
 589.5 52 589.5 52 582.5 52 c 0,83,84
 578.5 52 578.5 52 577 49 c 128,-1,85
 575.5 46 575.5 46 575.5 44 c 0,86,87
 575.5 39 575.5 39 578 38 c 128,-1,88
 580.5 37 580.5 37 582.5 37 c 0,89,90
 589.5 37 589.5 37 589.5 45 c 0,81,82
EndSplineSet
EndChar

StartChar: h
Encoding: 104 104 74
Width: 1284
Flags: W
LayerCount: 2
Fore
SplineSet
514.509765625 0 m 0,0,1
 489.509765625 0 489.509765625 0 479.509765625 14.5 c 128,-1,2
 469.509765625 29 469.509765625 29 469.509765625 65 c 2,3,-1
 469.509765625 343 l 2,4,5
 469.509765625 434 469.509765625 434 467.509765625 518 c 0,6,7
 466.509765625 616 466.509765625 616 517.509765625 616 c 0,8,9
 536.509765625 616 536.509765625 616 554.509765625 606.5 c 128,-1,10
 572.509765625 597 572.509765625 597 572.509765625 571 c 2,11,-1
 572.509765625 358 l 2,12,13
 572.509765625 318 572.509765625 318 576.509765625 318 c 256,14,15
 580.509765625 318 580.509765625 318 585.509765625 334 c 128,-1,16
 590.509765625 350 590.509765625 350 602.509765625 369.5 c 128,-1,17
 614.509765625 389 614.509765625 389 636.509765625 405 c 128,-1,18
 658.509765625 421 658.509765625 421 694.509765625 421 c 0,19,20
 758.509765625 421 758.509765625 421 787.509765625 358 c 128,-1,21
 816.509765625 295 816.509765625 295 816.509765625 157 c 2,22,-1
 816.509765625 31 l 2,23,24
 816.509765625 0 816.509765625 0 760.509765625 0 c 0,25,26
 733.509765625 0 733.509765625 0 721.509765625 11.5 c 128,-1,27
 709.509765625 23 709.509765625 23 709.509765625 34 c 2,28,-1
 709.509765625 148 l 2,29,30
 709.509765625 200 709.509765625 200 706.509765625 232 c 128,-1,31
 703.509765625 264 703.509765625 264 697.509765625 282 c 128,-1,32
 691.509765625 300 691.509765625 300 682.009765625 306.5 c 128,-1,33
 672.509765625 313 672.509765625 313 658.509765625 313 c 0,34,35
 637.509765625 313 637.509765625 313 622.009765625 293.5 c 128,-1,36
 606.509765625 274 606.509765625 274 596.509765625 241 c 128,-1,37
 586.509765625 208 586.509765625 208 582.009765625 163.5 c 0,38,39
 577.509765625 123 577.509765625 123 577.509765625 121 c 2,40,-1
 577.509765625 45 l 2,41,42
 577.509765625 30 577.509765625 30 570.009765625 21 c 128,-1,43
 562.509765625 12 562.509765625 12 552.509765625 7.5 c 128,-1,44
 542.509765625 3 542.509765625 3 532.009765625 1.5 c 128,-1,45
 521.509765625 0 521.509765625 0 514.509765625 0 c 0,0,1
489.509765625 316 m 0,46,47
 492.509765625 316 492.509765625 316 494.509765625 328 c 128,-1,48
 496.509765625 340 496.509765625 340 498.509765625 355 c 128,-1,49
 500.509765625 370 500.509765625 370 501.509765625 482 c 128,-1,50
 502.509765625 594 502.509765625 594 502.509765625 595 c 0,51,52
 502.509765625 597 502.509765625 597 502.009765625 600 c 128,-1,53
 501.509765625 603 501.509765625 603 499.509765625 603 c 0,54,55
 494.509765625 603 494.509765625 603 491.009765625 595.5 c 128,-1,56
 487.509765625 588 487.509765625 588 485.509765625 479 c 128,-1,57
 483.509765625 370 483.509765625 370 482.509765625 360.5 c 128,-1,58
 481.509765625 351 481.509765625 351 481.509765625 348 c 0,59,60
 481.509765625 340 481.509765625 340 483.509765625 328 c 128,-1,61
 485.509765625 316 485.509765625 316 489.509765625 316 c 0,46,47
746.509765625 29 m 0,62,63
 746.509765625 35 746.509765625 35 744.509765625 38 c 128,-1,64
 742.509765625 41 742.509765625 41 740.009765625 43 c 128,-1,65
 737.509765625 45 737.509765625 45 735.509765625 49 c 128,-1,66
 733.509765625 53 733.509765625 53 733.509765625 60 c 0,67,68
 733.509765625 76 733.509765625 76 732.009765625 80 c 128,-1,69
 730.509765625 84 730.509765625 84 725.509765625 84 c 256,70,71
 720.509765625 84 720.509765625 84 719.009765625 76.5 c 128,-1,72
 717.509765625 69 717.509765625 69 717.509765625 59 c 0,73,74
 717.509765625 39 717.509765625 39 723.509765625 27 c 128,-1,75
 729.509765625 15 729.509765625 15 737.509765625 15 c 0,76,77
 740.509765625 15 740.509765625 15 743.509765625 18.5 c 128,-1,78
 746.509765625 22 746.509765625 22 746.509765625 29 c 0,62,63
513.509765625 26 m 0,79,80
 513.509765625 31 513.509765625 31 511.009765625 33.5 c 128,-1,81
 508.509765625 36 508.509765625 36 505.509765625 38.5 c 128,-1,82
 502.509765625 41 502.509765625 41 500.009765625 45 c 128,-1,83
 497.509765625 49 497.509765625 49 497.509765625 56 c 0,84,85
 497.509765625 77 497.509765625 77 490.509765625 77 c 0,86,87
 488.509765625 77 488.509765625 77 486.509765625 69.5 c 128,-1,88
 484.509765625 62 484.509765625 62 484.509765625 51 c 0,89,90
 484.509765625 36 484.509765625 36 491.009765625 24 c 128,-1,91
 497.509765625 12 497.509765625 12 505.509765625 12 c 0,92,93
 507.509765625 12 507.509765625 12 510.509765625 16 c 128,-1,94
 513.509765625 20 513.509765625 20 513.509765625 26 c 0,79,80
EndSplineSet
EndChar

StartChar: i
Encoding: 105 105 75
Width: 1284
Flags: W
LayerCount: 2
Fore
SplineSet
633.674804688 -4 m 256,0,1
 609.674804688 -4 609.674804688 -4 596.674804688 6.5 c 128,-1,2
 583.674804688 17 583.674804688 17 583.674804688 32 c 2,3,-1
 583.674804688 387 l 2,4,5
 583.674804688 396 583.674804688 396 586.174804688 408 c 128,-1,6
 588.674804688 420 588.674804688 420 594.174804688 430 c 128,-1,7
 599.674804688 440 599.674804688 440 609.174804688 447 c 128,-1,8
 618.674804688 454 618.674804688 454 633.674804688 454 c 256,9,10
 648.674804688 454 648.674804688 454 659.174804688 448 c 128,-1,11
 669.674804688 442 669.674804688 442 676.174804688 433 c 128,-1,12
 682.674804688 424 682.674804688 424 686.174804688 413 c 128,-1,13
 689.674804688 402 689.674804688 402 689.674804688 392 c 2,14,-1
 689.674804688 32 l 2,15,16
 689.674804688 16 689.674804688 16 673.674804688 6 c 128,-1,17
 657.674804688 -4 657.674804688 -4 633.674804688 -4 c 256,0,1
601.674804688 357 m 0,18,19
 604.674804688 357 604.674804688 357 605.674804688 363 c 128,-1,20
 606.674804688 369 606.674804688 369 606.674804688 377.5 c 128,-1,21
 606.674804688 386 606.674804688 386 607.174804688 395.5 c 128,-1,22
 607.674804688 405 607.674804688 405 609.674804688 411 c 0,23,24
 610.674804688 415 610.674804688 415 612.674804688 422 c 128,-1,25
 614.674804688 429 614.674804688 429 611.674804688 429 c 0,26,27
 606.674804688 429 606.674804688 429 603.174804688 423.5 c 128,-1,28
 599.674804688 418 599.674804688 418 597.174804688 410.5 c 128,-1,29
 594.674804688 403 594.674804688 403 593.674804688 395.5 c 128,-1,30
 592.674804688 388 592.674804688 388 592.674804688 383 c 0,31,32
 592.674804688 374 592.674804688 374 594.674804688 365.5 c 128,-1,33
 596.674804688 357 596.674804688 357 601.674804688 357 c 0,18,19
637.141601562 523.2265625 m 4,34,35
 601.674804688 523 601.674804688 523 576.676757812 552.055664062 c 132,-1,36
 551.674804688 581 551.674804688 581 551.51953125 626.186523438 c 4,37,38
 551.674804688 651 551.674804688 651 559.022460938 673.033203125 c 4,39,40
 566.674804688 695 566.674804688 695 579.765625 711.12890625 c 4,41,42
 592.674804688 727 592.674804688 727 611.54296875 736.868164062 c 4,43,44
 629.674804688 747 629.674804688 747 652.147460938 746.649414062 c 4,45,46
 669.674804688 747 669.674804688 747 684.806640625 737.8984375 c 4,47,48
 699.674804688 729 699.674804688 729 710.40625 713.702148438 c 4,49,50
 720.674804688 698 720.674804688 698 726.735351562 678.696289062 c 4,51,52
 732.674804688 659 732.674804688 659 732.473632812 637.51171875 c 4,53,54
 732.674804688 610 732.674804688 610 724.969726562 588.606445312 c 4,55,56
 717.674804688 567 717.674804688 567 704.2265625 553.083984375 c 132,-1,57
 690.674804688 539 690.674804688 539 673.7734375 530.948242188 c 4,58,59
 655.674804688 523 655.674804688 523 637.141601562 523.2265625 c 4,34,35
604.481445312 701.34765625 m 4,60,61
 610.674804688 709 610.674804688 709 611.984375 713.702148438 c 4,62,63
 613.674804688 719 613.674804688 719 611.54296875 718.850585938 c 4,64,65
 604.674804688 719 604.674804688 719 596.537109375 711.12890625 c 4,66,67
 588.674804688 703 588.674804688 703 581.97265625 692.595703125 c 4,68,69
 575.674804688 682 575.674804688 682 570.939453125 669.4296875 c 4,70,71
 565.674804688 654 565.674804688 654 566.525390625 646.778320312 c 4,72,73
 566.674804688 645 566.674804688 645 567.848632812 638.541015625 c 4,74,75
 568.674804688 632 568.674804688 632 571.822265625 632.36328125 c 4,76,77
 575.674804688 633 575.674804688 633 580.6484375 655.015625 c 4,78,79
 583.674804688 669 583.674804688 669 590.358398438 681.26953125 c 4,80,81
 596.674804688 693 596.674804688 693 604.481445312 701.34765625 c 4,60,61
640.671875 581.913085938 m 4,82,83
 651.674804688 582 651.674804688 582 665.829101562 596.328125 c 4,84,85
 680.674804688 611 680.674804688 611 680.393554688 637.51171875 c 4,86,87
 680.674804688 658 680.674804688 658 671.125976562 672.002929688 c 132,-1,88
 661.674804688 686 661.674804688 686 646.850585938 685.903320312 c 260,89,90
 631.674804688 686 631.674804688 686 619.487304688 672.002929688 c 4,91,92
 606.674804688 657 606.674804688 657 607.12890625 633.393554688 c 260,93,94
 607.674804688 609 607.674804688 609 616.838867188 595.298828125 c 4,95,96
 626.674804688 582 626.674804688 582 640.671875 581.913085938 c 4,82,83
EndSplineSet


EndChar

StartChar: j
Encoding: 106 106 76
Width: 1284
Flags: W
LayerCount: 2
Fore
SplineSet
678 559 m 256,0,1
 652 559 652 559 636 574.5 c 128,-1,2
 620 590 620 590 620 616 c 0,3,4
 620 643 620 643 636.5 660 c 128,-1,5
 653 677 653 677 680 677 c 256,6,7
 707 677 707 677 724 661.5 c 128,-1,8
 741 646 741 646 741 621 c 0,9,10
 741 595 741 595 722.5 577 c 128,-1,11
 704 559 704 559 678 559 c 256,0,1
646 618 m 0,12,13
 648 627 648 627 651.5 631.5 c 128,-1,14
 655 636 655 636 659 638.5 c 128,-1,15
 663 641 663 641 666 643.5 c 128,-1,16
 669 646 669 646 669 650 c 0,17,18
 669 660 669 660 659 660 c 0,19,20
 647 660 647 660 639 646.5 c 128,-1,21
 631 633 631 633 631 618 c 0,22,23
 631 611 631 611 632.5 601.5 c 128,-1,24
 634 592 634 592 640 592 c 0,25,26
 645 592 645 592 645 603.5 c 128,-1,27
 645 615 645 615 646 618 c 0,12,13
733 82 m 2,28,29
 733 35 733 35 726.5 -3.5 c 128,-1,30
 720 -42 720 -42 705 -69.5 c 128,-1,31
 690 -97 690 -97 664.5 -112 c 128,-1,32
 639 -127 639 -127 600 -127 c 0,33,34
 569 -127 569 -127 556 -113.5 c 128,-1,35
 543 -100 543 -100 543 -72 c 0,36,37
 543 -56 543 -56 548 -38.5 c 128,-1,38
 553 -21 553 -21 567 -21 c 0,39,40
 574 -21 574 -21 580.5 -23.5 c 128,-1,41
 587 -26 587 -26 595 -26 c 0,42,43
 611 -26 611 -26 619 -3 c 128,-1,44
 627 20 627 20 627 82 c 2,45,-1
 627 439 l 2,46,47
 627 448 627 448 629.5 460 c 128,-1,48
 632 472 632 472 637.5 482 c 128,-1,49
 643 492 643 492 652.5 499 c 128,-1,50
 662 506 662 506 677 506 c 256,51,52
 692 506 692 506 702.5 500 c 128,-1,53
 713 494 713 494 719.5 485 c 128,-1,54
 726 476 726 476 729.5 465 c 128,-1,55
 733 454 733 454 733 444 c 2,56,-1
 733 82 l 2,28,29
645 409 m 0,57,58
 648 409 648 409 649 415 c 128,-1,59
 650 421 650 421 650 429.5 c 128,-1,60
 650 438 650 438 650.5 447.5 c 128,-1,61
 651 457 651 457 653 463 c 0,62,63
 654 467 654 467 656 474 c 128,-1,64
 658 481 658 481 655 481 c 0,65,66
 650 481 650 481 646.5 475.5 c 128,-1,67
 643 470 643 470 640.5 462.5 c 128,-1,68
 638 455 638 455 637 447.5 c 128,-1,69
 636 440 636 440 636 435 c 0,70,71
 636 426 636 426 638 417.5 c 128,-1,72
 640 409 640 409 645 409 c 0,57,58
587 -103 m 0,73,74
 587 -91 587 -91 578.5 -83 c 128,-1,75
 570 -75 570 -75 570 -66 c 0,76,77
 570 -52 570 -52 567.5 -47.5 c 128,-1,78
 565 -43 565 -43 561 -43 c 0,79,80
 558 -43 558 -43 556.5 -49.5 c 128,-1,81
 555 -56 555 -56 555 -64 c 0,82,83
 555 -83 555 -83 562 -97 c 128,-1,84
 569 -111 569 -111 577 -111 c 0,85,86
 580 -111 580 -111 583.5 -109.5 c 128,-1,87
 587 -108 587 -108 587 -103 c 0,73,74
EndSplineSet


EndChar

StartChar: k
Encoding: 107 107 77
Width: 1284
Flags: W
LayerCount: 2
Fore
SplineSet
634.5 -12 m 0,0,1
 564.5 -12 564.5 -12 514 11 c 128,-1,2
 463.5 34 463.5 34 436.5 75.5 c 128,-1,3
 409.5 117 409.5 117 409.5 172 c 0,4,5
 409.5 204 409.5 204 420 232 c 128,-1,6
 430.5 260 430.5 260 451.5 282.5 c 128,-1,7
 472.5 305 472.5 305 503.5 321 c 1,8,-1
 517.5 307 l 1,9,-1
 387.5 306 l 1,10,-1
 387.5 375 l 1,11,-1
 595.5 375 l 1,12,13
 606.5 383 606.5 383 614 395.5 c 128,-1,14
 621.5 408 621.5 408 621.5 424 c 0,15,16
 621.5 438 621.5 438 617 451 c 128,-1,17
 612.5 464 612.5 464 604.5 475 c 1,18,-1
 649.5 487 l 1,19,-1
 684.5 475 l 1,20,21
 692.5 462 692.5 462 696.5 448 c 128,-1,22
 700.5 434 700.5 434 700.5 423 c 0,23,24
 700.5 407 700.5 407 697 395.5 c 128,-1,25
 693.5 384 693.5 384 687.5 375 c 1,26,-1
 890.5 375 l 1,27,-1
 890.5 306 l 1,28,-1
 756.5 308 l 1,29,-1
 771.5 318 l 1,30,31
 800.5 307 800.5 307 822 286 c 128,-1,32
 843.5 265 843.5 265 855.5 236.5 c 128,-1,33
 867.5 208 867.5 208 867.5 174 c 0,34,35
 867.5 119 867.5 119 841.5 77 c 128,-1,36
 815.5 35 815.5 35 764 11.5 c 128,-1,37
 712.5 -12 712.5 -12 634.5 -12 c 0,0,1
638.5 66 m 0,38,39
 718.5 66 718.5 66 753 100.5 c 128,-1,40
 787.5 135 787.5 135 787.5 184 c 0,41,42
 787.5 221 787.5 221 770.5 248.5 c 128,-1,43
 753.5 276 753.5 276 720.5 291 c 128,-1,44
 687.5 306 687.5 306 638.5 306 c 0,45,46
 588.5 306 588.5 306 555 290.5 c 128,-1,47
 521.5 275 521.5 275 505.5 247.5 c 128,-1,48
 489.5 220 489.5 220 489.5 184 c 0,49,50
 489.5 131 489.5 131 526.5 98.5 c 128,-1,51
 563.5 66 563.5 66 638.5 66 c 0,38,39
387.5 474 m 1,52,-1
 387.5 551 l 1,53,-1
 685.5 551 l 2,54,55
 739.5 551 739.5 551 761.5 556 c 128,-1,56
 783.5 561 783.5 561 793.5 569 c 0,57,58
 806.5 579 806.5 579 811 591.5 c 128,-1,59
 815.5 604 815.5 604 815.5 618 c 0,60,61
 815.5 651 815.5 651 799.5 682.5 c 128,-1,62
 783.5 714 783.5 714 750.5 747 c 1,63,-1
 815.5 790 l 1,64,65
 862.5 738 862.5 738 879.5 696.5 c 128,-1,66
 896.5 655 896.5 655 896.5 612 c 0,67,68
 896.5 593 896.5 593 889 565.5 c 128,-1,69
 881.5 538 881.5 538 855.5 516 c 0,70,71
 830.5 494 830.5 494 796 484 c 128,-1,72
 761.5 474 761.5 474 703.5 474 c 2,73,-1
 387.5 474 l 1,52,-1
EndSplineSet
EndChar

StartChar: l
Encoding: 108 108 78
Width: 1284
Flags: W
LayerCount: 2
Fore
SplineSet
637.5 -12 m 0,0,1
 529.5 -12 529.5 -12 454 29 c 128,-1,2
 378.5 70 378.5 70 339 142.5 c 128,-1,3
 299.5 215 299.5 215 299.5 308 c 0,4,5
 299.5 387 299.5 387 325 444 c 128,-1,6
 350.5 501 350.5 501 397 532 c 128,-1,7
 443.5 563 443.5 563 504.5 563 c 0,8,9
 549.5 563 549.5 563 581.5 547 c 128,-1,10
 613.5 531 613.5 531 630.5 501 c 128,-1,11
 647.5 471 647.5 471 647.5 429 c 0,12,13
 647.5 386 647.5 386 628 352 c 128,-1,14
 608.5 318 608.5 318 570 298 c 128,-1,15
 531.5 278 531.5 278 474.5 278 c 0,16,17
 452.5 278 452.5 278 433.5 282 c 128,-1,18
 414.5 286 414.5 286 399 293.5 c 128,-1,19
 383.5 301 383.5 301 370.5 309 c 1,20,-1
 380.5 380 l 1,21,22
 390.5 373 390.5 373 404 365.5 c 128,-1,23
 417.5 358 417.5 358 433.5 353 c 128,-1,24
 449.5 348 449.5 348 468.5 348 c 0,25,26
 521.5 348 521.5 348 545.5 370.5 c 128,-1,27
 569.5 393 569.5 393 569.5 427 c 0,28,29
 569.5 459 569.5 459 551.5 476 c 128,-1,30
 533.5 493 533.5 493 504.5 493 c 0,31,32
 471.5 493 471.5 493 442.5 475 c 128,-1,33
 413.5 457 413.5 457 395.5 416 c 128,-1,34
 377.5 375 377.5 375 377.5 306 c 0,35,36
 377.5 241 377.5 241 407.5 187 c 128,-1,37
 437.5 133 437.5 133 496 101 c 128,-1,38
 554.5 69 554.5 69 640.5 69 c 0,39,40
 724.5 69 724.5 69 783 94 c 128,-1,41
 841.5 119 841.5 119 872 166.5 c 128,-1,42
 902.5 214 902.5 214 902.5 281 c 0,43,44
 902.5 352 902.5 352 862.5 403.5 c 128,-1,45
 822.5 455 822.5 455 754.5 491 c 1,46,-1
 800.5 565 l 1,47,48
 887.5 518 887.5 518 936 448 c 128,-1,49
 984.5 378 984.5 378 984.5 281 c 0,50,51
 984.5 201 984.5 201 949 134.5 c 128,-1,52
 913.5 68 913.5 68 837 28 c 128,-1,53
 760.5 -12 760.5 -12 637.5 -12 c 0,0,1
EndSplineSet
EndChar

StartChar: m
Encoding: 109 109 79
Width: 1284
Flags: W
LayerCount: 2
Fore
SplineSet
293 -12 m 0,0,1
 237 -12 237 -12 192.5 10 c 128,-1,2
 148 32 148 32 123 72 c 128,-1,3
 98 112 98 112 98 167 c 0,4,5
 98 211 98 211 116 246.5 c 128,-1,6
 134 282 134 282 168 303 c 128,-1,7
 202 324 202 324 250 324 c 0,8,9
 303 324 303 324 335 299 c 128,-1,10
 367 274 367 274 367 231 c 0,11,12
 367 215 367 215 364 199 c 128,-1,13
 361 183 361 183 354 172 c 1,14,-1
 286 178 l 1,15,16
 288 184 288 184 290 193.5 c 128,-1,17
 292 203 292 203 292 210 c 0,18,19
 292 232 292 232 280 243 c 128,-1,20
 268 254 268 254 247 254 c 0,21,22
 216 254 216 254 195 232.5 c 128,-1,23
 174 211 174 211 174 170 c 0,24,25
 174 125 174 125 205.5 96 c 128,-1,26
 237 67 237 67 301 67 c 0,27,28
 370 67 370 67 402 102 c 128,-1,29
 434 137 434 137 439 195 c 1,30,-1
 515 195 l 1,31,32
 520 128 520 128 554.5 97.5 c 128,-1,33
 589 67 589 67 637 67 c 0,34,35
 693 67 693 67 715 103.5 c 128,-1,36
 737 140 737 140 737 191 c 0,37,38
 737 250 737 250 716.5 299.5 c 128,-1,39
 696 349 696 349 662 387 c 128,-1,40
 628 425 628 425 587 448 c 128,-1,41
 546 471 546 471 505 477 c 1,42,-1
 658 483 l 1,43,44
 709 451 709 451 745 407 c 128,-1,45
 781 363 781 363 800 310.5 c 128,-1,46
 819 258 819 258 819 198 c 0,47,48
 819 126 819 126 794.5 79.5 c 128,-1,49
 770 33 770 33 730 10.5 c 128,-1,50
 690 -12 690 -12 644 -12 c 0,51,52
 593 -12 593 -12 561 1 c 128,-1,53
 529 14 529 14 507 39.5 c 128,-1,54
 485 65 485 65 463 101 c 1,55,-1
 494 105 l 1,56,57
 468 57 468 57 438.5 32 c 128,-1,58
 409 7 409 7 373.5 -2.5 c 128,-1,59
 338 -12 338 -12 293 -12 c 0,0,1
98 474 m 1,60,-1
 98 551 l 1,61,-1
 608 551 l 2,62,63
 662 551 662 551 684 556 c 128,-1,64
 706 561 706 561 716 569 c 0,65,66
 730 579 730 579 734 591.5 c 128,-1,67
 738 604 738 604 738 618 c 0,68,69
 738 651 738 651 722 682.5 c 128,-1,70
 706 714 706 714 673 747 c 1,71,-1
 738 790 l 1,72,73
 785 738 785 738 802 696.5 c 128,-1,74
 819 655 819 655 819 612 c 0,75,76
 819 593 819 593 811.5 565.5 c 128,-1,77
 804 538 804 538 778 516 c 0,78,79
 753 494 753 494 718.5 484 c 128,-1,80
 684 474 684 474 626 474 c 2,81,-1
 98 474 l 1,60,-1
975 -12 m 0,82,83
 899 -12 899 -12 842 26.5 c 128,-1,84
 785 65 785 65 740 123 c 1,85,-1
 791 177 l 1,86,87
 833 124 833 124 876.5 95.5 c 128,-1,88
 920 67 920 67 978 67 c 0,89,90
 1038 67 1038 67 1071 106 c 128,-1,91
 1104 145 1104 145 1104 210 c 0,92,93
 1104 280 1104 280 1079 333 c 128,-1,94
 1054 386 1054 386 1010 424.5 c 128,-1,95
 966 463 966 463 908 488 c 1,96,-1
 951 565 l 1,97,98
 1019 532 1019 532 1072 482 c 128,-1,99
 1125 432 1125 432 1155.5 365 c 128,-1,100
 1186 298 1186 298 1186 215 c 0,101,102
 1186 150 1186 150 1163 98.5 c 128,-1,103
 1140 47 1140 47 1093 17.5 c 128,-1,104
 1046 -12 1046 -12 975 -12 c 0,82,83
EndSplineSet
EndChar

StartChar: n
Encoding: 110 110 80
Width: 1284
Flags: W
LayerCount: 2
Fore
SplineSet
775 -12 m 0,0,1
 722 -12 722 -12 687.5 8 c 128,-1,2
 653 28 653 28 629.5 59.5 c 128,-1,3
 606 91 606 91 586 125 c 0,4,5
 561 169 561 169 543 191 c 128,-1,6
 525 213 525 213 509.5 221 c 128,-1,7
 494 229 494 229 474 229 c 0,8,9
 440 229 440 229 421.5 207.5 c 128,-1,10
 403 186 403 186 403 148 c 0,11,12
 403 116 403 116 417 82.5 c 128,-1,13
 431 49 431 49 454 17 c 1,14,-1
 376 -14 l 1,15,16
 353 18 353 18 338 60 c 128,-1,17
 323 102 323 102 323 145 c 0,18,19
 323 192 323 192 343 228 c 128,-1,20
 363 264 363 264 397 284.5 c 128,-1,21
 431 305 431 305 473 305 c 0,22,23
 535 305 535 305 571 276 c 128,-1,24
 607 247 607 247 641 187 c 0,25,26
 664 148 664 148 683 121 c 128,-1,27
 702 94 702 94 725.5 80.5 c 128,-1,28
 749 67 749 67 784 67 c 0,29,30
 836 67 836 67 857.5 103.5 c 128,-1,31
 879 140 879 140 879 190 c 0,32,33
 879 260 879 260 849.5 320 c 128,-1,34
 820 380 820 380 770.5 420.5 c 128,-1,35
 721 461 721 461 659 474 c 1,36,-1
 325 474 l 1,37,-1
 325 551 l 1,38,-1
 750 551 l 2,39,40
 804 551 804 551 825.5 556 c 128,-1,41
 847 561 847 561 858 569 c 0,42,43
 871 579 871 579 875.5 591.5 c 128,-1,44
 880 604 880 604 880 618 c 0,45,46
 880 651 880 651 864 682.5 c 128,-1,47
 848 714 848 714 815 747 c 1,48,-1
 880 790 l 1,49,50
 927 738 927 738 944 696.5 c 128,-1,51
 961 655 961 655 961 612 c 0,52,53
 961 593 961 593 953 565.5 c 128,-1,54
 945 538 945 538 920 516 c 256,55,56
 895 494 895 494 860 484 c 128,-1,57
 825 474 825 474 767 474 c 2,58,-1
 743 474 l 1,59,-1
 800 483 l 1,60,61
 851 451 851 451 887 407 c 128,-1,62
 923 363 923 363 942 310.5 c 128,-1,63
 961 258 961 258 961 198 c 0,64,65
 961 100 961 100 912.5 44 c 128,-1,66
 864 -12 864 -12 775 -12 c 0,0,1
EndSplineSet
EndChar

